<mxfile host="65bd71144e">
    <diagram id="3tfsijLc2zqnO2d6r97S" name="Page-1">
        <mxGraphModel dx="1642" dy="925" grid="1" gridSize="10" guides="1" tooltips="1" connect="1" arrows="1" fold="1" page="1" pageScale="1" pageWidth="1100" pageHeight="850" math="0" shadow="0">
            <root>
                <mxCell id="0"/>
                <mxCell id="1" parent="0"/>
                <mxCell id="2" value="" style="shape=stencil(7VrLchw3DPyavaL4BMmz4/yHqyxHW1Ekl6wk9t+nmQ2pJbjTKp1y8U2eZc/gjQboU/zw7f7T17tTcN9enp9+v/v7/Pnl/hR/OYVwfry/ez6/4K9T/HiKH748Pd/99vz05+Pny7+/fuon+19/PP3V3/D9gstZXO6o4H5cnqiTFP998usF8HB+vAbg57IAcpHqjgEpieoKUPF6DIhVYl0BU8jbAC/ViJTGk5uAsCmNL3h/DPB12ORKaUeU9kFKtGaNROkmYdVZoUI7Pl/FreeLk5LY++MqT1GpxKZQoIUFUPGkEgCiIK2AIoXYNEQJa1w0J0pEgs5xdXPz4xW34yIOk1x9IRMjRVhpjYtaJRMdENvJABBIRIeEQHKrHxrNHqSbGkCWGAggiluVVmhFIqmH/uppDZKZSGXLT5iBWCk3yaunU5ZKHKdedPV0LOKJSLp5GsGSSLRqltRWAAxNyp6qlBXgI3WcFlGTD5LZB+rI9ynReMHt802cPc9KGM7/56OpgCQSRzhfVy+7keA3z5etLzgadsWLT+Y8kx/nazbnWQUuCGIrjyM9oaAc2fdH4i+c3+QpJPNLkpiM/SPTF23TBJw0Jn+y/gq0/OJ8WwtLHA48Om9SLEkg8YP+YhqI97SslLIpnKUxD9TRLq5yuDCR2vh5AvLI6ttN1otbcwZUw5MvoEeG1UhRJTNAHEk4rYo0JkrXNKJsAgrtmlXFrV/IgXZ+tG0jEgo+Y4S9qZoGwkOjla2nuVGObwM2T79Wj9uAZvsyygFzHABt9TTym6VnBxgCloZWRwBDg9HIWUGF0vYLOoQ8AhhPI6UKE0lHF56Ayq2UbU97C5BGF74WiQHi4FvXSpNobQjmsJmVxVLYREo0gQDIRunIqTyI8lrIevAxANjL2qp6eJNaDLNWYyVHays87baMeyNFQ7CAyKxUtwHDcT+07Qt+mOEIUJ01a2MzmHOb1onbtW12BU/kdcbUe4RrJryzm8mkXKFttztiy1HHPKd2tu05+kYwZSsSs+u7AehZYfWDFlr60EYNVwLBZ+SnOisSZg5WjcvGhjHDMP7fjbiWjTR7zBH/MRuAFDk7yWM+mNyhDkp6yCgNgwu0Vr7my+Q/c5Q75NyrSCCVgZnV2U2ML7RBYMoodkpSUjV+Tj0/p57/ferh70/2PE36bU/YKBlBPBiu7fmqEwFq2gEsWvgewmyoukh8M6KrSH2ByzYjmw8wwrAOpVuQ5jyGy6P9UTENJ1HKprCSYS8odGwLXjba2cYrjrZscS1EfZJjgGA3VLXRUpG25WWnuuQLmDRN7eoDAXFcnEvyCWjU031Lbaqv4/UL6WIoGz7BZhiPOczseCvd8XodsXalNf1CsOwcBIjV+K3lNM93kRKMowud86IdJGvkPNhuXzv5IRZy1kC9iBP5N5aNJsqGEXSMVR5N9OpiSwRkqyfyzA38rBZKZ5069unzPOoNKUd+tqQJ4CTBbyuYVGlXg4kM6UeFZGNF3y2brZDym45sK2RSugoDeTVWgkj1XeUIT5gOeZuCM+cKeb8njDRxMBO47Z6QscE8O99V46H3EM4WvMy3EQAEA9CRHoeA1XFoRUoA0MFsI2A3tpLstzUG0Lgf2rZhbDS885Zx6igLg4p2w4giwmIJnKRaQGWAbG8v1VE/vP/e/G0A/ni9pv9yfni43PJf/26v9fHo8l8C4sd/AA==);lineShape=1;" parent="1" vertex="1">
                    <mxGeometry x="212.73694617251874" y="122.05886692414265" width="12.689764720555441" height="12.02478968696249" as="geometry"/>
                </mxCell>
                <mxCell id="3" value="" style="shape=stencil(lVfZctswDPwav2IIguDxnKb/kZk4tadunHHc6+8L1UPFhOT15E2WsRSOBbDcyMP77ultu4nh/Xw6ft/+3j+fdxv5solx/7rbnvZne9rI40YeXo6n7bfT8efr8+X329NkOT39OP6aTvhzwdVINU+oGP5e3jSS8v/F14v9Yf96ZZ+VNA32lZhv26dMHAZ7ZhIAkNK/PwOUWgWASNN/V4AoJA0AmHgM+U4MkijLAJBMCr6QIuUxSUkpI0ClXAeABsr5NkAzhTYClAoA5EQyBp25H7EKKJFkdClnkgAAreekAwpTA4C6iKEUSqAOjXtOZu5FKgkAlERHQKEM2K3GJdcNlQIgn5XJ0btl6FJqlMagzcmIXAoLgFAFWbIYmgNEUoFcKiNbLdGqgEvWwQ4QYItOzGEPqABgzGHxLkXgUtHOzaugA0hrqX7MWFojyFINFFzQ81i4BWAXtM3CCF1yDdQKLJwF7caMsbUggNXV0duaFheuuGEcLA+gqY0bNfhPNNAQWoiTB6ApoFan5qNOuIPc2LC8RrSzLCmucni4GqCNs9K4EcFwtR4NC7o21KO6oKslGqW1rTQ1Yp8tCE+m0KXBOsCytHAJzcqSKLAHFNTUZTH6Ihx9nwYYv6N6QEJBS/d43igK5YzaZh8rbXNBQB10IWeszQMiny72buiJvqWwHL2t9g0ATB4lp06sRQH5uFEdqWFNW0GlOfZ1MAum2uXHeqW9R0kgu4XyWDZLQkMOURzPl3mrrtoH38/moQJ/7Hxnz3Ahmnob9yFnSmBesE3VMYACJ5g0r5QYClZNvmCWAbx5WvL2SBsuxCR3B9eVnglBdvYFnG8DPbk7AFRhbdaNMyEogPraDovs7JEWvlqrM6N7D936gFN5es/eESLD/TEFPAZgBEIBa79zfdwL0SC1grk7VYMJnQjhNia8p9rlwsU7C+91+0/eg+/b28PHpftlfzhc7uzX//tLur26XPDl8R8=);lineShape=1;" parent="1" vertex="1">
                    <mxGeometry x="230.05338936009343" y="123.67039694070746" width="3.2097308536113984" height="10.771753378360591" as="geometry"/>
                </mxCell>
                <mxCell id="5" value="" style="shape=stencil(lVfLctswDPwaXTEk+D6n6X9kJk7tqWtnHPf194WqoWpA5qa5yTJWJHaBBTmFh7f90+tuYvd2vZy/7n4enq/7KXyamA+n/e5yuMrTFB6n8PByvuy+XM7fT8/L79enOXJ++nb+MX/h14Jj4jqD2P1eXpRMLf9983mJPx5ON/HeU3IKkDP5AACNclSAlIn9GMCJgleA2CilMSAwZQNgCm4MiI6iBoREqQJAoapz4EaljQFJvpc1IFDlMSAHYg3wlSKgtTgqWgcfyYMVSrE6eNe1vwuokThopSmUcXxLVHQpOXJAhVbIsYlnIHOr5ItOgCpgqDXypiy6KKP4ogmSBVEnuDW/dUPcVRytUI3ImSLQTABBSzBzBHpHOIqaI6k7RiSVrukKSJ3m+wDp9mQBqLJbpBY2KyBA6LLe5IAcpjG1ZllyKAe2LIkOUDjxE520KO1A/wsg69qu5JBuopLeUYTdL6Sy/r7vxTvqTSOz6x8YqWws1fVmHZVRNa0Ae0fq1GgcKKH9ywTQ+89UEf+tD7Ebs6uoJARgFE7kkButM2kFNCxx7RNjrVLu3T3itJgZEikjUvNm6Igloxw+CqhpMzhdN/37Q0eS1nUaZEohgHi6pjUUikDpvHKydo6nAFhKpbvPCpBiR6eFZnsnMRWgtJw+zAqpQrcQTpIGSFYFbImLnQvCWwLlzRtaS4bD0IsJa6WrsARWiNYA5tkFUgjUjAU7fFwIltT3ADKL22ZHQDZhUHMqDdhAqbruQGt8hlNnc+gU00ciO/KGUQ8NZnMaqbWP6v/7vnQ3gyqV/Zt4pgTjDT8Vzxxvm0DMA1XQR28u78fLw79r0svheFxuWbf/22uVvFquZOHxDw==);lineShape=1;" parent="1" vertex="1">
                    <mxGeometry x="225.42579843969077" y="125.06310303148058" width="10.344747684409057" height="3.062431791518913" as="geometry"/>
                </mxCell>
                <mxCell id="6" value="" style="shape=stencil(lVjZctswDPwav2J4guRzmv5HZuI0nrp2xkl6/H1X9dAWIXmTvikOV8SxWADaxLvX54eX7Sa417fT8fv21+7x7XkTv2xC2B2et6fdG5428X4T756Op+230/H98Hj+++VhOjk9/Tj+nN7w+4yrKi1OqOD+nH8JTmL498vXM2C/O8wApUl2A8AnqXoboFViGwFeWrsNyFmKAThRYlLK4tIIiJLibUAskgygdq/WAUFyHaOUpVUKUD8AIoz01CQ3Op2CeOIDnDY+pCaemJSLDSsCnVimvejotDpphVLD5xEAapAb6sIHkKUSp5vr7+uAEqWQG1qUOvoAIwO7IYkfb6iJZhoFlMaw4hWFZLrUXi4XQBVPwoqYtNGH1qQmkunWmXMtICeO8DvhCm9taqSoY7OJaEUy47fvYb8AUEGMG+LMeZQUiVJevD/QqIaFA148ccCLG7ldIYRExVx/2+U86o/wCOdHWUVxVGK/73Iy46kjGQtSRtZVaBophGxruXpJmdBa2ljK1fXOsm6/65U+u8AxQOz2zgCs9j36SLYuN+KCLxLUxpTlGIBmkqY0SACoAaA7MoDa5gkJdMykJMlUMvJGeIdmbOUoSCSA1pVkdr4QbVErRjifWK+VrNaBzNK8OI9SIuqI8SbaFCRS+M76ixwzpXO284NESuwJtvHXyLVagjnvO89vxN90j6nOiD3NdswPCrl1mfrk+RQXBvFZKtdFlRV6gzZLiUl7mXapVBPTwMUu9lHrMlYoHY00WB8K9I+wCLOZoamWbuR6WNF/F8MXa5jJ2Y6mIAafadPodNY+NqwzO9tM59DvXAdgSBi5lJRSY6mn6QOxyF3bZnN5JG0TgDCWMwgfmElq6xMVTiW+iZp1R+kGFi5NabZQeTasObvjab9y/Tx60hjVSKsBSTIS4PvwsM5ttYsFn05V+55yPa/EXwiQXY16Em9tFbYl0A6C2dhUDmYTZhDmdaPxnvcEAMy0dh1mbkxTizbllcs2dNsAKh2AW7OaB+YGHiY/0gJ5o7uX2pEw8JEQK0RIFqCESVgHzbIGQGOAxQ48AUiUsBWYTWoyiUSpLoptqh5i0n9/sfkEAA/XD0RPu/3+/H1p/n/7QQk/nT9Gxfu/);lineShape=1;" parent="1" vertex="1">
                    <mxGeometry x="237.88223147684027" y="123.89005374862307" width="5.927784748202488" height="8.998048174092727" as="geometry"/>
                </mxCell>
                <mxCell id="7" value="" style="shape=stencil(lVjLbhsxDPwaXwlKol7nNP2PAHEao2kcOO7r78utIWdJ2WPk5myGWpGcoWa1SXfvzw9v203k9+Nh/337e/d4fN6kL5sYd6/P28PuqL826X6T7p72h+23w/7n6+Pp77eHBbn8+rH/tazw5xTXOzVeoiL/PT0JVOT/g68n/MvudY1vFJvBJ0oV4AsFu36mjNYXCtngKwkDfKAcDF4TAvtpuv9o843UCggQErEBhWICAUyxmIDIFML1gJqp2JSjUAQ5V6babUCDRS2Zum1CSsTgDSX4rqVKGQTk4tsgAZY1RwqWR6KbbNcDpBFXSyQmBmUVmZgnY4nLAUzJUiMrWUBZU6FiA0okySAgUrdVKroEKKuSOVryLb2PIEDVZamh7EKdVrk3W9baKYGkQxvsHwEtUQZJB6HmAiolQI2gE8huqWvS4A2Nms25J6qAGcpVu6GOFS2U3X7aGFKX20xsaaFDFs2wQN2NJGbYNJ5e0CCNzqut8AkU6NL6DFineKvlXqkCpek8rB6fIT52jxfAICYJEx5wmidC1DHOruDLhC9w/5U9vsN+VfH1D2A2nuWxwgveT/B4JDAelmCF7x3W0+E7FIz2axIMGrw6qHnCAwEr3/q0H4jnPuUL98PJ4wusz6xHwXqc+hWwHq0DUb41WP8gHl9gfWL2eIH5pknvWI8y6x3yv0z6Kli/07xqsJ6zHhnr8VP44P3cDT7Esdv1PAHzUChNB15FfpGi69f5DL9yAPv5EOH5oie8G9CtY0ugR7BldMNuMWhBLEVbHIfONR/kjZMugQLySPEckIYdvBzQxnpn84edlrpFV1b18RG8Qf1oskmrj7/heNkGqI9Hg0LS+Pc5IMKTT1RYNgf18RmMihx84+Tc+2tfHo6smhUaLoW949W6IXVq1Z0fTQHaFfXozjDqR2xAH3TZH4Aqceh4pxNHbXnBX7HReUyhCpJWj96tHhbR4g9x14eG8cl/C+Xx4DI+T0waNbiMr2NAfFxsoA/SxaPbhBmyQvGuyQw9suJL8XhUn+4PEcb5dn8o4FuHBe/zRZ5L8d3vB/a3+/ozFP7qm+cjoH4uINyqqBvAAV6zLHgnMkqYEc2vn2907FNXbzfx+uPjnu9p9/JyuiZc/9/fC+qj051iuv8H);lineShape=1;" parent="1" vertex="1">
                    <mxGeometry x="141.41591220329553" y="136.06559139640808" width="80.36715655664482" height="33.32428540600631" as="geometry"/>
                </mxCell>
                <mxCell id="8" value="" style="shape=stencil(tVhJchsxDHyNriiQ4Hp2nH+4ynKsimO5ZDnL74OJwtEQnGlVDrlJJHpIAI2NO7l7f3542+88v59Px6/7H4fH8/NOPu28P7w+70+Hs/7ayf1O7p6Op/2X0/Hj9fHy/+1hkpx+fTt+n77w84JjSmECef7VFpz8Wfh8EX85vC7EPcXciXtKcVs8kuvFE3HeFs8ksRMvVMO2uGPy3Mk7fB0nlA0gk0sAkKn0N1KFfQX2UQNJD9BPAJV1O/sOIHpJ4AHddqUHVMoOAAqV/kohQiuFQKE/ITqodGTi3qwxUQSOi9HqkPQEBKhUDCCSAMelQNw7LmEupUwpdYDsyXnAVabcXymHRpZ1gFDo/ZCVfMBxWd1Ue0AlBn7Igw6FodL6vdCfUHAAFXVTr3QJJOBKRZoRZ0AiD+hdIrEBlLayDkhUjQ61eWYdUC1bq4Ns1W3DpSrkgeN0m/ukWkNLs+sAZU6vQ41tZR2QLPlqJgbxUGvz6wwoWAc1YrYAYQgwIaqAADKfAmqygAxOcDzkGUVU4OrpCGPXSv7GnaIFRBAQk9bZAjI+IQ8nVBAQk+f6tLGwwxYiDFrfMJMMShTMJj8AEtb6L9kWgIDpZyrEtILN5AduFBRzChjoF29YaQghwUqHIYRQlZuMOOjgsaezDADsuDLoEPAJNVhAAul4JeQKTGVrUT07f/OIgX0Ba12HE1CmmbaHCIL5eKb/MuQwIIb/C0i2VZ88h+gabPegNSUgP3gqJqi1tiNu8GDWAJOlln7THE+lFbUbqbXCi9ouqN0I9oSCE34ZlC65ZfR1AFu2aotTUds3ZDK9JIoHbfvEtH0eVl5tLIPRgVuR2WpdnWmOSyPLVnMcex1ygnlG228x3bRAtiYZ2m9uZW9rhEi90ilBP8ShKUu+8Xd9bqp2uowFjrs6aJnxOCq7QADpKGfMGvD8Kr7VwBngYNs3jeD9lSTCfl0HXkMNX+FkpiO1qYpeYBLQoV3M0F5wN03FyAfYOiTb8zllEpqPKZtgaGV748nE9Z8P0KBsOyUH08v8XHMVR+WZ25RwFQ/AlGyHMXfj7qaS6+QEyDaIMxzcVFyMeAS84VYpruKoW2PLY4aBorvRiKPCpGfbZzY01M4EXIgDinErWQtx6NV/evO7Ka4/rs+LT4eXl8vr5HLfPkfq0uUpU+5/Aw==);lineShape=1;" parent="1" vertex="1">
                    <mxGeometry x="229.80045757476114" y="136.84675375667717" width="67.31634986929748" height="30.547705122665672" as="geometry"/>
                </mxCell>
                <mxCell id="9" value="dfsrec" style="text;html=1;align=center;verticalAlign=middle;resizable=0;points=[];autosize=1;strokeColor=none;fillColor=none;" parent="1" vertex="1">
                    <mxGeometry x="270" y="160" width="60" height="30" as="geometry"/>
                </mxCell>
                <mxCell id="68" value="dfs" style="text;html=1;align=center;verticalAlign=middle;resizable=0;points=[];autosize=1;strokeColor=none;fillColor=none;" parent="1" vertex="1">
                    <mxGeometry x="120" y="160" width="40" height="30" as="geometry"/>
                </mxCell>
                <mxCell id="69" value="ye bas call karta he disconnected components ko" style="text;html=1;align=center;verticalAlign=middle;resizable=0;points=[];autosize=1;strokeColor=none;fillColor=none;fontSize=8;" parent="1" vertex="1">
                    <mxGeometry x="43.81" y="180" width="200" height="20" as="geometry"/>
                </mxCell>
                <mxCell id="70" value="ye actual recursive void fn he jo dfs karta he&amp;nbsp;" style="text;html=1;align=center;verticalAlign=middle;resizable=0;points=[];autosize=1;strokeColor=none;fillColor=none;fontSize=8;" parent="1" vertex="1">
                    <mxGeometry x="243.81" y="180" width="180" height="20" as="geometry"/>
                </mxCell>
                <mxCell id="71" value="" style="shape=stencil(lVnLchw3DPyavaL4AkmcHec/XGU52ooiuWQ5if/eYDZcLXtmWvJtNQI4BNBoPOaUP3y7//T17pTCt5fnpz/v/jl/frk/5d9OKZ0f7++ezy/+65Q/nvKHL0/Pd388P31//Hz5++unITl+/fX09zjh34ueNUlhaKXw4/LEH9T/Hvx+kX84P97KB6mrvEpvx/K9SuggX5TIB+kG8jEcy7cyXz/li1g8lq9NrIJ8S0Q+SMDztRzLa9yeX8h9SpaG8jkfy2cVKyDP4pW6FEN5cn6KW3/+f8CufKySVnker+jnr/hxgBB/Nry+SWDhlbzeJuaJvyP51fvRZvwO5Gta5N09kcC/SYyrfJ8nHMjben5O9D6G6MyVwjMmTPcS6QuiSgX8ZDEGCJOaVwVHNEHESMCAb1CWAlFKR4VIOCV3SR2vxKJWksQ1DEUlk7CVKhGM9sgT3BWHGVzJpJArqfME5FmiRqtnzgptVepWZ7q2Gq2OLpYLfqUVGvWKrn2FKrZ6qTqbEaOrYbEZT4hbm7PLakPz/Cdo9X/r6tZWJ36P6k1dA+cVi0FjKKxx8JLYGeMlZGCvuaxkVsOSY5nWEI+D6qrgRZlcyeMK4LNKSUC72Bo465SH1UlAUaER8OkGrWaSWKGt0jIqKLEh28ZLJp3YMKi6oALj1pTRhhi83WBcmZD6xp2I1V7OoSAON5FQpyAaMRCZ5OgomFCh22wJjhQ6+LVSbPiVgI2tTHgdKbRNQrAm1b2EYOK04XHoEIcklbm1YIFwBWVX8oJTUIEa7a1MRxvoG7xCFXQrKxCuoKDgzQF/AypUmkE7V3LaIOS6Y3SfhfW9brXJz4eB2yY1e8MWGkYnkh3w8VZgwLuh0ZWhdZtATSqpKLspWojROySgs+d6L824o5kNWyLzIsfcuqXKNGvMO9l4pOgbCvFXFEaB2CqwimIbeHPW8DbVFBUy70NhHLNI4a111psbBVay6tXEa/9jtHH1CT2vNnSlKeoKELieJLD+R6Wv9eGNpq9mbMlG38iMjgjvFiQRIvOGCbrE12Z5X0ERGvUKx32FhPOAN/yMvcdAApueRqHhHVZYa5xfkl3J4Q11elySeClnDJy3gcxLqeP06grsDc4aMNNopFjy+RjayqFAJ/YE83SnxFexhnqOs4VMmZ38VT7N1mPfYpyYxrTM5nscyXKhCxwvVut9hgcIisLs4m82LMzea8N8lfcnhF7C3B9de26luR+R5Dsd7D0Jcd1JyQ4n4jQRvn+ZgPwe+bpHcZsaeAMWcQwLvCXcbBfDJI3D7SWen4m9ZbP1CLToj+0ryrNt59ju4v0jG4Sv7eirPOtPm87cuJEn/ukRa1+g5NArZlegU7PXaoV9J+1YvLGMqz/TBNSRPOzy8lxQ7ssbnp8pHsbIXkGe9XRjOoa9HC3Dtl3LTQcf5OOGfnjf+7pCeJXvBBBjOlkDXCk7m+Gqs86IHAUMHNQooMcyABobmmA+aECJbzSBf/lz1Jvy/uP129eX88PD5dPZ7f/xW5k/unxnyx9/Ag==);lineShape=1;fontSize=8;" parent="1" vertex="1">
                    <mxGeometry x="108.0803799784776" y="207.4077812377256" width="4.9496289940808635" height="5.146050056760145" as="geometry"/>
                </mxCell>
                <mxCell id="72" value="" style="shape=stencil(lVjZbttADPwavxK73Ps5Tf8jQJzaqGsHjnv9fSkIK5tcedy8OcpQy2NIzmoTnj52L+/bDbuPy/n0fft7/3rZbcKXDfP+uNue9xf5tQnPm/D0djpvv51PP4+v89/vLxNy+vXj9Gt6w5/ZrjWqcbJi93d+4inND77O+MP+eIuvlDU+UGKAL5SSwifyCeAT1aLwhXwFeDm+KnyjkgHeUfY63kDO3TeomWrQBvKkAQMm75SBpDSW+wYlU9InsJwAYiiOmHUNmBooWg4UdNCh9bStGqRMrimDmCmCskWhhS5DChQDMPAUdJ2zowCCDpFYEymXnuhVAyGOYXaRNACqshROp7VUauAELw7oLNVAFWRpopqudC2wcMJlXbfmYQjikH6/tEcDSZVe1CmS9msggEBFU1vaOwL/HRVdMxk3DbSCo5R1rzkHu9NZFk0HANpJ53iLL9AhVy0ejUfBD+9nUIAlugVfYcEEny0+Q/99sfgICCT5DBbPMN7kLR6NdzcQ+hG+tsEf1GHk4hAv8N/302/zCYa7Jx7rBQaptxNi4gPGD/xJkA9t4GcB/ks+2eLRAJJtaZbfw4aMYTgABsDZ4itsYD8EkCGh3eAPWjNjQ7becv/5/gr1hxsmdKUE88lDAzMscBwI7eGA+Bw+DPnPveXW9zxlk8/YKbUuVQY5x5SRXiRv+LOM4PUGY4pmZ2dIIFF7RvCKwEMrYBLQOoQiGhikVLa2UWfFUwM1DrKGNYlygqSLzkqh1GCWYrVzMXHfhOtCIlmZHxNUZ5n73l0kae2qdt2g9UW3GHioYUuys1HkTgQG1Q863MGghTlspmPq7Fo3WGbhYuB7f6yzm7sAXcjXF/S925PZH6lTZR2f+7a73uYK8qfYqjGUB9ft2PEOrr9p2DaD9+j9zd6EpGJoWizD/waP4m19ON/gQd9MyyhaPGj9tlxWb+LF+TG3Y4f5sGz3Kz5h/5vNf0HD0Q370uELTbOE8H2A38WzwaP1/enPGQ/x8uP67eRtfzjMn15u/2+/tcij+TtNeP4H);lineShape=1;fontSize=8;" parent="1" vertex="1">
                    <mxGeometry x="86.81471088079576" y="212.82322142849654" width="18.386888122649516" height="11.852140330064753" as="geometry"/>
                </mxCell>
                <mxCell id="73" value="" style="shape=stencil(rVnZbhxHDPyafSX6Pp59/IcBy9EiimTIco6/T00WPZ6u1pQcwG+7O+QO2SSLRfYlvvt2/+nr3SW4by/PT7/f/XX9/HJ/ie8vIVwf7++ery/4dIkfLvHdl6fnu9+en74/fr59//ppk9w+/fH05/YPf9/0WrGeN63g/rn9kszV/374eJN/uD4e5GuzvMjnc/lSzVeSj+5cPmdrs3y24M/lEx6nSb5aLkLesT3dkvA3JrbHe+tJKDgrcVbAXwgPQrFWZoVm29dThWh5fkMIw6nXFWCSmxWKVRG0zYDZ6eilD76MQ98VqkVxSj5bojSK5ppQSNZnp1M337VCnxMpW1YKmQNXEGllEgJHCs2cekPjONRoTRTDFjg/K3T5BqSGm51uUTqNREhz+bQ6fjlL7xTm+sEvIjW2Aprf0IOs0Ng5Dj2ZF/WQEGkyKVsUb0AiuDkOvZgXcSjOauE3NIWSUPDsQxDHClht5IOXJrXEIAAkLyJb8ThRamiTkAh0rM1bEU63PpB6z9ZmVfnQrc5vqHmU1JlCIQUkvIh0a9zdEBmVGnC6zgpoYNLpYm5O75IkarS95HeFYEEp+NFgdyDrllXy1aWFAowFCNQFZrLGJVhMLSt7aRIqzhMYAzWE02jrNbGCOqUYrVZWyKqLVguFFarq046xFQpdnRIzExxSUdRkEJGjvOjSgRMJ8irMfuD00X5xQo5bwxshcIyq6NBZ2A8mRh0dcCHsd4OCHORlu2UCkKrMiDieHuS9AMjMCZTKeOPrZWbO8/8r+xtXJeSTsL9z2UO+K5bnBrIdDrQI+PWOOwIiHBVDWoFlD/qJC4S+W03KI+IURQmIGi7cZbcSE/J5gV4vm2y0GFk+C4jwzCCz7voLrdhATtjvBqc+BEwBO+SXADtRAo5JCDJInb9fhkd0V0VPRys9yCvOkpaMrsOjXyLvOw9GqHk5ehUGXXQ21TTQx4hPQEERkJUuQ0FNtHmfX48KIghgDxyFrOlBG33uiLyibMDiMrWOJodsEMtIvc/J3trCwJFdIcgRGLyuUmlmuRjBGEQ+4NyqcLrvk9lOBDXYYUihai5RTuUdgZuztQAAhdN9Se/SJUWAAvPrOLrcSUdYWELVFYRXxPmYMAOrdO2NK2gLvmo6hb1uWeYGIldolGqDrp7lRqT5EWRMTUZlbIAO86NajzSQozk34JXk/IkJNs7Nq9aJx+TDni2vK/jFaTQfhTMY82cfDtnyOnwXpjxdj0ZpISS96XVHGv31cK5VVAQoDFEGRE6x4G0fuuSGgoGVlyP75K6tcjK1/aTPVmd1DgRKTtKYMOb8XSFJ6gxiSEuhoolDZ6KBEVSuR5ZpMEui1yxTT+yyGtrA0V0+jAI8sZ+IRtSzgvc8LEQvqw0hIItAXrvoiH5ZnCOx5LqzMZXZtr4qUcOiEOR8gQmJlsJdBhlcieR1K4lLt4oS51PhcSTIbVOOTM/fWBA4Lkz0CXWXUqwkkld3L+tdjZPsdr0L0vAL3CFC4vQ2DuHk/w+qMbsR/h/yatqBPK2lnC5Kz9RCT4/dM6/VSL3K603fak8Ye+ef9DfKK5H1PKPcxK/xigO2fzIfkiSD//fu8W15fPhx0fnl+vBwuyc9PueLUfx0u1SNH/4F);lineShape=1;fontSize=8;" parent="1" vertex="1">
                    <mxGeometry x="83.53620616370767" y="226.57465121944296" width="3.2017218332571753" height="7.466354289373259" as="geometry"/>
                </mxCell>
                <mxCell id="74" value="" style="shape=stencil(lVdJchsxDHzNXFHgTp4d5x+ushypokguWc7y+2AyxZEJij3xbUShSaKxNSf38LZ/et1Nlt+ul/P33a/D83U/uS+TtYfTfnc5XOVrco+Te3g5X3bfLuf30/Py+/Vptpy/fpx/zjv8XnBMwc8gy3/qAqd/C18X8+Ph9MHcEcfG3JID5pFKaMwjRTM2N1z/rvaykiwABEquBUTyPAbIfW1qHXAUA3BY+GgJcrKFA4BMqaXIGwplDPCZjG0AwZAHLIVEqbSsGmJwQkxk2zAkhmFLgXJ7QsoUQByyI9eylAM5ACiSd20cirAEaC2x7rcCIszUUihzC8iU0ZWKdloABV2pUGkjLSucMaBogAU+GJbsY43w2OuSNCBGDOhO2KLJakDxEJB0Ua9ujRCqDdyYGwFC50TBTvjOiYyv5LpYR5wcqiLmMzFNPcBuALpsYhxqr3yQBAeNZqY1aEDGgNidkHC6pg6wEYfcAzZqrqOVcWrcKVJwpUGRYidK7pJpA+A0YIPXHDSg4BNSD8C8xpbX/6jq0EWigNH7eUDU6qQkGDqZQlbF2kI1IHOOW5pyrJ1kNEmDmqRCHADEqPM1mVq2IzXg244fLRkQOd/Jh2DJg+4qisa32eeFJZB9VlxsT3CiD0DfsKZ261WV+SrsRrrPtU6bVEfASFkqCWQMHHOxi1stkPseUFIqEWo+uY0aiVAtMRmlcqEEXSX8zdwA9sW83Z2rrhmZszJHHfuOOZqbXJvzzRzpHdYVz1tE6t0NDJMpyhzpbNZvi5XZgbnTd0f9U4gI2hy6+qmH3aa5fNzekC+H43F5gn78X785ZWl5r7rHvw==);lineShape=1;fontSize=8;" parent="1" vertex="1">
                    <mxGeometry x="111.67341531531156" y="214.53302684756443" width="27.854492671261557" height="15.038391029576793" as="geometry"/>
                </mxCell>
                <mxCell id="75" value="" style="shape=stencil(rVjZbhsxDPwavxKiSF3PafofAeI0RtM4cNzr78utK9eivJMU6NsenJXIGR7ajdy8Pt69bDcxvB4P+8/b77v74+NGPmxi3D0/bg+7o11t5HYjNw/7w/bTYf/1+f50/3K3WC5XX/bfli/8OOGUmiygGH6eHgQK4feDjyfzp93zhTkXSt5+uVuzj4lCc/as6/YSKed/+L40asnZ/9ngVXstxGGwZ4pt3T4phTLYR6pgPzlQHr+fiCuwz6Q82FeSsm5fmETH/UeSBACJZFzAKFTAQKlUnMdCmdcBNZLWASCBFGypZgojZ1KoABJqoziKThMloNLG1Eank/S4XQcYzaPsMnfhXgckamOUcqUMhNEs6uMKxowCZbRKGkdlMCTOAG2UngW6IICFdfTB4qbIh0Z55MHCIMAHDudqckbUvuga1TV7gICENoCj2iJdgFxb8BlnAAYrWFDE+ZApA3232MV5ARAUV6FaPABVDQu7Zy73FLkOyJSyB0D1FV/HDNBQyhmv1Yf1Dbm6TmJPAgrrWQgXgAy0tPgw9p5F8YgH47V6AGQ6TVoyOaIVrM64ahxwwzUx+ZyzFEHM8ZU9JRSm4Ou3ARhsaUk59USgprsktQOUnrVrW+LmAYIBbdI3aikW1jBlkKIVhHRKiIiIU6rsAYy2ZK+TB6DqajGJbXIaZ5AbfpZPYICvZIXqfwXwVPoqHMiMOHaAhImLPYiXXQ7lgwHGsFofhT6YlqZODcsG+65os0DJMIF0LAI2bTQEKN4Hm2cUAZKXhk1MFU99cQRohhPTMleOPgiuGkV7TM4AhkNcCb3hnCdXpQwANnzLuAJXWJdy9BnHSgkwnaofdZlhxmnzDSLDam8xLKPPiu3NA3b2aFafz28KB435fKi9ql331x8/FR5/ZPYWtYXYR/KLzYDuzF0tZ8HBs17wXU16lq6YO+1EmMLT5BwhUZM5w0Fk2gzDIjq5GvoI8L5ABpglE00B5sgkgtAPb++TGB643jS3i78/Ux52T0+nfzGX7/3PF3t0+nEjt78A);lineShape=1;fontSize=8;" parent="1" vertex="1">
                    <mxGeometry x="135.2402596218799" y="231.41474473121542" width="2.9686901012343507" height="6.750532084604261" as="geometry"/>
                </mxCell>
                <mxCell id="76" value="" style="shape=stencil(lVfbchoxDP2afdXIlq/PafofmQkpO6WQIaSXv6+21BTZ3RN4W4yOdTu6eJKHt+3T62by/HY6Hr5ufszPp+0knybv5/12c5xP+jXJ4yQPL4fj5svx8L5/Pv9+fVokl69vh+/LDT/POEehLiDPv/4eJPLpz8nns/xu3l/JJyrZymdKvC7vhApbQKGYAaBSLBZQyZd1gM/kUg/IdR0gidhq8Nyu+C8gRMquBwRZB8RIKfWABAApUgg9IIMo5UBpyBtyuoRm8QUgUEP1FK0POKq1NB40eSYGxKiV2FuDyEcoH2wS0kfyuXNYQ4AcrlQtwEdioMHxxcOGUGoVFKNBRSiUwz1OxEoCqLpEyUY1aX3iMLHVkH3TuZpnmwflIqO4FnKWqtlRRBoylc6HSILCmina6onKDWRSJrEdQEvcoTwoINpMCzkU1ty4diGTa31tDdD1GOcoeRhWtiYFEiwfrDy3gzX5Unp5XM++dvY4XAtJeocDcqD2BmlIBfFIq81aJL5dsQqwSQuhjbtVk2zSlHiMTeqYqtT2DgKcNUmLB40eTVu2aV7KE+f5ToDvG4DOFuT0MnrsJCnaEgBADei6XtVMA+6N47PGttfcOKAVgAb0uAIooAC2jktG1RNg0rjGKCCAVj8uSgqogN7jKqZNJwHAsOstvR9ZNOySjHcA12hwpSADg7htIFdJ8OB+7g0qFa4A3DaKi7yjCqqTW0avZmeF93f7QpJW3rfJR2msus2eIHB1HvwVnSFgDA7x9HjpHPKlGYcbVc8Hl2G+7n28fCyvH/9eSi/zbnd+aF3/37+s9Oj8KpPH3w==);lineShape=1;fontSize=8;" parent="1" vertex="1">
                    <mxGeometry x="134.85595952331897" y="234.972284036742" width="6.993325114383564" height="0.25034145297344546" as="geometry"/>
                </mxCell>
                <mxCell id="77" value="" style="shape=stencil(rVnZjhMxEPyavLZ8tY9njv9AYmEjll20LNffU6PIJm7PVEDiLfG4xu6r+phTfPX1/t2Xu1NwX1+enz7d/Ti/f7k/xdenEM6P93fP5xf8OsU3p/jqw9Pz3cfnp2+P7y//v7zbdm6/Pj99397w84JzEt0GCu5XX3CXhbeX7Q/nx6vtQUKx2+vxdpVg357I24uUNm33ksrxdu8l+Gl/FG1kv0pM0/4sORJhIVyc7+OkZAJQ8XkGKL1RdKKzBBDZE4VGlWoApQu1C0jjxkNHUQoDQAadAU2UaClVaTMgJXolDV3EAagSmBclaWECKLRErqTQiQHAMwIBNGsHVUnkStmLzmrFmUEJIHZXG4Cht30ALD0DspPKALXrZABiV8N+tCEYZy3lLI4BguRZaJxZGSBJmU8oiGhiuJJFZ34p8FZPANUyTFEa06UtJ5Tu8LuA6iQbAM4kJFDhGskClAFAqm0BsCsFaQsgkYirQ4l/e6UkatTaxBEqrtqJvQOgNwrIEmcZoLdIDFdLD8gBgDuSEK1VirlSEkd8qbn+eACUXql5mzwhVSbx0EJnoQEoPaT2AbG/bwCqROIaDYarFsB8qWlPsVeAQtTasuXW2rr/7gNKLxGuAJW4BgBlJjJYhpFxqzavwzKB2aFJnp1vUzSTodm0C0Uz9wagOQsozJcAmO0Ay2Tird6NSm0gbnhfs7QBTWdCGxvAGKJ29zpU01wKYIWVAnhsTd162ju03GyIKz0cIQxvbEfwO8WyCMGCtPXq5UpNNwwRwmII7n6m0N1MfeNKJiLgTYwGmqWyzV+5g6cF4LgMhvsQc4UbLicLuOGupVhAY4Q/eOhKBko0zZa6UGskMuwHaWA9zQ4C1SyXos1VGdyPEjLEXiLC8xOsYttN0y080LhirXMM7vlPgLqEUKFl3BaS5oTMk0pe6FWpqbf3GcOlTj2HudqwZaTF7lYNZAtgxS4em/IBJUtllg6SsgV4JoNfmInnahQLzQAQIax2rbbTwgpzDdRgthQtNEOgyjMFO1ZY1qq6FIro7nj9bSyNlcYrfNOlAMB66q2HMFVZpO1lXUY/ACir8L3tIQDwTGhnczvOVDYuQg5aewgiNLoeP8c0XsHsgH7UnIBukdkBHa9JWoUnXvTUa8frGMDZYhcrdPJQ+/tG115o85e1NwADoDQ/5IU1sBKI4fLiGn9WjuYzhma00XJai+VWrLDRnabuCFcTIEbG2xRrlgErSrSUqq02Eq+mk3aeG4BIZUjLqCIWmnaj2vI7esnEDtH1OcMYP2q3zNFE1JmRLiKOzWiXPsgrrSvx2JCx97QhwGNviIyOBYodoGqvtw5G3n6+TuoC/d1APVETL+P6RDMVmCHat5PLODu+TpQonI2A1I872G54KPZx/9H2YLazhLaUzYEODne2s4nychl/QzNGVLgkNZO3n0lY67+Yyd3QjHECPpn7xy9CN7fjx5+PTx/ODw+Xb1fXz+3HKixdPnTFN78B);lineShape=1;fontSize=8;" parent="1" vertex="1">
                    <mxGeometry x="93.61152050422174" y="231.31520199027113" width="34.84940134465287" height="4.332157195491209" as="geometry"/>
                </mxCell>
                <mxCell id="78" value="" style="shape=stencil(lVrZchs3EPwavqJwH8+O8x+ushyxokguWU7iv3cjLKwWjd1m/CaR6AUwR0/PLC/hw7fHT18fLt5+e3t9+fPhn+vnt8dL+O3i/fX58eH1+oa/LuHjJXz48vL68Mfry/fnz7f/v37qK/tff7383Z/w7w3nqvGxo7z9cfvEN2Pdf5/8fgM8XZ/3AGdymgHFOAEoJrV5fTLJnq+Pxud5fTA+iQOZUuf11qR4vt6aUKb1DifMar218/poklfrM613JorzexPDtL7Kxydj/bQ8mSaeXtn6wRTlXW8aWd/YINZX4+bwsaZVcdlgXKL1QZwH54/8fCuCJwSTeb0TwRAQ/oHWRxEM0Zsyn9/JbImFo9lJ+yRnwrw+yGRJke+bRjgdry9832JaE+sbh5uDg4VBs+ULIF2CCNAMA843QEwFkQDYoc0Jhhgt4ki4Q5vvgEtLIyHo5h2Cl0dKeThpA8DOyqwguRmAwHJFxgWxXMymqkBtxs2OTpuhjwHZRDcD4rDbMQCpNhNpt5s6kjNu5iL4PonQCAi+OZYy7CayDVYnbs95sPExIJo6A4odCX7GL4kAqAbqSIHNWur45BgAgp89Xb2kAFyaEqjGUaLPzNrmI1XEkgqNOGrABkB0qdBoTALNDd45Du/EsdTC0CXHJODZDy0OWjgGNE6glkcpOpYt2YQFUER4w03OLwDhaVg9zrWk6VreLDuueUlk+JruAMcVQTPd6rPjcMgsiAyASIAgmQ+AMEdraZK9cYdKFSuPRxwDnKkzzZQ7R1oUIUhAMR9swrxUpMqodki6HZFZcaR+4rk+ZC0ic2XdhjLpVD6A+ebQAHsXBQB7E6BooYr6MB8JWW5FAiVIuzkf+iOElVCyEpUsP1x5VrKIyLCnkj8hc3cU6z29SpeOaSi0Y0A5ADhhJZ/HiTeA7kcAKHPwwQxFXBoAKordbupIhUU61ExQO1SuD9AGVfVIbbR0O4Asu3Y8bweIqop6bkz6DoJbUdiDX+4gpD20hvdspSgcB0DJ7AeV013NNAaowg5AWmNJeBqXJu3do1UlkGeaiVupPwYs4wUAmvKDXfwAgNihzzeWHVRh7y3SkqKqAvWBSGGzqhrn8+LpKMV6BywpGkRo4Eh+pkoEn1LGSFG7RKvqdP3ScCAfpPa2rIx7iqqcRg+07KAaDgRfW3Ja+eGXAdGO2NwnkIjWd67+n+HduzbaASVGASD+qSha6TgUdpI/qKKqLctpsNCuTitV2cUJDSm0EihbQ78BsgyNUkbN3ImTKqxUHfshNZnTNQ2b7BSZVSJxbV697FCgW0ndd40mrNQW9s5FSofej9Ad7mjvuoh1L0Via9w/QKyr+SEAldrjJptXZ5d5LDoOJTb6FrOrqx7O4NaF2iyr+7LMI1+45k4T5Knz056ry5iyW1r1louc2RnuOIXS0o022QUhq2mc0890ZzRIl6ijFB9TmefhZsuyCwKXxsaOkBViYSa0m+plBgQQMRPyXOpKWH1m195RqzpaBr3v4ruqSp2Z+6qVJaW/MaAGOevSXoa22ABOy0TLIykwk/SDW5gp6UlfYH0Pdi1KfWdmJoSjGkmFpaNO2yz/bLxJVIayWFX7Cv6mjtrqsVpZehQ9w+pzOFIbTr9OcGylsHWPZylKXAlXVjXIRks/H8kXeQcASJN5L/MBADKrq1ILrDTj0pibnVqJyNVLEoBki0QCg6jOIoNmLVm+HQiL/ImyFe1anfo+eWF8zTJ3SI/jIl14FJpkFDnHLqsyJpbeBPaXtY3nRC6PKDyuz8sLIyuVWH8jTDGqFbF3Qx9sgKRfEm/N1w6glJj3rEkQQ6rY4sRkVAAUZ/tFxPTRlLBqB9Cb+iLTpr8sdgxQfvBL34BQUUIMAJqzvg/wzhxHfYOv8n0oIoea1vdG+TiWGg9xAPDCSgBQse07qGj95Z983Afgj/dfmHy5Pj3dfqCy/55/kYKPbr9mCR9/Ag==);lineShape=1;fontSize=8;" parent="1" vertex="1">
                    <mxGeometry x="171.9252508445037" y="209.8058351460013" width="4.38083230323678" height="7.821934037587546" as="geometry"/>
                </mxCell>
                <mxCell id="79" value="" style="shape=stencil(rVfLbttADPwaXYl97/Kcpv8RIE5t1LUDx+nj70tVXdWkumMU6E1ecczlkBxSU3x42z+97qbg3q6X8+fdt8PzdT/FD1MIh9N+dzlc5WmKj1N8eDlfdp8u5/fT8/L79Wm2nJ++nL/O//B9wXkqbQYF92M5cOTcr4OPi/nxcLo1d5Sisq+Uw9h++//iIKYxIIr/oAGMAUzsFSA2aiCE7KhWBUiNUh4DiqdUFCA38m0MqBtAKfBKzZE3rAaqCCA31izVQhHkgRvlpAGVIgMAk9O01kauQEAyHpgaoFUAVbPUAmXsgbMG5J77QbGuxbwi+J6LpsuVI3ngQgBFJ4ILBQwIOog5NQjQqLIGcD8ZAaK3AEQT156nmyvBzNXeLzdB1wgBvlpafzfhCGBUgB2FOwDdQa1QwUEHUxqxX3IEyAbgOtEjAG86KCKW5LUuPunRhAGtWEDFxRd1DNKjHojrXN46cc1TRixt1LglqqCW/tajDQr+7EILDXtifKdqiin3JhzSZFSg4oZoVplmNcQ9mjSvNzz8J4TQGHR1SJcWcKlZr43SRHJ4znmj4BWKn0xSO+da3w9Gs9ooTZGCBUHLNpA1TVlKGPRQWF+vAPEJYpCNxtCaPNQyWZn8ZqPJIA+eoo45BLg9eNtAYo+UzNmelhMGu4Pri8JaeQxnouvL0Wpfuk4N7J2O1ycKgJ+NYHjRJNCdYq/1Au+HzhZ16ZNixI5mM8JhK+Try4Qe/cCc9WUcHLTejv419oH5vy3/98zl4c93xsvheFw+U27f2+8SOVq+aeLjTw==);lineShape=1;fontSize=8;" parent="1" vertex="1">
                    <mxGeometry x="180.22410583407412" y="213.53803143217067" width="6.908685368704017" height="0.9142720639710329" as="geometry"/>
                </mxCell>
                <mxCell id="80" value="" style="shape=stencil(7VrJbh03EPwaXQnuy9lx/sOA5UiIIhmynOXvU4xC6rE4Uy86BvDtLaxhs9fq5tyED9/uPn29vfH228vz06+3f9x/frm7CT/deH//eHf7fP+CTzfh40348OXp+faX56fvj59fv3/91Ff2T789/d6f8OcrriSTfUd5+9frL94am//55edXwMP94yUgmmIXgCsmVAFwpoQVEE0TgNyMpR2CyVEA5vMmwBubzgGpmVRWgDUhCIA3dRWpDi0cro9p7D/WF+PE+lCMd8t6mMWdr/fNxPX50TihUu+NX23gpQlcYpt5+XyoL5IFTBUGyKZEerwXPheNjXTaf+13rE1T87I8D+lOnu5WXU7/O1neVlPB2ZRtswlrgEG5UfhaNYnWV9OEcpwzsa3K9CYI9WB/RyGfTFI7NNY/hAwCAAvYVaRgTVX+DP9f4yvAQVXA4NCrSAE+IXYICKjVo/FLEUkltOGSE5ClWiNyTmFAVF4dTa0skmsCkE0mtToTFACZeVUrDJeVSMXk9QxwDXmGYurmfE54d6zGbu6t7NABVD5mcjoTqREgXDtDo3rjRoyfAgoDkrJDNS4ywGtA9AywWq1ltQNScvUC0LgiAJCVezdT3AYQIZos17TrgLydQYmUHCeyK4dOW6rsahXOB0DZLB3UGeA5iQHy0H4jO9r5UhhZ6IJOKXaUovEkUh4RcgxIJpDhmswaKTOdQhLIouKmyukeaUal+2w3QJOukT0nshCkWjNKINWHKs+Q62A4k5SEYftjHux5B4RUFnYoeVS0SQohpBCp2uEIk/jAf4XhamQt5SJdo27kpITBjA8BzTE1L2244zFg4/IQ0gn3bmUw9wmoMre2Nuja5HtuEMYTcms5RiGlQrQZLxNQJMHF32k99ZuUxwCondO3lbQVWiHeii2q8qYw+sD/KBP81RU+tYoIhBBFRIPLKwDajM0Qagdk10RnCLoXSMaTIcBnhOXQuRXqHqwUCf0AEdHaZIXwm1oBSAqQmAsAoIpWp/+eAaosdlJI7bAmcX62PBcA1QT5bSxRq0wDvYDQDkWWlN6XJQbIM2QOOQBUhUBTQ3W07yDoid98CQDVRoPNU58FLVlRFnvftqk16B3CtoPiAh2wuUbTItnNvb2yQ2EiCoDi97253ANIGS4fBJAcx2w9ft/hirdaBqghWo+HDXAlHuJm6fremE46RFNkgNeASiIV7RqZO4geQKK099xaGJAVoPDsp++gssZ7AWCRNKi4Yjg0+XYrKEHx+zA854LPKF4JUkjxgKKoxqW5jWnPRdlVAyMwgUaAJJ0PXIOGym1m22NA446680DhSxCAp3xFViD8TUOvt0ccAzLPZEEdouJwcUtkVfYoeF7YuLFi3z2prIkM7LspOyAvrSFa9FiteiaJIHVZdUFI9+uh0aopNtMbjNUOaDdVPMBbKXsnK3NrzjxhilHGdG8uaVrZRpSf3TcwQO+AIxJZD3Z411mTT6yyFzF9o8GAIOOhD1uoBddqRXdLo0FXBqk7A/BoMEne+mNwNwA/Bnf/g8GdY3LS59JaS4lE0lcWHUBqrXL+0wFr9r5yz7eL1FmgiIduuNWX+u2a0tK8KJqZzw9nOXPvTIAouUa/46BJX5GF/eCeZkb5MWBO3S4ARag1zInV5Q4ia+CI1FriDGpyAq1zQclyrrG3A31PRdYR07vh1J1x5gFqn+kKwznPaeZKjZtKvyhx6rosDSJyMfeWZtsyQJbdt9sytx8Be7jejj54Ekrpp9uUcg6OTpbTHbyejHm21ozsY47EstsxWDuZsbI0epoJTVMPY/Ucw2/pXeoSdItuf/1o8c8imLq2oF8QyWysNMLnrMmj8VbWr8S4bTI0ivoZByZm1OTkqUzedMmkhIJKZBqP6qcuAsrWf6H6yReTKpusZxj1YlJjHSHeVTEDgGkLtCRCrO9AXmRl848z8HW6lT0kAHTlA4Ai2QBQ5eiJQB26cEsIgOI5AKStUVBjnm7psgH0eCFvapWWzlxf+6GV8yW+hQJATjwSj257QlJ2ePd7d9cB+PD2mt+X+4eH17cEL//n1wLx0+srheHj3w==);lineShape=1;fontSize=8;" parent="1" vertex="1">
                    <mxGeometry x="187.36867862161472" y="209.73222375312702" width="6.711310300642882" height="10.394904413527529" as="geometry"/>
                </mxCell>
                <mxCell id="81" value="" style="shape=stencil(vZ3LkuS2EUW/ZrYMvEgAa9n+D0VoZE1Y1igk+fX3BjzB6uJN1MnixruenptsEAQSmTcf+JS/+/2n73/9/CmF3//47evfPv/ryw9//PQp/+lTSl9++enzb1/+GD99yn/+lL/78etvn//629d//PLDt3//+v1Ezp/+/vWf8wn//iYXtt6nUAr/+faLuh31f7/4yzf4z19+eYLHLewXeNtKI3hMF3jfjojwdoHHsO34+HQdTYxbx+fncsXn7UiEL4Lft+Mg/H593di2gOM/wgU/P0dA/HHFly10wtd4xddtL4i/Pj+PGcb5rNfvlfct4PjrdbHltjWc/3adn5K2Hd9X8ce5ot7Ed2d+BL+n7dgRf53/fT9XyCv8df3sbYs8nuv6PMJWeH6u3/dw5/P6fY+yFdQO/fq+x5h/fH7PV3zdKs5Pv+73ozvrv9ercgtbwvXQr+9bHxrjTXzacr6Dz1vi+RR8cdaz4vdTX7+N77fGf5w7+k18dfSt4sfxgvpE8X2LqK8svvL7XvVV4/WTthAVX+H7Dvx1/7ahb+F9B74qns7HtMWg+A7rOZ3a5oEf6xnWTzp39xOe9Hnakjw/4/4a+K74hvOZr/qkFVw/A18V33H8Rb7vvhXG74pvsF/SaUw98MeWcfx7UXyD9TxOK8HXLSBe9PPAJ3jfbNZD3TLsx3yu3mc8zE8x63nYM/D8slXzvgfsl/08PZ/wtB4OtSdbOy3SJb6e2v4JT/ZDM+t/6DfA9y0fij9IPwc1cLtzQEZdcUMALW6z5Pp4BB1JeavXPdMT2xBFjZoh0OjQ2PUU6Bl3caznofIQKGzmNtVzQ2Anv6Gfy/4hsJ9Lfb0xwzmJTwJkyU3T+7p1+nEePmuBMYm7ChR4h7GZ5bAcAo0ExitetUtn7TK2m7h7QwCPv6r6fQiQfTO9WXmHhgba2HGiwYYAfYcczg35JEBHWjY+R++4NLJR2kMg0ZDK6aM+CRTYosPJS4cK0J7Oh56DnXmAXNXRnQKwWocfaV+aNGsJZot2dO1LNF/aEUjqfHgCxSgBR2BXd9ETMOePJ9BO8/hNgT0og+MJxNMheFcgq83sCZTV4iOB3Wg+R6DeXEvDqz9uTetw68OtWTqiWqqeQFJqxhMYttittXTs5shyBI7T9npXwJhLnsBDR7wpUKM6eJ6A8TA8gXxzx00P/9aOGy57ufcXqrKCnkC/OaThJed7AoYIdc6H4ZfatUSmw3AEo/kLxHQPzy4bAfJth6tm9wMZusMXsVuUvLf2+O83bY1p/B8qUOGcHra86taGhu4wzYXxHgLEKHa7Hxq6iMPSVntpCIBVOQxnndahR2Bah1l7RBUglnaateYvBBpSNS5NxbjAfEVjSldyFJtGBhxTegiodV/PI2Yt0JULmNNAQ+rnZ3oSCLQ0urIl88vQO3Sz4w6kj6eAaO8drcopYPw4ImCn2pLVWtC6/zCcn71dniUViKff9VLg+h3a49u/K3Bg1GghkNAtswLziHH+wnU/1ILE88d5cwoM24CYtN7VjxsGEVHhQ6Be32HnWNMUuA5pWLKJ30EUWelIU/THKz4E8hlgeSkg8cHu7WkJIA1nExWZFYhIU9ghDacfD5SuMblUkNeY03q17ieXcmstxX7SbG/qpVhPG+2l5ruupbh7Q0oSWC8YaJja+7o0IjP783yQv/AIbr8SkNjlJCOdI0vOB56kpoqvefj9imduuTe1ow/vhcVA3DE2NPESbObd3NR4K0j7TPz1ffNJEb7Ci8OXT7f3FV6CVYnft6rbnc6d+gqvyRAYW5n2iiRbnEv2FT7o/KCxcOj6ybzFdtW+GWMl/aE5n/A0/mySLXj9p23X5+N+jBqMyahHhzeyH3fwVTWKgz/U1XbwZTE/hM9qYzt4k5zh4MO5XN7D13bvfaffn+7gi8aGHLyhOhx8OJf7e/ijqUfu4E2Yx8Gb+IWDT5rb5uCD0ruMtyShgz/O0P6b+N3qc8Tne+thN8lnjB/Gar/zfUvTZAUHf9x731LUgXXwSaOEDj7c05+53cQfJ4vxJt7w5A7eBAgdfDzt8jfxK30IFmgyrGPm3JWm7BjnYg1zUDj4jLH4YQ6a52Ouxa72xmOC1/isyXAJ7c/5OLWXKFfNJoMmzGWdIenr941ITMyYt3gMnFtr7M/IqcdGH0a0r6YLJS4P59oV5Xoi5yJmtQ8D0irRJPc4ucFR/aPAaRDxdCc+8GT/T/dMx08x3K6Me2B3atuzwNFaVeUQ0Bhup2vwBCdbTE3VgKrEpHsEZP6rxqo9uASePbidGYAfmm7jwdMd+H7v6bvGpxleNP3cg+c7M5OViuI1kzV1JGDqYbafCbNr1DgN5355AW+6xGivJiUzA6aNJdX0AanPpMQHU3rJ6nnOQQ2q5p2UZGHzvAxvJQ24AMT49JzfrfUWTvmKnFDlpHxewOWrltOjeAVXfoqCVFET+7zSBgl0HE6mtii9A8kjk5ZYzyX6Ci55pBhTjCYxB4n4qI5qDDiTQR2fgSeuNZwVWs9UK3zYoIZxTLgBB/64iS8Gz+NJBg+qMqhhHCOGKYIaNjGi5bTCN35fM54Kxod933iGFN6cz4iWWdCavBhRfdv14OK7GQ/s3aCO8MTj94pmfshyXeJvPp/U7Gr8HfSsceRjwujkcj/yfvn/70cev50f0LbL/cjPt/sR53+Bv6lPeH2KI++u/9v78SZeHc+IlmlQxz+yNWhqfLtz9mrSkFPzmrWCmEvmhCWoaPhGDfIcqGpNmiQnxUcN+e0Y2DXZUcUx74Qg48B0VD6hOPO+K13KpW+7YdO4klnJKNpSphohYTJRVDcyOWWfEuLn/W2qXKMzGDXXzvPllX+izlLjkj31OunsNxVyATPxTQFbwAWcLCnD5XqHvioyqvqZApd/aDwnnI7iCwc76szQZ1q47wG9fUMOkIm/oB7I4l0QGwRf0CYMN6QMwReUD8NvPX1BVzHckGEMN1QbwRdEHsMNTUh204KExCxQzc8InAll6WJMV7D0LO2myf4qHpmNBbtMNko03AbzYZMd12WGFXYL9h2JnKJ8ReAzxEQPAvqQNjoR0IZeRT+wM4SpKIyYBZ2CbqzIBGM8bcKnM9YpJ9TnU/RjMmEafSKuaxU9o3CDjc4lpjxN9I+zk2x0kVNcU1cnO6MuWUVHabuvoq94HC6iu4hfRI8Rv4hOI34R/Sb8KrqO+EX0HvGL7ADEL7IPEL/IbkD8InuC8KvsDMQvsj8Qv8guQfwiewXxi+wYwq+ybxC/yO5B/CJ7CPGL7CTEL7KfCL/KrkL8InsL8YvsMMQvss8Qv8huI/wqew7xi+w8xC+y/xC/yC5E/CJ7EfGL7EjEL7IvKf6yyu5E/CJ7FOtYFtmpWOxT1Hjm87Gb2uiEnTxm9q4yEsQhzuzgO4HBgRceK2G4bGY3q/2AZW9VI48JG3nM7Gwdv5PNHXU+sarOZKMnjJHYbPfMNXVNW69kLADtRp8ULvJrqq8Klyg1ta92tCdntYG0bvOqDbSiicvvTOU+06y2HKN731eyzyJzQx9dK55Ya+pVN2tWTBjDKXJRl6ewzjIuc3TL+7Syp3IOfjdeUveqJjVJj2N/Q0AYjlS8YiNpSzFXEnnCwcRXZk0WUccLCWa+56DkNOvo7k2B66fzS9ekNWFxSwjFYd0djdF1B/kFfsJ/vlFCKEkRHUkGW0Lol0FKrZtfaClsn1/KqQJusagKuOWo2kDKLXi1HaecklptiOAW7arA7pU265B2jNbY6tJ+eJWZwtXP4mnecVraXL3qUrGo3igAbyrglEEKhzCL2HlpaPsOv0ze/AVUZMYsmYaWY7dVFUBDrKqh9FFY+Mqy1Q47TsuFVUMEyqZatlzAczSrmvko7nzlXdiWC2iex/NMexLAwuOwaI1ElfuL5hodFdmyfUeGaV02CCFOdrYgsc1m7jY5ocyzZRsVcquWjVqo6tK2gnmyJtZMgan7cCVMQxtXwvTMcSVMWx5XwnQ6cSUMZ+NKmP5FnoRtkeRKmC5MroRp9ORKmF5SroRpV+VKmI5YroTJJnElbOqVI2F5T1fCdCdzJUwDNFfCsP+uhGnj5kqYTnGuhGlG50nYfneuhGmp50oYZsqVMI0BXQnTe9CVMPk+roTpoOhJLJs0kim/bANJp8ey0SS5hbOVpRGgLgKzWaY5Y8lpW7bjpGztbC5J6Nw+ZLYUNd3TyBJJtq1R47bXhtz6aK6xFqimGZrTR/UwLRTZ0J7NY5MKUALADCgb7wJ7rSfDiB1oc9p6iyFA7NBHDc+Tl4ft962H5CQgtjOj6slTxSLCqmHoIYDpmbvGHXvmRIlippWZ3tkQWt4hcQpoMg5PxJS7aK5t6RE9VZsMM9wH5FVMezbO5WmmT/jDmV7bdUq2N6ZtDm21NvuQw/h33f+tYV/6op+s8T04RVdd4z7NWRVYq1gBkNUQmHish2tmPBS9MPVzE49Zm7LxG9/Lk0zOdMXUsaQcwfAliXZO2h5q4Okkt/c47E45ogRnG9eWJfVLh6dK698E61vm7CJzj0bGWvKkZvp0hDE1W8yvlpxrsvSeBa7wMPfsNKd23qzn6FQOCik13HLaL+ZeoenG0zGjePceFovn6kHFe/fIKN67p0bx3j04ivfu2bF4vsdH8d49QYr36lQV791zpHjvHiVxOKu7fqT1GvfENwUB854pvgdNmjseaCuaZMh5TxbfyybBX+7dYVo7HAH1oSmvmPeI4fqR88u9p0w8DvceNMG796wp3rvHTfHevWYS/HDvoRM/NO9oX5na6HmPHj5fYiszzx3nUwLXiSPdUTvlzmzjO1VUM/2Y71W8rs+ZDo3rMwk+O7dOajdKrjg0FWyz4g3Xm8SrmTcPyldy0+tgtNvJP78Nx2pDA6epNMWAfNIFtQQ4whY0aM5OedDuClzcF9TsqailglpV7tNNDwGssu06kc6r3ptIvanOKfG/dYurCx8/fFwY++OXn3/+dt/s8//rBbPjV98up81//i8=);lineShape=1;fontSize=8;" parent="1" vertex="1">
                    <mxGeometry x="63.124446428780715" y="199.7540957407668" width="156.09966700023327" height="54.656295985964846" as="geometry"/>
                </mxCell>
                <mxCell id="82" value="" style="shape=stencil(lVnZchs3EPwavk4Bg/vZcf7DVZYjVhTJJSvX32cQBiuisdsbvVEkWpiz58AlfPrx+OX7w0Xdj7fXl18f/rx+fXu8hJ8uqtfnx4fX65t9uoTPl/Dp28vrwy+vL78/f739/f1LP9k//fbyR/8Pf91wQZx2kLq/b194cfXfL36+HX+6Pt8dj1LKdLyId8fHsxQ//3cVH47PVwl1Pp8ktuPz3kmIM6BJVAJQyXkCmAVSIoAk2mZAkeoJoEibTRS8VKKzOimz0iFJYYAgzc2AJolYySSOs5NjEM3HAJM4zH6Ledy5D0iSZpGSk0ziyCRus0gpiic6xChxNmsyrVikNnEzIDtJxKwpDIk3QBjRtQ+o4gGQhlb72aBopVxFyQ05j+jf0s2NcNwF2M9+zofipZFoLRb9sx/sGyU6lCw5zIBIY6k0ybPSJYkjSldddDASYKRhoZFRh/9y8AgQHJo1Ex1qkDJbyRznuQ4VAEk8oZnqpaQZoJSIqxsstOVD4yK5kV8bINMEMse1WaRk8cutFABgGcdEykPFuxsYCdSG1arrQG5oVh8UreRIPjQvCVjDD1fuAxTZO0fKfM1ic/ZDLuPOfUBCmjkhgWY2gfAO4onjmgkwx5JlHEugVkfN3ABVMhOpSZhT1AI+sirqnLhZCYsWz+xq4T+7utaRtUda62xXi5ZCilyLkgBg5MpE8kgbFi2Z3GASgyMM0Bj1LbHRuKvN7HUBsA6rOzYhoDJAkjq7um38fFSCdOZ7i3glSlv4Q45axNMu1Do2ABRx5Ia80EZrtLIbqyToQ98D+Kh5AN6wK+pJt+ERwLjP+iMovJa2ldQgA0DX13iVM4Audg2EN95btjvPZX5D8wg4MWtagol2fW1hgUTZ1WLD5Q8CqvuISFZxoF0/UbqXqLyYld2g2BufOK4D5q7vJDRMpBIRwILPAMgCPLzzygKNzlnmafDDaY4u7cYZDdQlg/hkZvENbV/bxpbDHK1o18BvULih0NjYuSEP+vy/OmRRnqNopSSZ3bD6IfHJ7KMAm/RQhzDq3tFkBmuBXtpJQ5NNJLjB05nDBrcKN7iRU/uAiKXd2uXKGvyCnagBWOG15gHmpt5isQY/jkXGHUDZZFZwLdC/ISK9t2x3AJZxvXuZecb6ysaaY5tWwUrxrE2EqaY6GnwmElQU8wwdITw6ro/UbKpxGN5FRQnAAgEKdeZs3P06O84yhOVDtzoMWoEWCGt1cUL2dPFQAy5PjKk8Ye8+gwMg0kJtgQAlKAVKlb1dDygSa/oMgMOio+xt0e/zYlYmUh1cfTeO0tDY6vjdOHoSGkBk1vGzgcAAoEPJfLWxLQHuxlG6R4hIxqWdhQa0ZAZwjL33JmRWp/uOCwBlrFP2AYrNt1mJtQ65YpdoFSMRpfvKCm5QWqd7QsJu0I2N536dzliy8jbl7AMUB7Oc6A2xDBa626uxiSPqsphudIkVKg4QphULvrAsE/teja3vG66+Yx2t7D4g4UI0bkVsH7B069HTmcZXFCkUWuN8wt2JmYFNHF6xTpsZAlHau7FV3gBxkOd+AiF5K++vrEed3eYzfaaJWNV9oCxmRR1IjHY+yxi64Y+Ow/AzHHJ0PMBxJVSxPDs4WnSWVztHF8sOc9iNAeLgeAtwnHG7x07ejeHh4Dg8IPIZUnEScZSkFfekjnbkiss5N6rIwXGg260v3Geqj70Nnx63D+/P0N+uT0+3V+z73/HZ2r66PXmHz/8A);lineShape=1;fontSize=8;" parent="1" vertex="1">
                    <mxGeometry x="86.63530590619075" y="204.28660998468024" width="7.220277697737582" height="7.356663233303725" as="geometry"/>
                </mxCell>
                <mxCell id="97" value="" style="group" parent="1" vertex="1" connectable="0">
                    <mxGeometry x="283.6787820242428" y="203.2288167528937" width="81.51846450641892" height="63.03914880008256" as="geometry"/>
                </mxCell>
                <mxCell id="85" value="" style="shape=stencil(lVfZctswDPwavWJAErye0/Q/MhOn9tS1M47T4+8LjYa2CEWb6E0HliAXi4NDeHjbP73uBs9v18v55+7P4fm6H8K3wfvDab+7HK76NITHITy8nC+7H5fz++l5en99Gi3Hp1/n3+MKfyecdxTqiPL8b/riyE8fvk/2x8NpZh8cCXf2iYqs2wtT7e1doJQAIFOOPaBQzeuAKG3DDeAjZQBIjlzoACFQZgDI5PoziKMa1wHZUSodIDJFDwBCqd9SLFTAGbKy3h86JcogDvm2XgNkPTTYUuG23g1QqRYACORTByiRPPKQbRxKJQbSqJVC76FmCm4d4JiJ2SLqNheFEnCh60kfCF3CAzFVaevNAAmIqWoGLTzUAHnlPnIzHtZC56J1UQBNKgUjDgVAgWusswUw4DVHStUGQsAZFCB9zmloYEYkimIBDnkorazcALoEYKlolRALcCDUmjDZaCO2JT4G1AVLGFADSdqyJf1tKtN4aAQoTTlfpPWu5i8GTgGWJSwN/e0XakXiUxJTsgAk7+rJb0qgUij0Wvo0R4VkUTdgGWAqbAGo0GiO1oUHVMo0gzjaQKBiuRmQxDZSVXxEAE+lP4PmlIDI6TCQfA9gckB9sdotaSMtoC/GTHHRqiugNUZyZnrAfTF6S6uOGwUcWmcskxDiW99bneJ6WoNAaehEFfsM0jkReRh/m6Z1I/pjAJMYgLQOsDIM2NKXYdzUvCdVKQLptpg0HAyyisyO3QLmPbdcnUEqezvUM+RSY5mNeUADtG2cjFtIE+/dnIE4nWvD+MweMKlh98XaIx1oR7On9Yh6bfvB2EdQIEbyrH0BN6qtN7DP7fXhft17ORyP021x/t9eD/XTdLUMj/8B);lineShape=1;fontSize=8;" parent="97" vertex="1">
                    <mxGeometry x="39.360975110013214" width="0.696363426043542" height="4.191529248466171" as="geometry"/>
                </mxCell>
                <mxCell id="86" value="" style="shape=stencil(rZfbbhpBDIafZm+t8Xjn4Os0fY9IIQWVQkRI27x9vF0tMB74UaTeLcvnWZ/tGeThbf30uhpieDse9j9XfzbPx/Ug34YYN7v16rA52tMgj4M8vOwPqx+H/fvuef79+jSR09Ov/e/phL+znCrVcZKK4WN+wxTk34vvM7/d7C75TCU1vJBGwLPnK8XxNl8LpZbnCBWqkTi0AoUYaFQSSW0EzISx3BbIhUr7BcE+SkrCrYBSZiAQFgUWgbEuYbkqMDIlbQRSJdbbAiLE0giYVTHfFoiJYusl81sGKnGlsU2kKhSQAFNtjdaw+O16HJawnvhECmyOlByv0ILoLZ5qA+jDpKPnFaSFxUw6HujPPrHv8IGyfkUf83bq7A2IZ+78Cc8Pnf4j5jv/RMhzZy9KuK7I1IqsIt51RuML4HkpqEseFQDl2vGoJCn0+ifES3f+nXrp8p9BX4yUu/wRyPfnJ8hL8XyB9obs+QrrK3fnK46vm5ThlOK3EqhrQAoMsATtDYA8dw7NsEGETp8E9e8LWHCD6M7n/8gLFdcg0jJzru8eS7s5TaQ7DT17g225SKADWcrVtgRsSDIQkK5H5wx7hC0O3H4hlSVtr28G1XdRe4Omasp+DNs3A1qHku9zZtUI6qbEJetPC1eEjbeo7ywWGRSHmii0lWDLxQiMtkRwNphXQebp6MMgsBLUVtD2fBu2oDKNF89HUPnG5+h4lHfGu13Fahudb0u6eh7ZW33E7vDqKy3A0T01HvH2Rshnfz5aJc6b3kW8QA2cG/mZRwl6MSnOAgU7SH1CVKzQ165xd3l7ON8ZXzbb7XzlvPzf3zHt1Xw/lcdP);lineShape=1;fontSize=8;" parent="97" vertex="1">
                    <mxGeometry x="32.9351684376997" y="3.8418365134544388" width="4.959462242138152" height="10.418283187050411" as="geometry"/>
                </mxCell>
                <mxCell id="87" value="" style="shape=stencil(rVnbblw3DPyafSV0p/icpv8RIE5t1LUDx22Tvy/VjTar0Z5xAxTIw+ZYcySSIw7Jc8rvvtx/+Hx3SuHL68vz73d/P3x8vT/lX04pPTzd3708vPqvU35/yu8+Pb/c/fby/OfTx/P/P38YK8evP57/Gm/4esZFFYeMf+Hb9yddVP998usZ8PjwdA3okvIKKJKMAExyWwFRUjkGpCjBFkCXksj6LEWX9VUskvUNLciixIBkUsKyPknMx+tzkra6NIiR8+cm0WB97GS9Sa2wPoTj9cXP02F9If4vdbrjh72B2FucEat/ilTi/2Jiq/9VKrG3RomrvU6gTAxwgK0Him5SJYAkaWWQu6gSkx1QVpc65yrfoa6A7FY1vsNKIqdJ40cKEIVEaeFeymsYilLe1SBpjUN9kxhlvfm1UbeWNt83AS1Qo91EW4/Uygzl7bvTpcMOygFF4hqHZpRLnqxsNVojB2S8zponu44ycFy5pJVGOuYN0CQTgCvASiVVfh3wgmqnJscgvawZPkwZug1Q1JAepRMf+ZFA1rq7mST5nMVAdOpk723quVPBBj8k2WEkGdjBaBpz7vc1DBap8LQ+dfUC8NRPjqQFs5K5G4hb1fD6WJl0v82kgmnMqjRGPbehIcCI0e6TXDcAscEUIz0AxEvWpYFbXbGJwJkh+RzAKhgHtIaAzo60SahbRXNGCCgPbhYjk2/RKwKUhNoB31X/AnB+czfhkTy1Mjf1ecGuAIx97hTNG4D51RVwO1JnNrigNQSw4mpQR9GtrDoc5GwIYMl7AGAHlUaysW31pwMCt6ECgOv6cOt+g4jqjsApApjEuU9K3gDMaJsmXgFYGzPove1A2erM2eKQfvKOKu1kBpsh0XRaho5EA1bbDM0RAEqH8QoeiLbdIGMAxRLuyg//FyLOfH2daQj/XMp7QgDL4F5ddMNIdHIkV1LU6otZtwEXZf6PGuGFLbShQ3pZ+RBmR3Il7kwivINocCXSvIZH5Tp06hYom7wqyyubvD7oJA7eehYospRmmtiwk/O6T9mNwNp4lDgkbkV0pZ5TJZH1Ww7ob3T3uF4v1fhtHolCL1Cm5t12UMIQaKL11ZgoASDSRJkSyroGasKYF6xE9co384kM9PetzZnO0UgGahnvKwNrHwxVusUZ+MOhzGp0vZSZtwEFc32tNHBlU2m/r4nEoWwJw1+hvL+HwqFEmlbLptJjqMGO1HFGkSNtstwGnF1VmiWLbqOfSAsH90lbAZ5CaKTr7FQvAH6BRqRhB34fxhQE2Dr7iSOyKlBpNl1HMxAIW51J5GhgiiljlkKHzfo24GPC4xkD2tDor2Aj3yRhtTjyVsNJADt4YmZzIgfUhADWLu1Tbn/ClGqMJDsC2IRiSElCALtt7hOI8wCwOU7HHnG4gQTOAXk7Equ6XUx6Q7eydskBNSCAeSluCSDaWzvEDZCZl376E8vbAP/x44vOp4fHx/MHoeu/4xcgf3T+epTf/wM=);lineShape=1;fontSize=8;" parent="97" vertex="1">
                    <mxGeometry x="29.853168081585466" y="17.37684522214977" width="4.553714106495566" height="4.617696434549599" as="geometry"/>
                </mxCell>
                <mxCell id="88" value="" style="shape=stencil(lVdJchsxDHzNXFHgTpwd5x+ushypolguWc7y+2CiojQkZ5rxbUShSSyNbXIP7/unt91k+f1yPn3f/To8X/aT+zJZe3jd786Hi35N7nFyDy+n8+7b+fTx+nz9/fY0S85fP04/5xt+X3FMMc8gy3/KgZF/B1+v4sfD60Lcko2VuCUx2+Keci0eKYRt8UTWVeJCEShjmHytvHHlwXWAp5hqgBBbABCSUNsbiDPwTyRrK4AzlN02wDmytQ1OVUrApUxSA3ykBGzwmaQ2OnjyfhsQEhlfR80Sg7DFUDhzA0jhyXqcbcuLFEgYAIRSrVI2MNI5UKqplBMxiIMYCqbmniEBL0gkX0daTxi4VYRyzSU9MYBL+re4FmAHgNwCPEhPw0zMLQJl6OoTKEdXjciArqtuEgxIPQC7KdaAhR+2EMF3T4Aknf3e6ZSxm1zn14SNcJ1KEUfOdYEI2GgXW4BDGSFdRihfcUa0OacZgW2IPQAQfHZip9IAkHvAICE6lQZGN+V44NaNJMWRE2kBA25IR9cB+3JH1wG/U6fSIIOaweR/krTTaVAHfA/AleaTgFha+aJHZEQ/U8h2A1jY3LXPufoF7XMJBCJ1hSZbiuAF7dW+jlyKFAFfo29TKGnggNFB55dmStT5AERaJ5om0iHATqozUwPwqRTo9alMFajd6gS6VcfCXOeoXhFAGTBd7dMrUMrp7GprgF6RgJdMVzb0CqRSbEcmvcGhSZRczdVUZt91fcqccPMQBSDOZc6+LyZojuYy3d3FUd7cGHkXj8CXnStvm8eWuG3EUYXnMl3fxS0gJ5cOtljZsHjrSLRfcLvhMdyQuCUBLtJcNo+FOCgNmrdtVNGIze14wLDZf3L3HYrrx33Nfjkcj9ctffl/u5br0XWld49/AQ==);lineShape=1;fontSize=8;" parent="97" vertex="1">
                    <mxGeometry x="42.59631924620419" y="4.650040894754227" width="19.651731291714178" height="14.606513421361047" as="geometry"/>
                </mxCell>
                <mxCell id="89" value="" style="shape=stencil(lVnJchwxCP2auVKSEFrOWf4jVXHiqTh2ynG2vw+dKfW0oPvFc5sF1Ah4PKBP/Ob7/Ydvd6cUvr88P325+3X++HJ/4renlM6P93fP5xf9dOJ3J37z6en57vPz04/Hj5fv3z4sksunr08/lxN+X/QSZV6UUvhz+SFQCP9+eH8Rfzg/bsRjoFysvAD5Tt2eH8H5qVBv9vx8LM/i7UHn50y9W3lwvmSSZOXrsXxhEnd+P5aviUI08ikC+U5s/ZOB/U18fBuwp+tx833VwATk8zB3yGd4316G+4Z8HQ88lJ/vGyNlEAA1qMwGRaGOFOJwyHrjQL0AlzbiMCsUYoCBtrpkKHCCSd00Z+YgcCUBCrVQmFGQE1WURolEZoVKCXipBuL5CaJeAiaVbhNPmBqItD4hzoGTQoJMEnsHqbB2Nba1QhoEW6vE5g59uOEolwyaSxyROYTPDActICiXFA+mfpUyKsK+QqM+Z2vFFb53i4fKEA8xrAeuGg0XgW4R1BIlVAU0TrNNrQxPH7ppDkTrJAwD0eZQd0UQukOkOhemrvmIyoYWutmkXqmC/G7RmdQpgTsoIEzpW2IJ3KoYNfm9ieW+RrTZpI8o4NbKnylZhQgilwuVPCs0WPu4U2jWryhfOQ4+2Chk4Ncko5auCgU+4dojbBQKCLVSlEGQKiBaL1SLlWfwAL1BtvIJnO/RoCQKMimPJmojj2idqZqs0CeCvGMqbOUjCJlSjckJrf2gSmZLVor+DrJUhvc28hlUi2K7JJVPoMzXnfMR9NuePaigOswkaqieUunWn4gIo6MEDRhkHdv2L30c6tqomASSwSkHDrLny0jxA/noIA/7+DF1bAEJHKT05SoEw4Tz9qC5KxM7QBYIMA941PfvARLdl13B4pFSB/Zb2mAKUL7PvaAmdIH+bNXKI/8Xx3sJto63yisDiEOwAAXlGOvRBCc7NSk7lzIKsRrgimgDmFQmttSdYTOrM0d0qK+4m7BMLHDcL8mOXkudQC1Rc4mkCgj4eeBqaxKaBnn8/Uq3Ntf86pCOyFj/NtPgMrKiGSEOn6wKAumpO7dqs1pRe50s4euIgPB25dNVAaeG3sFUpBpH/h55yXCmxr6hqbzYEbgInjejHePL6oajXDJVW/tt2AZWO2/qgNoQ7bAlcpHBpPsKbkCVhOd+GU5cNwsdriLU62YqzzIwuO+lOJrvVSFiiMqYgtZ1Cu5+qxayGaIcYOAU02x2SDII/iiXTMMZO2zAFMFmr7jMDCC9m1u8xggRtyjMly6QQdvaoF03f6hjUKcGswUb0+crN6MJ7vH85jWNVckrN7sMVwp+c8w3bqYZBsxvvhmOOH6zjs/3m3t8vnsxwIOs94+nJrdYbzmNYSkNAxzX2FZgzM4SG01nwU6vCTK4m23if4xx4hle1RgTKQBHuqsG2Fc7RwZojAtTuC0J8MuhG989/VdcP1xfc306Pzxc3pJt/7evxfSnyys1fvcX);lineShape=1;fontSize=8;" parent="97" vertex="1">
                    <mxGeometry x="58.25644149772154" y="19.804277685441548" width="3.183035497025693" height="4.907569574662503" as="geometry"/>
                </mxCell>
                <mxCell id="90" value="" style="shape=stencil(lVfZbttADPwavRLk3vucpv8RIE5t1I0Dx73+vlQFHcuVJ8ibogwtckjOzg7+4f349HYYHL/frpfvh9+n59tx8F8G506vx8P1dNOnwT8O/uHlcj18u15+vj5Pf789jcjx6cfl1/gLf6a4WqmmMcrx3+mNEOf/L75O+PPpdYsvFu+pMMAniqXBZ6oe4ANJbvMRigEEMCXfBiQK7n5AiZTbLzhHAZScK0VpA/RNBAFClVuOMmVAUvIk7ReC0gZYip5ibQJipARYCtqllqUUKIKifSDf9jk7KiDAdbQWJif3A6SQd22ANg7UII6kHaUqsNPJTkZdctz/AElo8ZVKuY/neZI3+ArxqW2aMBODuWAKqfsAYEgJj10BoAVMwhafwNhpts7iA8yfxeIlQXw7QqPagAYvA7bBZ4gPbPERN8x3eFhv6fJHeJXa2uErwrvS1Ys2hkLHD5ofmXVw2y/Aj+zMJ1pIsZoyzhvMx/a3zjJ2j89unisQaraS9fFCxn7jgaKwlbixALgAvQIlMBCabYcPcKB7ghwUlP73MT9iGqwDCvPx3YIluMCfw6vemwULlMBAqNewH1hauB+QKbSSq/bCgy+4QKVNSe2FgJn23i6Z2gvkuIKj2m6N2ouISHLzEi5mQlkCx0Zyc8aLXYmzRdo3RGyL9okyCii2aIeVsWjGxtQJ9GhFF8UcxhEGVDef7atYwBrUbPi2D3m2tvv4PPvc1Vk7oBU6+qYChm1ez7oVjyZ1XF02eOTnFF+iwQu6GaiUeINndDOo9jTAWr16kw0e8VN7fhiMnOKzzV8wviTLP7rYLGfXpr/ITHCn7gwPj90A5Hc/fVf8EK8P68X05XQ+T/fa7f/tRVZfTZdg//gP);lineShape=1;fontSize=8;" parent="97" vertex="1">
                    <mxGeometry x="18.940240685856736" y="24.658302927882403" width="9.556077865527106" height="9.350953889609093" as="geometry"/>
                </mxCell>
                <mxCell id="91" value="" style="shape=stencil(7VnLjls3DP0abwk9KXGdpv8RIJOO0elMMJn08felasgjUr7HKNBNgezsax6L5OFT95Q/fHv89PXhlMK3t9eXXx/+OH9+ezzln04pnZ8fH17Pb/rplD+e8ocvL68Pv7y+fH/+fPn+9dOQHJ9+e/l9/MOfF1ynUgcohb8uDyKV9M+Dny/iT+fnRbxRjEa8kcRjcabU7L8XakC+Uk9WXqh2JJ/ZyI8n+Vi+UBcjnyNVQfJSrHyjVpE+pRv5kokL8k+x+pROEo7lOyXr/pqptGP5GClYh9ZGBSgUKwVrMQdosRLUrAmsKgGKh4+sDVwpgRNyomRJZqbGACAkNuq4Qa+q01O2gE4VZEFlyskDEohT9Ulnr1JCeRaI2XspA+Jao2BDjxMkrieqlukqkLjOxNZL9Zp+twEyc/0KCJAHidQtoKijQXpKpuDyR60CKimArZdGsCCV8vx5AUTAgxSKDtBnhhwBSvOAAmJJAdI9AMWSVOJNpQCqpKjXLQ9a9gSd0HzVUEBHNmgZ7dsJyK3qE95sQCcIhQ2QEA/aabIHVFBbFdCrB3RwQgyBwhZMCVm9VTIFMApX8Q1UG1DBgGRVKg0aoURUy1y91rYjqsU1iABnALl2qLV8o3DVocSq1CpFxNwWrl3HAFArFeAahBbDhk9ga7QE6jiY2KacOjrfATQP6JjpYm0Y3KOk7n74ETyMydZGRzii8G6zui8AQSds89IAoGjV0lc3lRDTZYbaavSd8p02t95pEDZaB3GIhzJpWkMDq+Q6+3sOHnkpJg9glNN1VvcFUHBHadUD0DgzFNhsyDj4ynYCHAXErzIKgKGxNYj3gD9M0Y1p6FbZiJM54BzasEUr2geGl7YEulfIugcI8hL7fWBpe0fBJFsGoaVyhOuW1HwnIdgD0OQ6Um6jWv5TwDZ9a4OApS/5VVpbECwbiYKN79HkULimORSubRTlaKK4LTVwFFCj3eoX5k5xBHDjjA4baPUbC4FVSccZGN/ZE1cyTuofC8GPheB/tRC4tlgCbrw6W7iFIOPyrQXf5qgu7bB8l22DiLgtxjkJXwE8rTq6qXBE8PUe7DYgeBu4wMm1ZX/Rp6UPFSaungcWuBCoiW6+b3Hm1O1LrOt8tAASOGGEv83RcekEmE4yTVxsyMCtaeso6qUKToh1ztrLrVdEgDD3toVpAUbzFkp9LsC3neTnpbHtopSm5rJH5mx9U3675tNsQ7d2wV94ZRx3e4GJkIHgt5mEL2d1q7UMR5keO/BPdNNhgTtlnKXkGqNzHj2gy7knzmXrQDxZa/GSnv34EuBqmP0qqZUXuLL4ChHgJUal4MUDfDPhAhMP5TybxCIOBgSew+6iOxC/VoHFM0CZNjeOxe/g37t/XxDmtfKBuLtuinMxPBL/Ny/M7orrh/d3c1/OT0+XV3vr7/5dnj66vAfMH/8G);lineShape=1;fontSize=8;" parent="97" vertex="1">
                    <mxGeometry x="14.620765444979043" y="36.07727331006748" width="2.762856665606689" height="5.724222865907123" as="geometry"/>
                </mxCell>
                <mxCell id="92" value="" style="shape=stencil(lVfLctswDPwaXTEgwec5Tf8jM3FqT1074zh9/H2hqrJF0FonN5natQhgAS4HeXjbPr1uBs9v59Px++bX7vm8HeTL4P3usN2cdmd9GuRxkIeX42nz7XR8PzxPv1+fRuT49OP4c/yH3xPPUUgjyfOfaYHJl38LXyf4fndYwIWyb+Ceql+HZ/vvmTyvwx1TyQ3eOWIBhEgxtoRELqwTNN7o2gA8JfAFXyiXhiBMAmKQTI5bQqECchSSJYRMJa4TYiSpDSFmYrdOSIFCG0OKVEEMWYjbMudADLZUmFKb1uJgpYvuuA1aVxyIoarQ2qB1JSFCJpGWkCgBaddKpY2hFqoJEmpoCZUcqLRjtlErQwBj/ES1hHiH0H0hg0KMr6MlIPWNG+gId9IkrZgWeVhjcBd1RaXTDitdEBUSsuvShKIulLq8RrylmC1BMCF1W3KYYGbxmDeU1jLnZCHw//N2rQ5mMtXLNFwttXQErA0rpjJ34Uflqk2KCX1D8J2u7sTngTRud3XALdQPjgROrRujqd5LU+q0UcExN+64i6GiDlJtdPqGBK1TPzfQli7S+WjQnyak2etcCBlPV9cVTmaHc/uYi5agxxwallkbwhA8MZBGdjatelQX0KNJbKVTmgfJbbsRZr+zsBsFFC5E2w9BZxsIWqJtOanYlGVKbdDi5lF1m6CerSWokw3oqA7WY6mxrKhFKXXOFbk+lZ6pM5zd3hppNeIgQUyuhTtoTHieiNdLQAXnAs9u8wpHbdaNR4bDjme9X+EB6JnnyK5wgZnx0cAdmFpsm4Vna7ICj8XC4WZyBwciuFRlAQd5d1YECgdVddamXUS0Av/UxfEuXB+ud9SX3X4/XXGX7+2dVpem+7A8/gU=);lineShape=1;fontSize=8;" parent="97" vertex="1">
                    <mxGeometry x="31.480671573562574" y="24.759409420722818" width="9.167497400295328" height="10.622496248410195" as="geometry"/>
                </mxCell>
                <mxCell id="93" value="" style="shape=stencil(lVlJbhxHEHzNXBO1L2dZ/ocAUebANClQlG39XtEeVHsqqjsE3rhE1pIVGbn0JX749vjp68MluG9vry9/Pvxz/fz2eIm/XUK4Pj8+vF7f8NMlfrzED19eXh/+eH35/vz59vvXTxty++mvl7+3Ff692fVsIW1Wwf24/aVZav/94fcb/un6fI93lv2EL5bSOb4Fa3nCZ/Ni/VqttAmfrHuB95YLre/yOb5g+0T4LM6fm2VH9w3iPDmYi4Tv/RyfsNyMr9aFf5Ln8/SxwCE+Vqvzfb2z6oRBtDI/mE+DIscGwXyfDZp1tQNcNBuEYEn4FAZlvjOcWvQd0mwQvfZSsjh7KeJdgjDIvENy1oswKFZnt6ZssQqDZqHOBt28YDYOQEcCF4M40naAOdRykS+N9RrFTtcG1RqJhRv0PY7OOMRnN/DWxQ6lWwqzAfir9ALyQEfK4+2PBcxZJINqQURoww6kGN2iuHRr1uZ4gKipeOh+SMRugEsLtnbQm3aAagsuISv0+aUr7qB2AL3nd4DwR6F7MMjzHeC3LNiKI6U5gOC3Ih6uR35p+E0pX+tD2XeDNNh1bABhJC2GLomYXpNbb5JLYE6nHbo28JxOYNBUiIJL88N55waBj2UjcMhtWyhxjRY6G0RxCaT8nNhNRXDDgzq0Qx0xdWzAugR2KdXwnLG6Fu+lSAKTusT7yPgk8SQxILtKuev60aJ4MqQSui+kX0QC/FMZryIHgbisr6rCwGKx4VXFYLEwXuX/ZC4xPkt8XtZX2T9ZK+x/lQf3mveOD07wIQ1hu8MXef4wayn4rP1ZAuOTuC/YUhmvtDos/MmjCj3hT3zXedyiu7iv4KdbVDTJ8yMeA+Od0B/gVz4I/6MGofcKsktwC9+C7HL8IrhBFnZh8f+v4tH7Ba+K33fifTG/BoAIsK1LXBikimUksbyEjJLELU2ST4vsTJGJ1yDrYgfU0mnJYqrmKmjtF1qrNIBiec0bTtW+bvz7vuYSl257m3VX1WXx0vg39VGoG1VbtFXXtIMfI4CzI1Epi7JNJSesl+ZoqzqasR7Jb/Wyfq+BWzsUhop8aFHcvAPePqjGy/ORCkpZwaWcl04tyw4B3WuZcz46taZyZhq19G4QRtCeNsDUz8JLakxQR8jvBnU0e2djAqrrchpd+ulshDpmp0cdbuSZvesvstIMfQjjbqAjbpsvzTEdi3VlUDh5Rq8N8ojgfVxTZbbdyiOa7wTZMW/10fxwXtf7uAMVeD6NlHps0LjC9l4PhBzPOSFUmkp1vkKRc9fYWbuTvDGih2RPjwjAS5opBJlAESmUDzXtSho0Hng3eHg21w2N8Co/18a9uO5i0btHxkexfut8Hj1RRKKkFjOMnuoY31hakuxI0UJTxZNkUAK/zMnlfKZzCY9yR/DzbmpwR2hBOGzQKePIFhl4TsvaoX2UNneDdTVfatyTNjkXBN7zhxM5g6s8NsGG6kNL4fTXBqNOR3aR19f49334+SUeP/z/lenL9enp9pHq/v/8VQp/un3Rih9/Ag==);lineShape=1;fontSize=8;" parent="97" vertex="1">
                    <mxGeometry x="39.19464330298473" y="37.98686767684086" width="3.1710393426934993" height="4.382051083417425" as="geometry"/>
                </mxCell>
                <mxCell id="94" value="" style="shape=stencil(lZfZbtswEEW/Rq+DGe58TtP/CBCnNurGgeNuf99RDSriUL5G3mT5XHJ2UpN/eN8/ve0mx++X8+n77vfh+bKf/JfJucPrfnc+XPRp8o+Tf3g5nXffzqefr8/X329PMzk//Tj9mlf4c9XVSsnNKsd/r28ccfr/4uuVPx5e13wg6flEtd7mSyJfO148FX9bkCvV2Asq5QgEQoV7DzIFd1uQHPnSCXyCgqgC6QQBC4LGMHeCmCiDqPphh6SCfFvgPEXfCXJscdsUSCJJnaBoHlCiyYWOr0KRwQYtSQuvaYN8KJavkDf2CzMxEHArs/UGBfFRLI8CxOQGh1NAPA8Oe5CxxbsVzwJ542+hBO03AVUe22MaWXkGnc+UjL+ZKmgaad6teBR/IR+G9UF8pGVnbT9oMR0reYgPWF973g3xB4NumbMrvkJ7qol/hfbIRv0nyMehPguoZyGXLY/7q/bxv9/AaWhIlGAt0MHhDApOG2DgA27IwR6B61u+UIYBkoHH9viBF1BAn+Vzs3bhGTdMoNxvUBwF1DGOpB9xOVAAO3id6X0PpNiqcPsg1hrqh3SM7VzbPuq5HULLUR/antuXCbZt6VWArivcYrJcVyK+EBWK5uQrsO5KtCeHaKCB09XZUa1BAoU6103fOXoWghjNgzMZXoDH8+AUwzPmS7E8GCxz31p7GMWn2pQxjmdtg/+D99ieYtePIMHzHAyGR5fF1aBdKgI6vCnwKANqkTd8uuOxXR81zae/Uu7y+vDxSfRyOB6vX1Tr/+0nlL66fn75x38=);lineShape=1;fontSize=8;" parent="97" vertex="1">
                    <mxGeometry x="7.365641432043958" y="44.66673110980037" width="6.579056345954565" height="6.329143877144481" as="geometry"/>
                </mxCell>
                <mxCell id="95" value="" style="shape=stencil(lVlJbhwxDHzNXAlS1HrO8o8AceJBHDtwnO33oTJQp0VN18C3cZvsprhUkdRJ33y///Dt7hT4+8vz05e7X+ePL/cnfXsK4fx4f/d8frFfJ3130jefnp7vPj8//Xj8ePn724cu2X99ffrZ3/D7otcqxdK1Av+5PBEl5n9P3l8UHs6Pe4VMwSkIpQQUlJJTYOIAFIQ4TQqVWj6Wr4VinuQLpQjkA9U2yWcSOZYv9n6Z5CNlcOAi43VDXofLrspnpRIn+UDSjuVToqqzQykB/8RCWZx8AefVRlmdPbkCeTM3ev+A84ZEkV28CoiXNErOfqEKAiD2/TArZGrAIkvINmdcwEVQSecPhEYFhCxTnjNU84jh9RBTmUsmKjVgT6JUJ/nEVOD72xyxVEjB+83a+byWswn6J8z25DaeHAUgzAaVSBGFeEvJTaGRgBNL8kVQlSJSaMTzFyr2kVVJm4PWeITxukIhmb1qUJlBIehW55uCBRIgqVoeOQUMjb305zgYPygIXLRDN68QkULypWAmITQy9FL3BWMgELi4WbwpRAogcKZQ5uo3BkogcP0LM0BWS3hQ/naG6BjN0hvEIWbi+dCVB2heV4gjmbd6MC8hUgielUuA9RDZV1yuVIGX1P49V1y2dARnMEx0qJTDwOWj9OaZSDKPhD9iqjZ7KVmVozPYoec4GFBWEDhDPlGvgJodg2JHninD5OvkXb1CBm4VM4lfY5LRpy6HRkBm6F3dGSpk9DLyYBcGJJ9Gwe/jDDBDPLBmgR2e+AObfIDyeXm/gvoXT+cmnxH3+AbP5BH9y2g+doUjKGAeg00+oozwDbbJZ+z/xR4UXx6n28sDEmHP5V0e+JNJ02I/8CeTLPIIfW2e0cX/ALh4wS2BUMoDpPb5A/xv3dSan9Cfjp56/sPzliU/BeYnL/YwrBeV5f0wn9Niv8L6Wu1HI6ws7a8MbjuSX/KTUfs70Gwnr2giorTkG7Y/rPWI47XWI8zPssrD/H+dfPTxNb4QwPNl4dQKJ3BZAMIYD/WYRpEuo42EIWNY2+BYO42twiHNO5PiaI8Op+roFRCoWKviWMlMUtQ9yRjrd4dW1D3FJQ4FDu7WAbrC740B7jFXZEdjoHWxbnuVI1wuxbBwWYXbGevE3fanCNwN9F7fzb7p1kTk9kU2+6IxMLaBnrvxA+FvYt/F2oBzQ8Exso1QFS0s2DelNqShFY3NXNkpFDxoZh+41vAYGPwSSJjhFsim5ZD9JyqqoOT9atMynHB4GU0NmIBCX2VG71dUcmuv2XAv0pHMLVJugGscyLjLvoDYbWs+dvmNKqguuyBc09njWG6joT8YPzwE6BgLD+hKl4ELtV+6TKV84/0ui6JSgfa7fbrhLNreZb81Cg1GeNnPhgCTVNRvaCTBgNkI6zfADAeovoF2EwtmqoXaFGKFVX70K3XU8BtkuwUtwwbGmNjtEjESGYmxOHnkH6OkxM5+lEGl+CsThQ1t363O/rcWDrzfIMQxVIK42DHKlTxs+NvSQW4ZdV1+WdgJw0WRAb+/Y8E7RFNwaxzBITAFNyQLXgp0BfeFgKc0XuZS01DkpubT1BRQnDs/LjbdOLXrdWS7vTtScDvyfp+JUqP5FtIUUAvZmoffroBCXZfIKax+U3Bo1BVQHF59iXtbwX78vzP+dH54uFw57//v75jt0eV+Wt/9BQ==);lineShape=1;fontSize=8;" parent="97" vertex="1">
                    <mxGeometry y="54.389970165216766" width="7.985227190974911" height="8.649178634865772" as="geometry"/>
                </mxCell>
                <mxCell id="96" value="" style="shape=stencil(7VnLUlsxDP2abDV+W17T9j+YAUqmFBigr7+v3IwvsRSfwEyX7ELQiS3p6OldvHi+vXy83gX3/PL08O361/7q5XYXP+1C2N/fXj/tX+TTLn7exYubh6frr08PP+6vDn8/XnbJ/un7w8/+C78POE8+dFBwfw5fxEYl//vmy0H+bn9/JJ8oRC2f2lqeqbX3/L6P5L0G1AIATDlpAMc1IGTy1QCACjEQFw1o4ITkKRgdGtAhiU2MFxq4Uq5UZ6WTI+fWgJIpOgPwa0D11KoBBACoVLwBACtxIJ+NpxMAZMoKwNBxbKwUKyV0QiHPM8BRAo7jNMg/AEFOqFDpqACJPLLSZvUN4GAAiR/yrIOv5MCVaqakAJEqAph4EL8BN4h8npkhSQFRL+gA5RFPS6rO3K4UEVM91dmkhQJD+TLTSDIIIEWXn3mazoVanfUNQ6GlvsphWD4M9V7lISGC1hcHQY3ktLxDfIgjRI7k0f3jiPJXeY/8lbS+bii0zFxZ2T8A/khIhvk+iRjJm5JWiQEfJM+12Z7eUUMHMNU5AHoEA4s2T3Gu4r5QBJRokYo6gUd9OA3IgzKbTf2oD6cBkqQUII0wPQ2QvkMVWeEJoEVrJ1oRZFbvNl5ujq6D6qsjVKbLkRpI1k0K2Ey94rAjWF+pFGLk6qLJ1MMVAfIg8wZgKiD8W6I8X0kIj+JByKQKvxA4oBoo/dmcMMQMAejAhhvimYDqOJuS1iCZ+o0NAAWE9CKlakAG1BCAN0qjNCbNCyulpQ6iE4ru2LrvUWKygAQzMW/c3AAB61BHZd0AkqowQOXu5obvl46bUx+fcRyPaeLoBIfMKuRzGgCVboZ8kitBAZXf09SQmEapz+nuXxxXUJqREjdnDckjAbXaJrkK+VATKQDVpgq90YwkAKc8LW0nyhqsS9BRQl+RyWaBimNU1dHGcG6TgGgmRmHvUEbuPXIEDIhCWTkC11EBVHWliCeSqicSoSt0xHsBna6z0iwAxO+grSQ9IIrR3s/M7CsMe4EeL6ruxlHrV2VU6dBndnSlMpL11myU0RysAHp+ZjhniA5N7TECtpIMqzM1pHOFvYMbjfNREwfnZ0nfcwBJmwhH+jSMuAW1VHYUot4002X0K6engaY3YtJMo22PUK2q8crBdua/zMOAqx/z8Mc8fHYexoRW20gPM5fMzyoRldE9rCLMqdI/NlCrEM5qWsUjDCfdKkjMF1wDVR0XE8HWmXWyFk5DQNPNuQRxxh2YmnliHYvu1ZXU7jLF0WKt1gyq8KeEV/lhDF0bII+h/a0r4a0qvnXpjAEn1toZzs8nFucCAFayq3kBJEA+u/zvAEA++7zQAYBL9gGjA4Dj7BNJynD2tI8wAkApw7zyiDxa5ZtXJJFHZd+8Up35fafXKv3+QGGnm+bOCnCfbUlzFDpoiJQE3bQ84oTTy7CEV/J2URVhZFr5MDLgSl7pi7d5Vl8HhztrTzzFG3+deS8zfIh4dnzvq+h5efnw+gR7s7+7O7zgHv9fP9nKV4fn3vj5Lw==);lineShape=1;fontSize=8;" parent="97" vertex="1">
                    <mxGeometry x="66.20280427503934" y="31.143525697536575" width="15.31566023137957" height="5.661031152327905" as="geometry"/>
                </mxCell>
                <mxCell id="98" value="" style="group" parent="1" vertex="1" connectable="0">
                    <mxGeometry x="349.9987820242428" y="207.4088167528937" width="81.51846450641892" height="63.03914880008256" as="geometry"/>
                </mxCell>
                <mxCell id="99" value="" style="shape=stencil(lVfZctswDPwavWJAErye0/Q/MhOn9tS1M47T4+8LjYa2CEWb6E0HliAXi4NDeHjbP73uBs9v18v55+7P4fm6H8K3wfvDab+7HK76NITHITy8nC+7H5fz++l5en99Gi3Hp1/n3+MKfyecdxTqiPL8b/riyE8fvk/2x8NpZh8cCXf2iYqs2wtT7e1doJQAIFOOPaBQzeuAKG3DDeAjZQBIjlzoACFQZgDI5PoziKMa1wHZUSodIDJFDwBCqd9SLFTAGbKy3h86JcogDvm2XgNkPTTYUuG23g1QqRYACORTByiRPPKQbRxKJQbSqJVC76FmCm4d4JiJ2SLqNheFEnCh60kfCF3CAzFVaevNAAmIqWoGLTzUAHnlPnIzHtZC56J1UQBNKgUjDgVAgWusswUw4DVHStUGQsAZFCB9zmloYEYkimIBDnkorazcALoEYKlolRALcCDUmjDZaCO2JT4G1AVLGFADSdqyJf1tKtN4aAQoTTlfpPWu5i8GTgGWJSwN/e0XakXiUxJTsgAk7+rJb0qgUij0Wvo0R4VkUTdgGWAqbAGo0GiO1oUHVMo0gzjaQKBiuRmQxDZSVXxEAE+lP4PmlIDI6TCQfA9gckB9sdotaSMtoC/GTHHRqiugNUZyZnrAfTF6S6uOGwUcWmcskxDiW99bneJ6WoNAaehEFfsM0jkReRh/m6Z1I/pjAJMYgLQOsDIM2NKXYdzUvCdVKQLptpg0HAyyisyO3QLmPbdcnUEqezvUM+RSY5mNeUADtG2cjFtIE+/dnIE4nWvD+MweMKlh98XaIx1oR7On9Yh6bfvB2EdQIEbyrH0BN6qtN7DP7fXhft17ORyP021x/t9eD/XTdLUMj/8B);lineShape=1;fontSize=8;" parent="98" vertex="1">
                    <mxGeometry x="39.360975110013214" width="0.696363426043542" height="4.191529248466171" as="geometry"/>
                </mxCell>
                <mxCell id="100" value="" style="shape=stencil(rZfbbhpBDIafZm+t8Xjn4Os0fY9IIQWVQkRI27x9vF0tMB74UaTeLcvnWZ/tGeThbf30uhpieDse9j9XfzbPx/Ug34YYN7v16rA52tMgj4M8vOwPqx+H/fvuef79+jSR09Ov/e/phL+znCrVcZKK4WN+wxTk34vvM7/d7C75TCU1vJBGwLPnK8XxNl8LpZbnCBWqkTi0AoUYaFQSSW0EzISx3BbIhUr7BcE+SkrCrYBSZiAQFgUWgbEuYbkqMDIlbQRSJdbbAiLE0giYVTHfFoiJYusl81sGKnGlsU2kKhSQAFNtjdaw+O16HJawnvhECmyOlByv0ILoLZ5qA+jDpKPnFaSFxUw6HujPPrHv8IGyfkUf83bq7A2IZ+78Cc8Pnf4j5jv/RMhzZy9KuK7I1IqsIt51RuML4HkpqEseFQDl2vGoJCn0+ifES3f+nXrp8p9BX4yUu/wRyPfnJ8hL8XyB9obs+QrrK3fnK46vm5ThlOK3EqhrQAoMsATtDYA8dw7NsEGETp8E9e8LWHCD6M7n/8gLFdcg0jJzru8eS7s5TaQ7DT17g225SKADWcrVtgRsSDIQkK5H5wx7hC0O3H4hlSVtr28G1XdRe4Omasp+DNs3A1qHku9zZtUI6qbEJetPC1eEjbeo7ywWGRSHmii0lWDLxQiMtkRwNphXQebp6MMgsBLUVtD2fBu2oDKNF89HUPnG5+h4lHfGu13Fahudb0u6eh7ZW33E7vDqKy3A0T01HvH2Rshnfz5aJc6b3kW8QA2cG/mZRwl6MSnOAgU7SH1CVKzQ165xd3l7ON8ZXzbb7XzlvPzf3zHt1Xw/lcdP);lineShape=1;fontSize=8;" parent="98" vertex="1">
                    <mxGeometry x="32.9351684376997" y="3.8418365134544388" width="4.959462242138152" height="10.418283187050411" as="geometry"/>
                </mxCell>
                <mxCell id="101" value="" style="shape=stencil(rVnbblw3DPyafSV0p/icpv8RIE5t1LUDx22Tvy/VjTar0Z5xAxTIw+ZYcySSIw7Jc8rvvtx/+Hx3SuHL68vz73d/P3x8vT/lX04pPTzd3708vPqvU35/yu8+Pb/c/fby/OfTx/P/P38YK8evP57/Gm/4esZFFYeMf+Hb9yddVP998usZ8PjwdA3okvIKKJKMAExyWwFRUjkGpCjBFkCXksj6LEWX9VUskvUNLciixIBkUsKyPknMx+tzkra6NIiR8+cm0WB97GS9Sa2wPoTj9cXP02F9If4vdbrjh72B2FucEat/ilTi/2Jiq/9VKrG3RomrvU6gTAxwgK0Him5SJYAkaWWQu6gSkx1QVpc65yrfoa6A7FY1vsNKIqdJ40cKEIVEaeFeymsYilLe1SBpjUN9kxhlvfm1UbeWNt83AS1Qo91EW4/Uygzl7bvTpcMOygFF4hqHZpRLnqxsNVojB2S8zponu44ycFy5pJVGOuYN0CQTgCvASiVVfh3wgmqnJscgvawZPkwZug1Q1JAepRMf+ZFA1rq7mST5nMVAdOpk723quVPBBj8k2WEkGdjBaBpz7vc1DBap8LQ+dfUC8NRPjqQFs5K5G4hb1fD6WJl0v82kgmnMqjRGPbehIcCI0e6TXDcAscEUIz0AxEvWpYFbXbGJwJkh+RzAKhgHtIaAzo60SahbRXNGCCgPbhYjk2/RKwKUhNoB31X/AnB+czfhkTy1Mjf1ecGuAIx97hTNG4D51RVwO1JnNrigNQSw4mpQR9GtrDoc5GwIYMl7AGAHlUaysW31pwMCt6ECgOv6cOt+g4jqjsApApjEuU9K3gDMaJsmXgFYGzPove1A2erM2eKQfvKOKu1kBpsh0XRaho5EA1bbDM0RAEqH8QoeiLbdIGMAxRLuyg//FyLOfH2daQj/XMp7QgDL4F5ddMNIdHIkV1LU6otZtwEXZf6PGuGFLbShQ3pZ+RBmR3Il7kwivINocCXSvIZH5Tp06hYom7wqyyubvD7oJA7eehYospRmmtiwk/O6T9mNwNp4lDgkbkV0pZ5TJZH1Ww7ob3T3uF4v1fhtHolCL1Cm5t12UMIQaKL11ZgoASDSRJkSyroGasKYF6xE9co384kM9PetzZnO0UgGahnvKwNrHwxVusUZ+MOhzGp0vZSZtwEFc32tNHBlU2m/r4nEoWwJw1+hvL+HwqFEmlbLptJjqMGO1HFGkSNtstwGnF1VmiWLbqOfSAsH90lbAZ5CaKTr7FQvAH6BRqRhB34fxhQE2Dr7iSOyKlBpNl1HMxAIW51J5GhgiiljlkKHzfo24GPC4xkD2tDor2Aj3yRhtTjyVsNJADt4YmZzIgfUhADWLu1Tbn/ClGqMJDsC2IRiSElCALtt7hOI8wCwOU7HHnG4gQTOAXk7Equ6XUx6Q7eydskBNSCAeSluCSDaWzvEDZCZl376E8vbAP/x44vOp4fHx/MHoeu/4xcgf3T+epTf/wM=);lineShape=1;fontSize=8;" parent="98" vertex="1">
                    <mxGeometry x="29.853168081585466" y="17.37684522214977" width="4.553714106495566" height="4.617696434549599" as="geometry"/>
                </mxCell>
                <mxCell id="102" value="" style="shape=stencil(lVdJchsxDHzNXFHgTpwd5x+ushypolguWc7y+2CiojQkZ5rxbUShSSyNbXIP7/unt91k+f1yPn3f/To8X/aT+zJZe3jd786Hi35N7nFyDy+n8+7b+fTx+nz9/fY0S85fP04/5xt+X3FMMc8gy3/KgZF/B1+v4sfD60Lcko2VuCUx2+Keci0eKYRt8UTWVeJCEShjmHytvHHlwXWAp5hqgBBbABCSUNsbiDPwTyRrK4AzlN02wDmytQ1OVUrApUxSA3ykBGzwmaQ2OnjyfhsQEhlfR80Sg7DFUDhzA0jhyXqcbcuLFEgYAIRSrVI2MNI5UKqplBMxiIMYCqbmniEBL0gkX0daTxi4VYRyzSU9MYBL+re4FmAHgNwCPEhPw0zMLQJl6OoTKEdXjciArqtuEgxIPQC7KdaAhR+2EMF3T4Aknf3e6ZSxm1zn14SNcJ1KEUfOdYEI2GgXW4BDGSFdRihfcUa0OacZgW2IPQAQfHZip9IAkHvAICE6lQZGN+V44NaNJMWRE2kBA25IR9cB+3JH1wG/U6fSIIOaweR/krTTaVAHfA/AleaTgFha+aJHZEQ/U8h2A1jY3LXPufoF7XMJBCJ1hSZbiuAF7dW+jlyKFAFfo29TKGnggNFB55dmStT5AERaJ5om0iHATqozUwPwqRTo9alMFajd6gS6VcfCXOeoXhFAGTBd7dMrUMrp7GprgF6RgJdMVzb0CqRSbEcmvcGhSZRczdVUZt91fcqccPMQBSDOZc6+LyZojuYy3d3FUd7cGHkXj8CXnStvm8eWuG3EUYXnMl3fxS0gJ5cOtljZsHjrSLRfcLvhMdyQuCUBLtJcNo+FOCgNmrdtVNGIze14wLDZf3L3HYrrx33Nfjkcj9ctffl/u5br0XWld49/AQ==);lineShape=1;fontSize=8;" parent="98" vertex="1">
                    <mxGeometry x="42.59631924620419" y="4.650040894754227" width="19.651731291714178" height="14.606513421361047" as="geometry"/>
                </mxCell>
                <mxCell id="103" value="" style="shape=stencil(lVnJchwxCP2auVKSEFrOWf4jVXHiqTh2ynG2vw+dKfW0oPvFc5sF1Ah4PKBP/Ob7/Ydvd6cUvr88P325+3X++HJ/4renlM6P93fP5xf9dOJ3J37z6en57vPz04/Hj5fv3z4sksunr08/lxN+X/QSZV6UUvhz+SFQCP9+eH8Rfzg/bsRjoFysvAD5Tt2eH8H5qVBv9vx8LM/i7UHn50y9W3lwvmSSZOXrsXxhEnd+P5aviUI08ikC+U5s/ZOB/U18fBuwp+tx833VwATk8zB3yGd4316G+4Z8HQ88lJ/vGyNlEAA1qMwGRaGOFOJwyHrjQL0AlzbiMCsUYoCBtrpkKHCCSd00Z+YgcCUBCrVQmFGQE1WURolEZoVKCXipBuL5CaJeAiaVbhNPmBqItD4hzoGTQoJMEnsHqbB2Nba1QhoEW6vE5g59uOEolwyaSxyROYTPDActICiXFA+mfpUyKsK+QqM+Z2vFFb53i4fKEA8xrAeuGg0XgW4R1BIlVAU0TrNNrQxPH7ppDkTrJAwD0eZQd0UQukOkOhemrvmIyoYWutmkXqmC/G7RmdQpgTsoIEzpW2IJ3KoYNfm9ieW+RrTZpI8o4NbKnylZhQgilwuVPCs0WPu4U2jWryhfOQ4+2Chk4Ncko5auCgU+4dojbBQKCLVSlEGQKiBaL1SLlWfwAL1BtvIJnO/RoCQKMimPJmojj2idqZqs0CeCvGMqbOUjCJlSjckJrf2gSmZLVor+DrJUhvc28hlUi2K7JJVPoMzXnfMR9NuePaigOswkaqieUunWn4gIo6MEDRhkHdv2L30c6tqomASSwSkHDrLny0jxA/noIA/7+DF1bAEJHKT05SoEw4Tz9qC5KxM7QBYIMA941PfvARLdl13B4pFSB/Zb2mAKUL7PvaAmdIH+bNXKI/8Xx3sJto63yisDiEOwAAXlGOvRBCc7NSk7lzIKsRrgimgDmFQmttSdYTOrM0d0qK+4m7BMLHDcL8mOXkudQC1Rc4mkCgj4eeBqaxKaBnn8/Uq3Ntf86pCOyFj/NtPgMrKiGSEOn6wKAumpO7dqs1pRe50s4euIgPB25dNVAaeG3sFUpBpH/h55yXCmxr6hqbzYEbgInjejHePL6oajXDJVW/tt2AZWO2/qgNoQ7bAlcpHBpPsKbkCVhOd+GU5cNwsdriLU62YqzzIwuO+lOJrvVSFiiMqYgtZ1Cu5+qxayGaIcYOAU02x2SDII/iiXTMMZO2zAFMFmr7jMDCC9m1u8xggRtyjMly6QQdvaoF03f6hjUKcGswUb0+crN6MJ7vH85jWNVckrN7sMVwp+c8w3bqYZBsxvvhmOOH6zjs/3m3t8vnsxwIOs94+nJrdYbzmNYSkNAxzX2FZgzM4SG01nwU6vCTK4m23if4xx4hle1RgTKQBHuqsG2Fc7RwZojAtTuC0J8MuhG989/VdcP1xfc306Pzxc3pJt/7evxfSnyys1fvcX);lineShape=1;fontSize=8;" parent="98" vertex="1">
                    <mxGeometry x="58.25644149772154" y="19.804277685441548" width="3.183035497025693" height="4.907569574662503" as="geometry"/>
                </mxCell>
                <mxCell id="104" value="" style="shape=stencil(lVfZbttADPwavRLk3vucpv8RIE5t1I0Dx73+vlQFHcuVJ8ibogwtckjOzg7+4f349HYYHL/frpfvh9+n59tx8F8G506vx8P1dNOnwT8O/uHlcj18u15+vj5Pf789jcjx6cfl1/gLf6a4WqmmMcrx3+mNEOf/L75O+PPpdYsvFu+pMMAniqXBZ6oe4ANJbvMRigEEMCXfBiQK7n5AiZTbLzhHAZScK0VpA/RNBAFClVuOMmVAUvIk7ReC0gZYip5ibQJipARYCtqllqUUKIKifSDf9jk7KiDAdbQWJif3A6SQd22ANg7UII6kHaUqsNPJTkZdctz/AElo8ZVKuY/neZI3+ArxqW2aMBODuWAKqfsAYEgJj10BoAVMwhafwNhpts7iA8yfxeIlQXw7QqPagAYvA7bBZ4gPbPERN8x3eFhv6fJHeJXa2uErwrvS1Ys2hkLHD5ofmXVw2y/Aj+zMJ1pIsZoyzhvMx/a3zjJ2j89unisQaraS9fFCxn7jgaKwlbixALgAvQIlMBCabYcPcKB7ghwUlP73MT9iGqwDCvPx3YIluMCfw6vemwULlMBAqNewH1hauB+QKbSSq/bCgy+4QKVNSe2FgJn23i6Z2gvkuIKj2m6N2ouISHLzEi5mQlkCx0Zyc8aLXYmzRdo3RGyL9okyCii2aIeVsWjGxtQJ9GhFF8UcxhEGVDef7atYwBrUbPi2D3m2tvv4PPvc1Vk7oBU6+qYChm1ez7oVjyZ1XF02eOTnFF+iwQu6GaiUeINndDOo9jTAWr16kw0e8VN7fhiMnOKzzV8wviTLP7rYLGfXpr/ITHCn7gwPj90A5Hc/fVf8EK8P68X05XQ+T/fa7f/tRVZfTZdg//gP);lineShape=1;fontSize=8;" parent="98" vertex="1">
                    <mxGeometry x="18.940240685856736" y="24.658302927882403" width="9.556077865527106" height="9.350953889609093" as="geometry"/>
                </mxCell>
                <mxCell id="105" value="" style="shape=stencil(7VnLjls3DP0abwk9KXGdpv8RIJOO0elMMJn08felasgjUr7HKNBNgezsax6L5OFT95Q/fHv89PXhlMK3t9eXXx/+OH9+ezzln04pnZ8fH17Pb/rplD+e8ocvL68Pv7y+fH/+fPn+9dOQHJ9+e/l9/MOfF1ynUgcohb8uDyKV9M+Dny/iT+fnRbxRjEa8kcRjcabU7L8XakC+Uk9WXqh2JJ/ZyI8n+Vi+UBcjnyNVQfJSrHyjVpE+pRv5kokL8k+x+pROEo7lOyXr/pqptGP5GClYh9ZGBSgUKwVrMQdosRLUrAmsKgGKh4+sDVwpgRNyomRJZqbGACAkNuq4Qa+q01O2gE4VZEFlyskDEohT9Ulnr1JCeRaI2XspA+Jao2BDjxMkrieqlukqkLjOxNZL9Zp+twEyc/0KCJAHidQtoKijQXpKpuDyR60CKimArZdGsCCV8vx5AUTAgxSKDtBnhhwBSvOAAmJJAdI9AMWSVOJNpQCqpKjXLQ9a9gSd0HzVUEBHNmgZ7dsJyK3qE95sQCcIhQ2QEA/aabIHVFBbFdCrB3RwQgyBwhZMCVm9VTIFMApX8Q1UG1DBgGRVKg0aoURUy1y91rYjqsU1iABnALl2qLV8o3DVocSq1CpFxNwWrl3HAFArFeAahBbDhk9ga7QE6jiY2KacOjrfATQP6JjpYm0Y3KOk7n74ETyMydZGRzii8G6zui8AQSds89IAoGjV0lc3lRDTZYbaavSd8p02t95pEDZaB3GIhzJpWkMDq+Q6+3sOHnkpJg9glNN1VvcFUHBHadUD0DgzFNhsyDj4ynYCHAXErzIKgKGxNYj3gD9M0Y1p6FbZiJM54BzasEUr2geGl7YEulfIugcI8hL7fWBpe0fBJFsGoaVyhOuW1HwnIdgD0OQ6Um6jWv5TwDZ9a4OApS/5VVpbECwbiYKN79HkULimORSubRTlaKK4LTVwFFCj3eoX5k5xBHDjjA4baPUbC4FVSccZGN/ZE1cyTuofC8GPheB/tRC4tlgCbrw6W7iFIOPyrQXf5qgu7bB8l22DiLgtxjkJXwE8rTq6qXBE8PUe7DYgeBu4wMm1ZX/Rp6UPFSaungcWuBCoiW6+b3Hm1O1LrOt8tAASOGGEv83RcekEmE4yTVxsyMCtaeso6qUKToh1ztrLrVdEgDD3toVpAUbzFkp9LsC3neTnpbHtopSm5rJH5mx9U3675tNsQ7d2wV94ZRx3e4GJkIHgt5mEL2d1q7UMR5keO/BPdNNhgTtlnKXkGqNzHj2gy7knzmXrQDxZa/GSnv34EuBqmP0qqZUXuLL4ChHgJUal4MUDfDPhAhMP5TybxCIOBgSew+6iOxC/VoHFM0CZNjeOxe/g37t/XxDmtfKBuLtuinMxPBL/Ny/M7orrh/d3c1/OT0+XV3vr7/5dnj66vAfMH/8G);lineShape=1;fontSize=8;" parent="98" vertex="1">
                    <mxGeometry x="14.620765444979043" y="36.07727331006748" width="2.762856665606689" height="5.724222865907123" as="geometry"/>
                </mxCell>
                <mxCell id="106" value="" style="shape=stencil(lVfLctswDPwaXTEgwec5Tf8jM3FqT1074zh9/H2hqrJF0FonN5natQhgAS4HeXjbPr1uBs9v59Px++bX7vm8HeTL4P3usN2cdmd9GuRxkIeX42nz7XR8PzxPv1+fRuT49OP4c/yH3xPPUUgjyfOfaYHJl38LXyf4fndYwIWyb+Ceql+HZ/vvmTyvwx1TyQ3eOWIBhEgxtoRELqwTNN7o2gA8JfAFXyiXhiBMAmKQTI5bQqECchSSJYRMJa4TYiSpDSFmYrdOSIFCG0OKVEEMWYjbMudADLZUmFKb1uJgpYvuuA1aVxyIoarQ2qB1JSFCJpGWkCgBaddKpY2hFqoJEmpoCZUcqLRjtlErQwBj/ES1hHiH0H0hg0KMr6MlIPWNG+gId9IkrZgWeVhjcBd1RaXTDitdEBUSsuvShKIulLq8RrylmC1BMCF1W3KYYGbxmDeU1jLnZCHw//N2rQ5mMtXLNFwttXQErA0rpjJ34Uflqk2KCX1D8J2u7sTngTRud3XALdQPjgROrRujqd5LU+q0UcExN+64i6GiDlJtdPqGBK1TPzfQli7S+WjQnyak2etcCBlPV9cVTmaHc/uYi5agxxwallkbwhA8MZBGdjatelQX0KNJbKVTmgfJbbsRZr+zsBsFFC5E2w9BZxsIWqJtOanYlGVKbdDi5lF1m6CerSWokw3oqA7WY6mxrKhFKXXOFbk+lZ6pM5zd3hppNeIgQUyuhTtoTHieiNdLQAXnAs9u8wpHbdaNR4bDjme9X+EB6JnnyK5wgZnx0cAdmFpsm4Vna7ICj8XC4WZyBwciuFRlAQd5d1YECgdVddamXUS0Av/UxfEuXB+ud9SX3X4/XXGX7+2dVpem+7A8/gU=);lineShape=1;fontSize=8;" parent="98" vertex="1">
                    <mxGeometry x="31.480671573562574" y="24.759409420722818" width="9.167497400295328" height="10.622496248410195" as="geometry"/>
                </mxCell>
                <mxCell id="107" value="" style="shape=stencil(lVlJbhxHEHzNXBO1L2dZ/ocAUebANClQlG39XtEeVHsqqjsE3rhE1pIVGbn0JX749vjp68MluG9vry9/Pvxz/fz2eIm/XUK4Pj8+vF7f8NMlfrzED19eXh/+eH35/vz59vvXTxty++mvl7+3Ff692fVsIW1Wwf24/aVZav/94fcb/un6fI93lv2EL5bSOb4Fa3nCZ/Ni/VqttAmfrHuB95YLre/yOb5g+0T4LM6fm2VH9w3iPDmYi4Tv/RyfsNyMr9aFf5Ln8/SxwCE+Vqvzfb2z6oRBtDI/mE+DIscGwXyfDZp1tQNcNBuEYEn4FAZlvjOcWvQd0mwQvfZSsjh7KeJdgjDIvENy1oswKFZnt6ZssQqDZqHOBt28YDYOQEcCF4M40naAOdRykS+N9RrFTtcG1RqJhRv0PY7OOMRnN/DWxQ6lWwqzAfir9ALyQEfK4+2PBcxZJINqQURoww6kGN2iuHRr1uZ4gKipeOh+SMRugEsLtnbQm3aAagsuISv0+aUr7qB2AL3nd4DwR6F7MMjzHeC3LNiKI6U5gOC3Ih6uR35p+E0pX+tD2XeDNNh1bABhJC2GLomYXpNbb5JLYE6nHbo28JxOYNBUiIJL88N55waBj2UjcMhtWyhxjRY6G0RxCaT8nNhNRXDDgzq0Qx0xdWzAugR2KdXwnLG6Fu+lSAKTusT7yPgk8SQxILtKuev60aJ4MqQSui+kX0QC/FMZryIHgbisr6rCwGKx4VXFYLEwXuX/ZC4xPkt8XtZX2T9ZK+x/lQf3mveOD07wIQ1hu8MXef4wayn4rP1ZAuOTuC/YUhmvtDos/MmjCj3hT3zXedyiu7iv4KdbVDTJ8yMeA+Od0B/gVz4I/6MGofcKsktwC9+C7HL8IrhBFnZh8f+v4tH7Ba+K33fifTG/BoAIsK1LXBikimUksbyEjJLELU2ST4vsTJGJ1yDrYgfU0mnJYqrmKmjtF1qrNIBiec0bTtW+bvz7vuYSl257m3VX1WXx0vg39VGoG1VbtFXXtIMfI4CzI1Epi7JNJSesl+ZoqzqasR7Jb/Wyfq+BWzsUhop8aFHcvAPePqjGy/ORCkpZwaWcl04tyw4B3WuZcz46taZyZhq19G4QRtCeNsDUz8JLakxQR8jvBnU0e2djAqrrchpd+ulshDpmp0cdbuSZvesvstIMfQjjbqAjbpsvzTEdi3VlUDh5Rq8N8ojgfVxTZbbdyiOa7wTZMW/10fxwXtf7uAMVeD6NlHps0LjC9l4PhBzPOSFUmkp1vkKRc9fYWbuTvDGih2RPjwjAS5opBJlAESmUDzXtSho0Hng3eHg21w2N8Co/18a9uO5i0btHxkexfut8Hj1RRKKkFjOMnuoY31hakuxI0UJTxZNkUAK/zMnlfKZzCY9yR/DzbmpwR2hBOGzQKePIFhl4TsvaoX2UNneDdTVfatyTNjkXBN7zhxM5g6s8NsGG6kNL4fTXBqNOR3aR19f49334+SUeP/z/lenL9enp9pHq/v/8VQp/un3Rih9/Ag==);lineShape=1;fontSize=8;" parent="98" vertex="1">
                    <mxGeometry x="39.19464330298473" y="37.98686767684086" width="3.1710393426934993" height="4.382051083417425" as="geometry"/>
                </mxCell>
                <mxCell id="108" value="" style="shape=stencil(lZfZbtswEEW/Rq+DGe58TtP/CBCnNurGgeNuf99RDSriUL5G3mT5XHJ2UpN/eN8/ve0mx++X8+n77vfh+bKf/JfJucPrfnc+XPRp8o+Tf3g5nXffzqefr8/X329PMzk//Tj9mlf4c9XVSsnNKsd/r28ccfr/4uuVPx5e13wg6flEtd7mSyJfO148FX9bkCvV2Asq5QgEQoV7DzIFd1uQHPnSCXyCgqgC6QQBC4LGMHeCmCiDqPphh6SCfFvgPEXfCXJscdsUSCJJnaBoHlCiyYWOr0KRwQYtSQuvaYN8KJavkDf2CzMxEHArs/UGBfFRLI8CxOQGh1NAPA8Oe5CxxbsVzwJ542+hBO03AVUe22MaWXkGnc+UjL+ZKmgaad6teBR/IR+G9UF8pGVnbT9oMR0reYgPWF973g3xB4NumbMrvkJ7qol/hfbIRv0nyMehPguoZyGXLY/7q/bxv9/AaWhIlGAt0MHhDApOG2DgA27IwR6B61u+UIYBkoHH9viBF1BAn+Vzs3bhGTdMoNxvUBwF1DGOpB9xOVAAO3id6X0PpNiqcPsg1hrqh3SM7VzbPuq5HULLUR/antuXCbZt6VWArivcYrJcVyK+EBWK5uQrsO5KtCeHaKCB09XZUa1BAoU6103fOXoWghjNgzMZXoDH8+AUwzPmS7E8GCxz31p7GMWn2pQxjmdtg/+D99ieYtePIMHzHAyGR5fF1aBdKgI6vCnwKANqkTd8uuOxXR81zae/Uu7y+vDxSfRyOB6vX1Tr/+0nlL66fn75x38=);lineShape=1;fontSize=8;" parent="98" vertex="1">
                    <mxGeometry x="7.365641432043958" y="44.66673110980037" width="6.579056345954565" height="6.329143877144481" as="geometry"/>
                </mxCell>
                <mxCell id="109" value="" style="shape=stencil(lVlJbhwxDHzNXAlS1HrO8o8AceJBHDtwnO33oTJQp0VN18C3cZvsprhUkdRJ33y///Dt7hT4+8vz05e7X+ePL/cnfXsK4fx4f/d8frFfJ3130jefnp7vPj8//Xj8ePn724cu2X99ffrZ3/D7otcqxdK1Av+5PBEl5n9P3l8UHs6Pe4VMwSkIpQQUlJJTYOIAFIQ4TQqVWj6Wr4VinuQLpQjkA9U2yWcSOZYv9n6Z5CNlcOAi43VDXofLrspnpRIn+UDSjuVToqqzQykB/8RCWZx8AefVRlmdPbkCeTM3ev+A84ZEkV28CoiXNErOfqEKAiD2/TArZGrAIkvINmdcwEVQSecPhEYFhCxTnjNU84jh9RBTmUsmKjVgT6JUJ/nEVOD72xyxVEjB+83a+byWswn6J8z25DaeHAUgzAaVSBGFeEvJTaGRgBNL8kVQlSJSaMTzFyr2kVVJm4PWeITxukIhmb1qUJlBIehW55uCBRIgqVoeOQUMjb305zgYPygIXLRDN68QkULypWAmITQy9FL3BWMgELi4WbwpRAogcKZQ5uo3BkogcP0LM0BWS3hQ/naG6BjN0hvEIWbi+dCVB2heV4gjmbd6MC8hUgielUuA9RDZV1yuVIGX1P49V1y2dARnMEx0qJTDwOWj9OaZSDKPhD9iqjZ7KVmVozPYoec4GFBWEDhDPlGvgJodg2JHninD5OvkXb1CBm4VM4lfY5LRpy6HRkBm6F3dGSpk9DLyYBcGJJ9Gwe/jDDBDPLBmgR2e+AObfIDyeXm/gvoXT+cmnxH3+AbP5BH9y2g+doUjKGAeg00+oozwDbbJZ+z/xR4UXx6n28sDEmHP5V0e+JNJ02I/8CeTLPIIfW2e0cX/ALh4wS2BUMoDpPb5A/xv3dSan9Cfjp56/sPzliU/BeYnL/YwrBeV5f0wn9Niv8L6Wu1HI6ws7a8MbjuSX/KTUfs70Gwnr2giorTkG7Y/rPWI47XWI8zPssrD/H+dfPTxNb4QwPNl4dQKJ3BZAMIYD/WYRpEuo42EIWNY2+BYO42twiHNO5PiaI8Op+roFRCoWKviWMlMUtQ9yRjrd4dW1D3FJQ4FDu7WAbrC740B7jFXZEdjoHWxbnuVI1wuxbBwWYXbGevE3fanCNwN9F7fzb7p1kTk9kU2+6IxMLaBnrvxA+FvYt/F2oBzQ8Exso1QFS0s2DelNqShFY3NXNkpFDxoZh+41vAYGPwSSJjhFsim5ZD9JyqqoOT9atMynHB4GU0NmIBCX2VG71dUcmuv2XAv0pHMLVJugGscyLjLvoDYbWs+dvmNKqguuyBc09njWG6joT8YPzwE6BgLD+hKl4ELtV+6TKV84/0ui6JSgfa7fbrhLNreZb81Cg1GeNnPhgCTVNRvaCTBgNkI6zfADAeovoF2EwtmqoXaFGKFVX70K3XU8BtkuwUtwwbGmNjtEjESGYmxOHnkH6OkxM5+lEGl+CsThQ1t363O/rcWDrzfIMQxVIK42DHKlTxs+NvSQW4ZdV1+WdgJw0WRAb+/Y8E7RFNwaxzBITAFNyQLXgp0BfeFgKc0XuZS01DkpubT1BRQnDs/LjbdOLXrdWS7vTtScDvyfp+JUqP5FtIUUAvZmoffroBCXZfIKax+U3Bo1BVQHF59iXtbwX78vzP+dH54uFw57//v75jt0eV+Wt/9BQ==);lineShape=1;fontSize=8;" parent="98" vertex="1">
                    <mxGeometry y="54.389970165216766" width="7.985227190974911" height="8.649178634865772" as="geometry"/>
                </mxCell>
                <mxCell id="110" value="" style="shape=stencil(7VnLUlsxDP2abDV+W17T9j+YAUqmFBigr7+v3IwvsRSfwEyX7ELQiS3p6OldvHi+vXy83gX3/PL08O361/7q5XYXP+1C2N/fXj/tX+TTLn7exYubh6frr08PP+6vDn8/XnbJ/un7w8/+C78POE8+dFBwfw5fxEYl//vmy0H+bn9/JJ8oRC2f2lqeqbX3/L6P5L0G1AIATDlpAMc1IGTy1QCACjEQFw1o4ITkKRgdGtAhiU2MFxq4Uq5UZ6WTI+fWgJIpOgPwa0D11KoBBACoVLwBACtxIJ+NpxMAZMoKwNBxbKwUKyV0QiHPM8BRAo7jNMg/AEFOqFDpqACJPLLSZvUN4GAAiR/yrIOv5MCVaqakAJEqAph4EL8BN4h8npkhSQFRL+gA5RFPS6rO3K4UEVM91dmkhQJD+TLTSDIIIEWXn3mazoVanfUNQ6GlvsphWD4M9V7lISGC1hcHQY3ktLxDfIgjRI7k0f3jiPJXeY/8lbS+bii0zFxZ2T8A/khIhvk+iRjJm5JWiQEfJM+12Z7eUUMHMNU5AHoEA4s2T3Gu4r5QBJRokYo6gUd9OA3IgzKbTf2oD6cBkqQUII0wPQ2QvkMVWeEJoEVrJ1oRZFbvNl5ujq6D6qsjVKbLkRpI1k0K2Ey94rAjWF+pFGLk6qLJ1MMVAfIg8wZgKiD8W6I8X0kIj+JByKQKvxA4oBoo/dmcMMQMAejAhhvimYDqOJuS1iCZ+o0NAAWE9CKlakAG1BCAN0qjNCbNCyulpQ6iE4ru2LrvUWKygAQzMW/c3AAB61BHZd0AkqowQOXu5obvl46bUx+fcRyPaeLoBIfMKuRzGgCVboZ8kitBAZXf09SQmEapz+nuXxxXUJqREjdnDckjAbXaJrkK+VATKQDVpgq90YwkAKc8LW0nyhqsS9BRQl+RyWaBimNU1dHGcG6TgGgmRmHvUEbuPXIEDIhCWTkC11EBVHWliCeSqicSoSt0xHsBna6z0iwAxO+grSQ9IIrR3s/M7CsMe4EeL6ruxlHrV2VU6dBndnSlMpL11myU0RysAHp+ZjhniA5N7TECtpIMqzM1pHOFvYMbjfNREwfnZ0nfcwBJmwhH+jSMuAW1VHYUot4002X0K6engaY3YtJMo22PUK2q8crBdua/zMOAqx/z8Mc8fHYexoRW20gPM5fMzyoRldE9rCLMqdI/NlCrEM5qWsUjDCfdKkjMF1wDVR0XE8HWmXWyFk5DQNPNuQRxxh2YmnliHYvu1ZXU7jLF0WKt1gyq8KeEV/lhDF0bII+h/a0r4a0qvnXpjAEn1toZzs8nFucCAFayq3kBJEA+u/zvAEA++7zQAYBL9gGjA4Dj7BNJynD2tI8wAkApw7zyiDxa5ZtXJJFHZd+8Up35fafXKv3+QGGnm+bOCnCfbUlzFDpoiJQE3bQ84oTTy7CEV/J2URVhZFr5MDLgSl7pi7d5Vl8HhztrTzzFG3+deS8zfIh4dnzvq+h5efnw+gR7s7+7O7zgHv9fP9nKV4fn3vj5Lw==);lineShape=1;fontSize=8;" parent="98" vertex="1">
                    <mxGeometry x="66.20280427503934" y="31.143525697536575" width="15.31566023137957" height="5.661031152327905" as="geometry"/>
                </mxCell>
                <mxCell id="111" value="" style="shape=stencil(lVfLbhsxDPwaXwlRlETpnKb/ESBObdS1A8fp4+/LrSHH4u5Okdt6zVnxMRxSG3l42z29bjcxvF3Op+/bX/vny24jXzYx7o+77Xl/saeNPG7k4eV03n47n96Pz9ffr0+T5fT04/Rz+sLvK65RKBMohj/XF0wl/Xvx9Wp+2B/vzDlRjYO9UonAvhGn8ftCCgAxUh0dioGSAkChXEdApQhOkEBhBIhSZAAQim0ApAxjkEKsAyAL1QYAleroUokkoAzJquQArX9iGaCUxzrUQFrWATn1JN4AiQLIUhFKjhmNCjhBI+kYg72p4ITGJDwGnXrtlwHmUvWACNLaMhXxAEUnWFrHoIvVXgCgUhupUSoxyFJrs4YLVDIEuBNUIJcMkMagNVNDLll/OQDuuGYtOhbOqNECACRK2bO1IkCkWGYAlKVAXD0ggMLVSol90AmktSrxGIOWnrdlgGXJpVWgFhugOJcCNeySuH64RbUWtDq2FhJU6dCnwV0DIeWzwmn2gIjIl6jNWjQjapQZwLocASpl55J2aVtrIFcHE2OkGhyMa8FLHyLTdITTykyMfKpUxpmlN6laUzJ27Gs46tx1666DMir1ZwGafNANN7WNIA9QaoDf2Qb/WOq70izP0eL5OqkhWE9st1A3eE370C5wWxVuAOltu7bPuBMm/QYAW9l0LIQRXEHQMfs05Rsf15Y4t5NlpgqyxLMZlAR2NZsOjcokubftMkC6vN+tiQLkeLYwcaWANmNfNmY4RdlLAIdOrUX7QDIWrfVtaMU8uLWBFEQ7E6RCAZDUnBnNbWBDc5cbgbOWPT8ZyqltjWOl7DjwdVtj1Zmj5SWTNGeOBML0gZ05A+Jr58iHOSrTJ29r/zW3h4+L4cv+cLjeK+//9xdJe3W9hMrjXw==);lineShape=1;fontSize=8;" parent="1" vertex="1">
                    <mxGeometry x="314.54736096605507" y="214.87596220146025" width="4.643704374807112" height="3.7614575949243316" as="geometry"/>
                </mxCell>
                <mxCell id="112" value="" style="shape=stencil(lVfZchpBDPwaXlWa0Vx6dpz/cJVxoEKMC+Mcfx8RapYdsTTx28Kqd3S0eqSVPLxvnt7Wq8jvx8P++/rX9vm4WcmXVYzb1836sD3a00oeV/Lwsj+svx32H6/P599vTyfL09OP/c/TF36fcZkknECR/5z/YIrl3x9fz+a77evMPDDVPNhHKgnY2/fjYF8pZGCv/XW3D/gAO7+1EaBUIgAUCqNHsVGqANCojQCppOE2QAJFHQCpUlIAEEpjDLmSAJckUxwBpfQ0LAOKz1JN2CWlxgOg2ZlyG5AS1ZFILVAFTMrT68mlTAxiyBbDeEK1TwBqlEBlrEMxdoEYLIm1joBKDGIwB3SMoeR+5iLAcsJpBERS4JJGyo4ajQIIWhOF0aUTl0AMmj29DZBAA6l9T71LEQStzdchKykDgFJWnyVUh8BMPNK1JMqgg+wI1xBWaphX7fSfkSmjNLXOtRldEypE8WmqEfLbKseug4QiApjOBH8CUjI1fkcfQwU9qtw9nmVJQdDNXquvQ8GAetVyAZGJfZaMTBnVgak5FWASdELsDswaApJP+g01a7mMVMC0t3qAoMKZVqoHwEo3f2dZj8KmVhJX6XAP4LhUpF8ZNwFXl9ydE7ITgdYF/VbQeYyhMrxGTfrieII1kCCXPguo5pJrUUsDiMH6S8aBqcWehmXAVYu2Avshix/hjPDoRkm5jxYToPXaLw8b1dN7Jui3RiwZxdWkStDU13yaLNMFDKI2JjYn39PouwzI/uK1hkAtF8ULU8Z6b6N5GbmRTEiAbAS7gsZCXAbHZcB0HUyzsU3foA7N09vmfTTex87l/53uia+2AQZlNgly9gHOlOyFWGH/sw8Xbw7XQwkpCJb9bJihVLBvAemaf8Pc8dlkAi1i/UKaMkkJUC32feWyRha0InlJ4b6ULSvKtTlSh0/utHfN7eGyPr9sd7vz9j1/79dt++u8qsvjXw==);lineShape=1;fontSize=8;" parent="1" vertex="1">
                    <mxGeometry x="381.59880507214405" y="218.7986710820005" width="6.024982117988747" height="3.873011004147429" as="geometry"/>
                </mxCell>
                <mxCell id="113" value="" style="shape=stencil(rVfZctswDPwavWJI8MRzmv5HZuLUnrpxxnGvvy9UDR0TlDdxp286uCKwwK7AKdy9bh9eNhO719Px8HXzc/d42k7h08S8e95ujruTXk3hfgp3T4fj5svx8P35cbl/eZhXzlffDj/mL/xacD5TLTOK3e/lSSRJfx98Xtbvd8/9+tSv95FyBYBEpQcwU/EAoAH4DhACuQIAgYT7FPRJAABurxsgBYoMAbUPKXuqKGm2IRVHxcGkfewBhTheB7Cj3AOqBpkBQAttAJEC2CHkluIZkCjJdUAUcgZw3nMVkBLl3AMKRUBrrrb5FCCgcCURpx5QyQGAaCO4mwDKibeAAJpPyrCDwEpLtQoVrT2QqIhVnDBFpDjnyPUxCe4N3SL1zSSZGGVdKfaSUx4qaCb9XjUhSZPIOiBajSoACUJJycUCBAGU9mGHCELSTjCSUxoC2EG7OSVLawWVmwXWK0hpEOCVdbB77XgHCrcSkicGTjYnbSQnTeZXae29sp5lfrVw1QIcEoS2xrCDRyFl20tzVsCY5vY2lXbkkR5GAfnW8B/WaKCMFDTaQGpMf9RoCgWUtb4W298FAdQsB1HDHILd4YKH/4TQf4TPNigBsta/UEgDAPSfDgtx3AGElOJArMCZKRYq0QIY1DqkJuKL0nkgOg5tfrmwpoIGxUDcq1RLk4AkkjUatZ6KprgW73likkbC6vpBPzqSIV9y7a98MfNlEI+zVpyYPCgytzHhPLVys6n1klHpeyJwm7eu8Gm+z9hhMvme/3cG+2R9Hh8cMjkz1VMB7GeKfbYMyS+2WL6Nx+s/qTastOWuJbNuKm18elvOwLW8s1rBDqSnBce3rFePuymeaMnE6eqRLdYb2NQzoWEfF0vXl1t64R/OqO+s14u3A/HTbr9fztOX7+0BWh8th+9w/wc=);lineShape=1;fontSize=8;" parent="1" vertex="1">
                    <mxGeometry x="368.8741096026446" y="237.2242932710481" width="4.68590227926079" height="5.173980920175017" as="geometry"/>
                </mxCell>
                <mxCell id="114" value="" style="group" parent="1" vertex="1" connectable="0">
                    <mxGeometry x="423.8087820242428" y="209.8088167528937" width="81.51846450641892" height="63.03914880008256" as="geometry"/>
                </mxCell>
                <mxCell id="115" value="" style="shape=stencil(lVfZctswDPwavWJAErye0/Q/MhOn9tS1M47T4+8LjYa2CEWb6E0HliAXi4NDeHjbP73uBs9v18v55+7P4fm6H8K3wfvDab+7HK76NITHITy8nC+7H5fz++l5en99Gi3Hp1/n3+MKfyecdxTqiPL8b/riyE8fvk/2x8NpZh8cCXf2iYqs2wtT7e1doJQAIFOOPaBQzeuAKG3DDeAjZQBIjlzoACFQZgDI5PoziKMa1wHZUSodIDJFDwBCqd9SLFTAGbKy3h86JcogDvm2XgNkPTTYUuG23g1QqRYACORTByiRPPKQbRxKJQbSqJVC76FmCm4d4JiJ2SLqNheFEnCh60kfCF3CAzFVaevNAAmIqWoGLTzUAHnlPnIzHtZC56J1UQBNKgUjDgVAgWusswUw4DVHStUGQsAZFCB9zmloYEYkimIBDnkorazcALoEYKlolRALcCDUmjDZaCO2JT4G1AVLGFADSdqyJf1tKtN4aAQoTTlfpPWu5i8GTgGWJSwN/e0XakXiUxJTsgAk7+rJb0qgUij0Wvo0R4VkUTdgGWAqbAGo0GiO1oUHVMo0gzjaQKBiuRmQxDZSVXxEAE+lP4PmlIDI6TCQfA9gckB9sdotaSMtoC/GTHHRqiugNUZyZnrAfTF6S6uOGwUcWmcskxDiW99bneJ6WoNAaehEFfsM0jkReRh/m6Z1I/pjAJMYgLQOsDIM2NKXYdzUvCdVKQLptpg0HAyyisyO3QLmPbdcnUEqezvUM+RSY5mNeUADtG2cjFtIE+/dnIE4nWvD+MweMKlh98XaIx1oR7On9Yh6bfvB2EdQIEbyrH0BN6qtN7DP7fXhft17ORyP021x/t9eD/XTdLUMj/8B);lineShape=1;fontSize=8;" parent="114" vertex="1">
                    <mxGeometry x="39.360975110013214" width="0.696363426043542" height="4.191529248466171" as="geometry"/>
                </mxCell>
                <mxCell id="116" value="" style="shape=stencil(rZfbbhpBDIafZm+t8Xjn4Os0fY9IIQWVQkRI27x9vF0tMB74UaTeLcvnWZ/tGeThbf30uhpieDse9j9XfzbPx/Ug34YYN7v16rA52tMgj4M8vOwPqx+H/fvuef79+jSR09Ov/e/phL+znCrVcZKK4WN+wxTk34vvM7/d7C75TCU1vJBGwLPnK8XxNl8LpZbnCBWqkTi0AoUYaFQSSW0EzISx3BbIhUr7BcE+SkrCrYBSZiAQFgUWgbEuYbkqMDIlbQRSJdbbAiLE0giYVTHfFoiJYusl81sGKnGlsU2kKhSQAFNtjdaw+O16HJawnvhECmyOlByv0ILoLZ5qA+jDpKPnFaSFxUw6HujPPrHv8IGyfkUf83bq7A2IZ+78Cc8Pnf4j5jv/RMhzZy9KuK7I1IqsIt51RuML4HkpqEseFQDl2vGoJCn0+ifES3f+nXrp8p9BX4yUu/wRyPfnJ8hL8XyB9obs+QrrK3fnK46vm5ThlOK3EqhrQAoMsATtDYA8dw7NsEGETp8E9e8LWHCD6M7n/8gLFdcg0jJzru8eS7s5TaQ7DT17g225SKADWcrVtgRsSDIQkK5H5wx7hC0O3H4hlSVtr28G1XdRe4Omasp+DNs3A1qHku9zZtUI6qbEJetPC1eEjbeo7ywWGRSHmii0lWDLxQiMtkRwNphXQebp6MMgsBLUVtD2fBu2oDKNF89HUPnG5+h4lHfGu13Fahudb0u6eh7ZW33E7vDqKy3A0T01HvH2Rshnfz5aJc6b3kW8QA2cG/mZRwl6MSnOAgU7SH1CVKzQ165xd3l7ON8ZXzbb7XzlvPzf3zHt1Xw/lcdP);lineShape=1;fontSize=8;" parent="114" vertex="1">
                    <mxGeometry x="32.9351684376997" y="3.8418365134544388" width="4.959462242138152" height="10.418283187050411" as="geometry"/>
                </mxCell>
                <mxCell id="117" value="" style="shape=stencil(rVnbblw3DPyafSV0p/icpv8RIE5t1LUDx22Tvy/VjTar0Z5xAxTIw+ZYcySSIw7Jc8rvvtx/+Hx3SuHL68vz73d/P3x8vT/lX04pPTzd3708vPqvU35/yu8+Pb/c/fby/OfTx/P/P38YK8evP57/Gm/4esZFFYeMf+Hb9yddVP998usZ8PjwdA3okvIKKJKMAExyWwFRUjkGpCjBFkCXksj6LEWX9VUskvUNLciixIBkUsKyPknMx+tzkra6NIiR8+cm0WB97GS9Sa2wPoTj9cXP02F9If4vdbrjh72B2FucEat/ilTi/2Jiq/9VKrG3RomrvU6gTAxwgK0Him5SJYAkaWWQu6gSkx1QVpc65yrfoa6A7FY1vsNKIqdJ40cKEIVEaeFeymsYilLe1SBpjUN9kxhlvfm1UbeWNt83AS1Qo91EW4/Uygzl7bvTpcMOygFF4hqHZpRLnqxsNVojB2S8zponu44ycFy5pJVGOuYN0CQTgCvASiVVfh3wgmqnJscgvawZPkwZug1Q1JAepRMf+ZFA1rq7mST5nMVAdOpk723quVPBBj8k2WEkGdjBaBpz7vc1DBap8LQ+dfUC8NRPjqQFs5K5G4hb1fD6WJl0v82kgmnMqjRGPbehIcCI0e6TXDcAscEUIz0AxEvWpYFbXbGJwJkh+RzAKhgHtIaAzo60SahbRXNGCCgPbhYjk2/RKwKUhNoB31X/AnB+czfhkTy1Mjf1ecGuAIx97hTNG4D51RVwO1JnNrigNQSw4mpQR9GtrDoc5GwIYMl7AGAHlUaysW31pwMCt6ECgOv6cOt+g4jqjsApApjEuU9K3gDMaJsmXgFYGzPove1A2erM2eKQfvKOKu1kBpsh0XRaho5EA1bbDM0RAEqH8QoeiLbdIGMAxRLuyg//FyLOfH2daQj/XMp7QgDL4F5ddMNIdHIkV1LU6otZtwEXZf6PGuGFLbShQ3pZ+RBmR3Il7kwivINocCXSvIZH5Tp06hYom7wqyyubvD7oJA7eehYospRmmtiwk/O6T9mNwNp4lDgkbkV0pZ5TJZH1Ww7ob3T3uF4v1fhtHolCL1Cm5t12UMIQaKL11ZgoASDSRJkSyroGasKYF6xE9co384kM9PetzZnO0UgGahnvKwNrHwxVusUZ+MOhzGp0vZSZtwEFc32tNHBlU2m/r4nEoWwJw1+hvL+HwqFEmlbLptJjqMGO1HFGkSNtstwGnF1VmiWLbqOfSAsH90lbAZ5CaKTr7FQvAH6BRqRhB34fxhQE2Dr7iSOyKlBpNl1HMxAIW51J5GhgiiljlkKHzfo24GPC4xkD2tDor2Aj3yRhtTjyVsNJADt4YmZzIgfUhADWLu1Tbn/ClGqMJDsC2IRiSElCALtt7hOI8wCwOU7HHnG4gQTOAXk7Equ6XUx6Q7eydskBNSCAeSluCSDaWzvEDZCZl376E8vbAP/x44vOp4fHx/MHoeu/4xcgf3T+epTf/wM=);lineShape=1;fontSize=8;" parent="114" vertex="1">
                    <mxGeometry x="29.853168081585466" y="17.37684522214977" width="4.553714106495566" height="4.617696434549599" as="geometry"/>
                </mxCell>
                <mxCell id="118" value="" style="shape=stencil(lVdJchsxDHzNXFHgTpwd5x+ushypolguWc7y+2CiojQkZ5rxbUShSSyNbXIP7/unt91k+f1yPn3f/To8X/aT+zJZe3jd786Hi35N7nFyDy+n8+7b+fTx+nz9/fY0S85fP04/5xt+X3FMMc8gy3/KgZF/B1+v4sfD60Lcko2VuCUx2+Keci0eKYRt8UTWVeJCEShjmHytvHHlwXWAp5hqgBBbABCSUNsbiDPwTyRrK4AzlN02wDmytQ1OVUrApUxSA3ykBGzwmaQ2OnjyfhsQEhlfR80Sg7DFUDhzA0jhyXqcbcuLFEgYAIRSrVI2MNI5UKqplBMxiIMYCqbmniEBL0gkX0daTxi4VYRyzSU9MYBL+re4FmAHgNwCPEhPw0zMLQJl6OoTKEdXjciArqtuEgxIPQC7KdaAhR+2EMF3T4Aknf3e6ZSxm1zn14SNcJ1KEUfOdYEI2GgXW4BDGSFdRihfcUa0OacZgW2IPQAQfHZip9IAkHvAICE6lQZGN+V44NaNJMWRE2kBA25IR9cB+3JH1wG/U6fSIIOaweR/krTTaVAHfA/AleaTgFha+aJHZEQ/U8h2A1jY3LXPufoF7XMJBCJ1hSZbiuAF7dW+jlyKFAFfo29TKGnggNFB55dmStT5AERaJ5om0iHATqozUwPwqRTo9alMFajd6gS6VcfCXOeoXhFAGTBd7dMrUMrp7GprgF6RgJdMVzb0CqRSbEcmvcGhSZRczdVUZt91fcqccPMQBSDOZc6+LyZojuYy3d3FUd7cGHkXj8CXnStvm8eWuG3EUYXnMl3fxS0gJ5cOtljZsHjrSLRfcLvhMdyQuCUBLtJcNo+FOCgNmrdtVNGIze14wLDZf3L3HYrrx33Nfjkcj9ctffl/u5br0XWld49/AQ==);lineShape=1;fontSize=8;" parent="114" vertex="1">
                    <mxGeometry x="42.59631924620419" y="4.650040894754227" width="19.651731291714178" height="14.606513421361047" as="geometry"/>
                </mxCell>
                <mxCell id="119" value="" style="shape=stencil(lVnJchwxCP2auVKSEFrOWf4jVXHiqTh2ynG2vw+dKfW0oPvFc5sF1Ah4PKBP/Ob7/Ydvd6cUvr88P325+3X++HJ/4renlM6P93fP5xf9dOJ3J37z6en57vPz04/Hj5fv3z4sksunr08/lxN+X/QSZV6UUvhz+SFQCP9+eH8Rfzg/bsRjoFysvAD5Tt2eH8H5qVBv9vx8LM/i7UHn50y9W3lwvmSSZOXrsXxhEnd+P5aviUI08ikC+U5s/ZOB/U18fBuwp+tx833VwATk8zB3yGd4316G+4Z8HQ88lJ/vGyNlEAA1qMwGRaGOFOJwyHrjQL0AlzbiMCsUYoCBtrpkKHCCSd00Z+YgcCUBCrVQmFGQE1WURolEZoVKCXipBuL5CaJeAiaVbhNPmBqItD4hzoGTQoJMEnsHqbB2Nba1QhoEW6vE5g59uOEolwyaSxyROYTPDActICiXFA+mfpUyKsK+QqM+Z2vFFb53i4fKEA8xrAeuGg0XgW4R1BIlVAU0TrNNrQxPH7ppDkTrJAwD0eZQd0UQukOkOhemrvmIyoYWutmkXqmC/G7RmdQpgTsoIEzpW2IJ3KoYNfm9ieW+RrTZpI8o4NbKnylZhQgilwuVPCs0WPu4U2jWryhfOQ4+2Chk4Ncko5auCgU+4dojbBQKCLVSlEGQKiBaL1SLlWfwAL1BtvIJnO/RoCQKMimPJmojj2idqZqs0CeCvGMqbOUjCJlSjckJrf2gSmZLVor+DrJUhvc28hlUi2K7JJVPoMzXnfMR9NuePaigOswkaqieUunWn4gIo6MEDRhkHdv2L30c6tqomASSwSkHDrLny0jxA/noIA/7+DF1bAEJHKT05SoEw4Tz9qC5KxM7QBYIMA941PfvARLdl13B4pFSB/Zb2mAKUL7PvaAmdIH+bNXKI/8Xx3sJto63yisDiEOwAAXlGOvRBCc7NSk7lzIKsRrgimgDmFQmttSdYTOrM0d0qK+4m7BMLHDcL8mOXkudQC1Rc4mkCgj4eeBqaxKaBnn8/Uq3Ntf86pCOyFj/NtPgMrKiGSEOn6wKAumpO7dqs1pRe50s4euIgPB25dNVAaeG3sFUpBpH/h55yXCmxr6hqbzYEbgInjejHePL6oajXDJVW/tt2AZWO2/qgNoQ7bAlcpHBpPsKbkCVhOd+GU5cNwsdriLU62YqzzIwuO+lOJrvVSFiiMqYgtZ1Cu5+qxayGaIcYOAU02x2SDII/iiXTMMZO2zAFMFmr7jMDCC9m1u8xggRtyjMly6QQdvaoF03f6hjUKcGswUb0+crN6MJ7vH85jWNVckrN7sMVwp+c8w3bqYZBsxvvhmOOH6zjs/3m3t8vnsxwIOs94+nJrdYbzmNYSkNAxzX2FZgzM4SG01nwU6vCTK4m23if4xx4hle1RgTKQBHuqsG2Fc7RwZojAtTuC0J8MuhG989/VdcP1xfc306Pzxc3pJt/7evxfSnyys1fvcX);lineShape=1;fontSize=8;" parent="114" vertex="1">
                    <mxGeometry x="58.25644149772154" y="19.804277685441548" width="3.183035497025693" height="4.907569574662503" as="geometry"/>
                </mxCell>
                <mxCell id="120" value="" style="shape=stencil(lVfZbttADPwavRLk3vucpv8RIE5t1I0Dx73+vlQFHcuVJ8ibogwtckjOzg7+4f349HYYHL/frpfvh9+n59tx8F8G506vx8P1dNOnwT8O/uHlcj18u15+vj5Pf789jcjx6cfl1/gLf6a4WqmmMcrx3+mNEOf/L75O+PPpdYsvFu+pMMAniqXBZ6oe4ANJbvMRigEEMCXfBiQK7n5AiZTbLzhHAZScK0VpA/RNBAFClVuOMmVAUvIk7ReC0gZYip5ibQJipARYCtqllqUUKIKifSDf9jk7KiDAdbQWJif3A6SQd22ANg7UII6kHaUqsNPJTkZdctz/AElo8ZVKuY/neZI3+ArxqW2aMBODuWAKqfsAYEgJj10BoAVMwhafwNhpts7iA8yfxeIlQXw7QqPagAYvA7bBZ4gPbPERN8x3eFhv6fJHeJXa2uErwrvS1Ys2hkLHD5ofmXVw2y/Aj+zMJ1pIsZoyzhvMx/a3zjJ2j89unisQaraS9fFCxn7jgaKwlbixALgAvQIlMBCabYcPcKB7ghwUlP73MT9iGqwDCvPx3YIluMCfw6vemwULlMBAqNewH1hauB+QKbSSq/bCgy+4QKVNSe2FgJn23i6Z2gvkuIKj2m6N2ouISHLzEi5mQlkCx0Zyc8aLXYmzRdo3RGyL9okyCii2aIeVsWjGxtQJ9GhFF8UcxhEGVDef7atYwBrUbPi2D3m2tvv4PPvc1Vk7oBU6+qYChm1ez7oVjyZ1XF02eOTnFF+iwQu6GaiUeINndDOo9jTAWr16kw0e8VN7fhiMnOKzzV8wviTLP7rYLGfXpr/ITHCn7gwPj90A5Hc/fVf8EK8P68X05XQ+T/fa7f/tRVZfTZdg//gP);lineShape=1;fontSize=8;" parent="114" vertex="1">
                    <mxGeometry x="18.940240685856736" y="24.658302927882403" width="9.556077865527106" height="9.350953889609093" as="geometry"/>
                </mxCell>
                <mxCell id="121" value="" style="shape=stencil(7VnLjls3DP0abwk9KXGdpv8RIJOO0elMMJn08felasgjUr7HKNBNgezsax6L5OFT95Q/fHv89PXhlMK3t9eXXx/+OH9+ezzln04pnZ8fH17Pb/rplD+e8ocvL68Pv7y+fH/+fPn+9dOQHJ9+e/l9/MOfF1ynUgcohb8uDyKV9M+Dny/iT+fnRbxRjEa8kcRjcabU7L8XakC+Uk9WXqh2JJ/ZyI8n+Vi+UBcjnyNVQfJSrHyjVpE+pRv5kokL8k+x+pROEo7lOyXr/pqptGP5GClYh9ZGBSgUKwVrMQdosRLUrAmsKgGKh4+sDVwpgRNyomRJZqbGACAkNuq4Qa+q01O2gE4VZEFlyskDEohT9Ulnr1JCeRaI2XspA+Jao2BDjxMkrieqlukqkLjOxNZL9Zp+twEyc/0KCJAHidQtoKijQXpKpuDyR60CKimArZdGsCCV8vx5AUTAgxSKDtBnhhwBSvOAAmJJAdI9AMWSVOJNpQCqpKjXLQ9a9gSd0HzVUEBHNmgZ7dsJyK3qE95sQCcIhQ2QEA/aabIHVFBbFdCrB3RwQgyBwhZMCVm9VTIFMApX8Q1UG1DBgGRVKg0aoURUy1y91rYjqsU1iABnALl2qLV8o3DVocSq1CpFxNwWrl3HAFArFeAahBbDhk9ga7QE6jiY2KacOjrfATQP6JjpYm0Y3KOk7n74ETyMydZGRzii8G6zui8AQSds89IAoGjV0lc3lRDTZYbaavSd8p02t95pEDZaB3GIhzJpWkMDq+Q6+3sOHnkpJg9glNN1VvcFUHBHadUD0DgzFNhsyDj4ynYCHAXErzIKgKGxNYj3gD9M0Y1p6FbZiJM54BzasEUr2geGl7YEulfIugcI8hL7fWBpe0fBJFsGoaVyhOuW1HwnIdgD0OQ6Um6jWv5TwDZ9a4OApS/5VVpbECwbiYKN79HkULimORSubRTlaKK4LTVwFFCj3eoX5k5xBHDjjA4baPUbC4FVSccZGN/ZE1cyTuofC8GPheB/tRC4tlgCbrw6W7iFIOPyrQXf5qgu7bB8l22DiLgtxjkJXwE8rTq6qXBE8PUe7DYgeBu4wMm1ZX/Rp6UPFSaungcWuBCoiW6+b3Hm1O1LrOt8tAASOGGEv83RcekEmE4yTVxsyMCtaeso6qUKToh1ztrLrVdEgDD3toVpAUbzFkp9LsC3neTnpbHtopSm5rJH5mx9U3675tNsQ7d2wV94ZRx3e4GJkIHgt5mEL2d1q7UMR5keO/BPdNNhgTtlnKXkGqNzHj2gy7knzmXrQDxZa/GSnv34EuBqmP0qqZUXuLL4ChHgJUal4MUDfDPhAhMP5TybxCIOBgSew+6iOxC/VoHFM0CZNjeOxe/g37t/XxDmtfKBuLtuinMxPBL/Ny/M7orrh/d3c1/OT0+XV3vr7/5dnj66vAfMH/8G);lineShape=1;fontSize=8;" parent="114" vertex="1">
                    <mxGeometry x="14.620765444979043" y="36.07727331006748" width="2.762856665606689" height="5.724222865907123" as="geometry"/>
                </mxCell>
                <mxCell id="122" value="" style="shape=stencil(lVfLctswDPwaXTEgwec5Tf8jM3FqT1074zh9/H2hqrJF0FonN5natQhgAS4HeXjbPr1uBs9v59Px++bX7vm8HeTL4P3usN2cdmd9GuRxkIeX42nz7XR8PzxPv1+fRuT49OP4c/yH3xPPUUgjyfOfaYHJl38LXyf4fndYwIWyb+Ceql+HZ/vvmTyvwx1TyQ3eOWIBhEgxtoRELqwTNN7o2gA8JfAFXyiXhiBMAmKQTI5bQqECchSSJYRMJa4TYiSpDSFmYrdOSIFCG0OKVEEMWYjbMudADLZUmFKb1uJgpYvuuA1aVxyIoarQ2qB1JSFCJpGWkCgBaddKpY2hFqoJEmpoCZUcqLRjtlErQwBj/ES1hHiH0H0hg0KMr6MlIPWNG+gId9IkrZgWeVhjcBd1RaXTDitdEBUSsuvShKIulLq8RrylmC1BMCF1W3KYYGbxmDeU1jLnZCHw//N2rQ5mMtXLNFwttXQErA0rpjJ34Uflqk2KCX1D8J2u7sTngTRud3XALdQPjgROrRujqd5LU+q0UcExN+64i6GiDlJtdPqGBK1TPzfQli7S+WjQnyak2etcCBlPV9cVTmaHc/uYi5agxxwallkbwhA8MZBGdjatelQX0KNJbKVTmgfJbbsRZr+zsBsFFC5E2w9BZxsIWqJtOanYlGVKbdDi5lF1m6CerSWokw3oqA7WY6mxrKhFKXXOFbk+lZ6pM5zd3hppNeIgQUyuhTtoTHieiNdLQAXnAs9u8wpHbdaNR4bDjme9X+EB6JnnyK5wgZnx0cAdmFpsm4Vna7ICj8XC4WZyBwciuFRlAQd5d1YECgdVddamXUS0Av/UxfEuXB+ud9SX3X4/XXGX7+2dVpem+7A8/gU=);lineShape=1;fontSize=8;" parent="114" vertex="1">
                    <mxGeometry x="31.480671573562574" y="24.759409420722818" width="9.167497400295328" height="10.622496248410195" as="geometry"/>
                </mxCell>
                <mxCell id="123" value="" style="shape=stencil(lVlJbhxHEHzNXBO1L2dZ/ocAUebANClQlG39XtEeVHsqqjsE3rhE1pIVGbn0JX749vjp68MluG9vry9/Pvxz/fz2eIm/XUK4Pj8+vF7f8NMlfrzED19eXh/+eH35/vz59vvXTxty++mvl7+3Ff692fVsIW1Wwf24/aVZav/94fcb/un6fI93lv2EL5bSOb4Fa3nCZ/Ni/VqttAmfrHuB95YLre/yOb5g+0T4LM6fm2VH9w3iPDmYi4Tv/RyfsNyMr9aFf5Ln8/SxwCE+Vqvzfb2z6oRBtDI/mE+DIscGwXyfDZp1tQNcNBuEYEn4FAZlvjOcWvQd0mwQvfZSsjh7KeJdgjDIvENy1oswKFZnt6ZssQqDZqHOBt28YDYOQEcCF4M40naAOdRykS+N9RrFTtcG1RqJhRv0PY7OOMRnN/DWxQ6lWwqzAfir9ALyQEfK4+2PBcxZJINqQURoww6kGN2iuHRr1uZ4gKipeOh+SMRugEsLtnbQm3aAagsuISv0+aUr7qB2AL3nd4DwR6F7MMjzHeC3LNiKI6U5gOC3Ih6uR35p+E0pX+tD2XeDNNh1bABhJC2GLomYXpNbb5JLYE6nHbo28JxOYNBUiIJL88N55waBj2UjcMhtWyhxjRY6G0RxCaT8nNhNRXDDgzq0Qx0xdWzAugR2KdXwnLG6Fu+lSAKTusT7yPgk8SQxILtKuev60aJ4MqQSui+kX0QC/FMZryIHgbisr6rCwGKx4VXFYLEwXuX/ZC4xPkt8XtZX2T9ZK+x/lQf3mveOD07wIQ1hu8MXef4wayn4rP1ZAuOTuC/YUhmvtDos/MmjCj3hT3zXedyiu7iv4KdbVDTJ8yMeA+Od0B/gVz4I/6MGofcKsktwC9+C7HL8IrhBFnZh8f+v4tH7Ba+K33fifTG/BoAIsK1LXBikimUksbyEjJLELU2ST4vsTJGJ1yDrYgfU0mnJYqrmKmjtF1qrNIBiec0bTtW+bvz7vuYSl257m3VX1WXx0vg39VGoG1VbtFXXtIMfI4CzI1Epi7JNJSesl+ZoqzqasR7Jb/Wyfq+BWzsUhop8aFHcvAPePqjGy/ORCkpZwaWcl04tyw4B3WuZcz46taZyZhq19G4QRtCeNsDUz8JLakxQR8jvBnU0e2djAqrrchpd+ulshDpmp0cdbuSZvesvstIMfQjjbqAjbpsvzTEdi3VlUDh5Rq8N8ojgfVxTZbbdyiOa7wTZMW/10fxwXtf7uAMVeD6NlHps0LjC9l4PhBzPOSFUmkp1vkKRc9fYWbuTvDGih2RPjwjAS5opBJlAESmUDzXtSho0Hng3eHg21w2N8Co/18a9uO5i0btHxkexfut8Hj1RRKKkFjOMnuoY31hakuxI0UJTxZNkUAK/zMnlfKZzCY9yR/DzbmpwR2hBOGzQKePIFhl4TsvaoX2UNneDdTVfatyTNjkXBN7zhxM5g6s8NsGG6kNL4fTXBqNOR3aR19f49334+SUeP/z/lenL9enp9pHq/v/8VQp/un3Rih9/Ag==);lineShape=1;fontSize=8;" parent="114" vertex="1">
                    <mxGeometry x="39.19464330298473" y="37.98686767684086" width="3.1710393426934993" height="4.382051083417425" as="geometry"/>
                </mxCell>
                <mxCell id="124" value="" style="shape=stencil(lZfZbtswEEW/Rq+DGe58TtP/CBCnNurGgeNuf99RDSriUL5G3mT5XHJ2UpN/eN8/ve0mx++X8+n77vfh+bKf/JfJucPrfnc+XPRp8o+Tf3g5nXffzqefr8/X329PMzk//Tj9mlf4c9XVSsnNKsd/r28ccfr/4uuVPx5e13wg6flEtd7mSyJfO148FX9bkCvV2Asq5QgEQoV7DzIFd1uQHPnSCXyCgqgC6QQBC4LGMHeCmCiDqPphh6SCfFvgPEXfCXJscdsUSCJJnaBoHlCiyYWOr0KRwQYtSQuvaYN8KJavkDf2CzMxEHArs/UGBfFRLI8CxOQGh1NAPA8Oe5CxxbsVzwJ542+hBO03AVUe22MaWXkGnc+UjL+ZKmgaad6teBR/IR+G9UF8pGVnbT9oMR0reYgPWF973g3xB4NumbMrvkJ7qol/hfbIRv0nyMehPguoZyGXLY/7q/bxv9/AaWhIlGAt0MHhDApOG2DgA27IwR6B61u+UIYBkoHH9viBF1BAn+Vzs3bhGTdMoNxvUBwF1DGOpB9xOVAAO3id6X0PpNiqcPsg1hrqh3SM7VzbPuq5HULLUR/antuXCbZt6VWArivcYrJcVyK+EBWK5uQrsO5KtCeHaKCB09XZUa1BAoU6103fOXoWghjNgzMZXoDH8+AUwzPmS7E8GCxz31p7GMWn2pQxjmdtg/+D99ieYtePIMHzHAyGR5fF1aBdKgI6vCnwKANqkTd8uuOxXR81zae/Uu7y+vDxSfRyOB6vX1Tr/+0nlL66fn75x38=);lineShape=1;fontSize=8;" parent="114" vertex="1">
                    <mxGeometry x="7.365641432043958" y="44.66673110980037" width="6.579056345954565" height="6.329143877144481" as="geometry"/>
                </mxCell>
                <mxCell id="125" value="" style="shape=stencil(lVlJbhwxDHzNXAlS1HrO8o8AceJBHDtwnO33oTJQp0VN18C3cZvsprhUkdRJ33y///Dt7hT4+8vz05e7X+ePL/cnfXsK4fx4f/d8frFfJ3130jefnp7vPj8//Xj8ePn724cu2X99ffrZ3/D7otcqxdK1Av+5PBEl5n9P3l8UHs6Pe4VMwSkIpQQUlJJTYOIAFIQ4TQqVWj6Wr4VinuQLpQjkA9U2yWcSOZYv9n6Z5CNlcOAi43VDXofLrspnpRIn+UDSjuVToqqzQykB/8RCWZx8AefVRlmdPbkCeTM3ev+A84ZEkV28CoiXNErOfqEKAiD2/TArZGrAIkvINmdcwEVQSecPhEYFhCxTnjNU84jh9RBTmUsmKjVgT6JUJ/nEVOD72xyxVEjB+83a+byWswn6J8z25DaeHAUgzAaVSBGFeEvJTaGRgBNL8kVQlSJSaMTzFyr2kVVJm4PWeITxukIhmb1qUJlBIehW55uCBRIgqVoeOQUMjb305zgYPygIXLRDN68QkULypWAmITQy9FL3BWMgELi4WbwpRAogcKZQ5uo3BkogcP0LM0BWS3hQ/naG6BjN0hvEIWbi+dCVB2heV4gjmbd6MC8hUgielUuA9RDZV1yuVIGX1P49V1y2dARnMEx0qJTDwOWj9OaZSDKPhD9iqjZ7KVmVozPYoec4GFBWEDhDPlGvgJodg2JHninD5OvkXb1CBm4VM4lfY5LRpy6HRkBm6F3dGSpk9DLyYBcGJJ9Gwe/jDDBDPLBmgR2e+AObfIDyeXm/gvoXT+cmnxH3+AbP5BH9y2g+doUjKGAeg00+oozwDbbJZ+z/xR4UXx6n28sDEmHP5V0e+JNJ02I/8CeTLPIIfW2e0cX/ALh4wS2BUMoDpPb5A/xv3dSan9Cfjp56/sPzliU/BeYnL/YwrBeV5f0wn9Niv8L6Wu1HI6ws7a8MbjuSX/KTUfs70Gwnr2giorTkG7Y/rPWI47XWI8zPssrD/H+dfPTxNb4QwPNl4dQKJ3BZAMIYD/WYRpEuo42EIWNY2+BYO42twiHNO5PiaI8Op+roFRCoWKviWMlMUtQ9yRjrd4dW1D3FJQ4FDu7WAbrC740B7jFXZEdjoHWxbnuVI1wuxbBwWYXbGevE3fanCNwN9F7fzb7p1kTk9kU2+6IxMLaBnrvxA+FvYt/F2oBzQ8Exso1QFS0s2DelNqShFY3NXNkpFDxoZh+41vAYGPwSSJjhFsim5ZD9JyqqoOT9atMynHB4GU0NmIBCX2VG71dUcmuv2XAv0pHMLVJugGscyLjLvoDYbWs+dvmNKqguuyBc09njWG6joT8YPzwE6BgLD+hKl4ELtV+6TKV84/0ui6JSgfa7fbrhLNreZb81Cg1GeNnPhgCTVNRvaCTBgNkI6zfADAeovoF2EwtmqoXaFGKFVX70K3XU8BtkuwUtwwbGmNjtEjESGYmxOHnkH6OkxM5+lEGl+CsThQ1t363O/rcWDrzfIMQxVIK42DHKlTxs+NvSQW4ZdV1+WdgJw0WRAb+/Y8E7RFNwaxzBITAFNyQLXgp0BfeFgKc0XuZS01DkpubT1BRQnDs/LjbdOLXrdWS7vTtScDvyfp+JUqP5FtIUUAvZmoffroBCXZfIKax+U3Bo1BVQHF59iXtbwX78vzP+dH54uFw57//v75jt0eV+Wt/9BQ==);lineShape=1;fontSize=8;" parent="114" vertex="1">
                    <mxGeometry y="54.389970165216766" width="7.985227190974911" height="8.649178634865772" as="geometry"/>
                </mxCell>
                <mxCell id="126" value="" style="shape=stencil(7VnLUlsxDP2abDV+W17T9j+YAUqmFBigr7+v3IwvsRSfwEyX7ELQiS3p6OldvHi+vXy83gX3/PL08O361/7q5XYXP+1C2N/fXj/tX+TTLn7exYubh6frr08PP+6vDn8/XnbJ/un7w8/+C78POE8+dFBwfw5fxEYl//vmy0H+bn9/JJ8oRC2f2lqeqbX3/L6P5L0G1AIATDlpAMc1IGTy1QCACjEQFw1o4ITkKRgdGtAhiU2MFxq4Uq5UZ6WTI+fWgJIpOgPwa0D11KoBBACoVLwBACtxIJ+NpxMAZMoKwNBxbKwUKyV0QiHPM8BRAo7jNMg/AEFOqFDpqACJPLLSZvUN4GAAiR/yrIOv5MCVaqakAJEqAph4EL8BN4h8npkhSQFRL+gA5RFPS6rO3K4UEVM91dmkhQJD+TLTSDIIIEWXn3mazoVanfUNQ6GlvsphWD4M9V7lISGC1hcHQY3ktLxDfIgjRI7k0f3jiPJXeY/8lbS+bii0zFxZ2T8A/khIhvk+iRjJm5JWiQEfJM+12Z7eUUMHMNU5AHoEA4s2T3Gu4r5QBJRokYo6gUd9OA3IgzKbTf2oD6cBkqQUII0wPQ2QvkMVWeEJoEVrJ1oRZFbvNl5ujq6D6qsjVKbLkRpI1k0K2Ey94rAjWF+pFGLk6qLJ1MMVAfIg8wZgKiD8W6I8X0kIj+JByKQKvxA4oBoo/dmcMMQMAejAhhvimYDqOJuS1iCZ+o0NAAWE9CKlakAG1BCAN0qjNCbNCyulpQ6iE4ru2LrvUWKygAQzMW/c3AAB61BHZd0AkqowQOXu5obvl46bUx+fcRyPaeLoBIfMKuRzGgCVboZ8kitBAZXf09SQmEapz+nuXxxXUJqREjdnDckjAbXaJrkK+VATKQDVpgq90YwkAKc8LW0nyhqsS9BRQl+RyWaBimNU1dHGcG6TgGgmRmHvUEbuPXIEDIhCWTkC11EBVHWliCeSqicSoSt0xHsBna6z0iwAxO+grSQ9IIrR3s/M7CsMe4EeL6ruxlHrV2VU6dBndnSlMpL11myU0RysAHp+ZjhniA5N7TECtpIMqzM1pHOFvYMbjfNREwfnZ0nfcwBJmwhH+jSMuAW1VHYUot4002X0K6engaY3YtJMo22PUK2q8crBdua/zMOAqx/z8Mc8fHYexoRW20gPM5fMzyoRldE9rCLMqdI/NlCrEM5qWsUjDCfdKkjMF1wDVR0XE8HWmXWyFk5DQNPNuQRxxh2YmnliHYvu1ZXU7jLF0WKt1gyq8KeEV/lhDF0bII+h/a0r4a0qvnXpjAEn1toZzs8nFucCAFayq3kBJEA+u/zvAEA++7zQAYBL9gGjA4Dj7BNJynD2tI8wAkApw7zyiDxa5ZtXJJFHZd+8Up35fafXKv3+QGGnm+bOCnCfbUlzFDpoiJQE3bQ84oTTy7CEV/J2URVhZFr5MDLgSl7pi7d5Vl8HhztrTzzFG3+deS8zfIh4dnzvq+h5efnw+gR7s7+7O7zgHv9fP9nKV4fn3vj5Lw==);lineShape=1;fontSize=8;" parent="114" vertex="1">
                    <mxGeometry x="66.20280427503934" y="31.143525697536575" width="15.31566023137957" height="5.661031152327905" as="geometry"/>
                </mxCell>
                <mxCell id="127" value="" style="shape=stencil(lVjLbuMwDPyaXAm9KZ273f8o0HQbbLYp0nYff78UArkmFU9QoAfH1VjicEiOvYt3b88Pr/tdcG/v59PP/Z/D4/vzLn7bhXB4ed6fD+9ytYv3u3j3dDrvf5xPHy+Pl9+vD31lv/p1+t2f8PeCq1RcBwX373IjUv8lf98vy4+Hl9Vy7ylktd47KgiQKCQFCJ64AkAmXzWgUiwQUIsOIVNAgEJJHykFCgwBjTWgUYwAwDboXCgmCIg6hhLJIZaYUtSARqUBQKXUFKA6YsBScNT0kWqhCmLoaTI7yCH9NiBGytXukDIANEpBAxI8UsrEBhCogkznYMXXWQI75EpZs8SVGOxQ0pDaAuCx53VAs/LmQg4kjqWAdNByJ4M8CCesa5oTOQBonpoBOMog6CaZ1kfqUTkAyKMLreUNpNHKxJIjjwCVglYr+1G01wFtVPACEC0hlhq1YGlFJdoBhtZyC2AaGS/tfCto0zVE3gHFwOT0DtVTRJnOo+RXgIZojcQToAJ5t2DlLQCPAG5IbWFJxAdorZIHZ2kNgFYBZAMoY0xuAcpUcWhkSQyz+BKYQFKipt3z0s+3aDUzTiquIfElG0MvUXSkMmbmegcsvjq1mQq8htSDm1i6UdPcbB4cmtPOkZtS7VDUQoppTIx5raOrrOTKKGqmPNUoCuLLAJmybKxAhmLiyZKJFYiggkoZE2oBVGgFip+6ABZTzuQ0oE8xQGuSA2grIIpHpi/J87S+RfEF0NptqtlBvANgSRyW6WR9ZIBuHILN9ErAW1a36jYgakE0+UDR8BpHN7wuJsq6qMV+JOB/5iZQoFlnayqlyyBDxtbAifO+8XydA7H2DOpZhK+VnR2UUbE5TvHG+mDefgrkX+pAJzgkWGlhdKtFQgmKdJ5Ug4CN5aZlSzsFbE7tN8GJ4KyNXF45NpYXHSsesmKFtNT8DSbNS6GD7i7Oy5EJSVZnuNCzPbvYZZCmYm2dG45+S/TBMAMN1Hih+eTdg6d/8ZvFzeVy8fl55OlwPF6+rqz/bz+nyK3Lp5h4/x8=);lineShape=1;fontSize=8;" parent="1" vertex="1">
                    <mxGeometry x="455.0904108063693" y="220.17481837578197" width="5.713545930006694" height="4.861552871364211" as="geometry"/>
                </mxCell>
                <mxCell id="128" value="" style="shape=stencil(lVjZctswDPwavWJIghee0/Q/MhOn9tS1M47T4+8LVaVrgta6eZNlrIRjsQA18cPb9ul1MwX3dj4dv25+7J7P24k/TSHsDtvNaXfWq4kfJ354OZ42X07H98Pz8vv1abacr74dv89P+LngfKYsMyq4X8udTL78ufF5sd/vDtf2kSR39sFRyRDgXQ8QqgwAgaQHsJBHAE+pdylWYhSDayE2QCoUQAyVSm+fU8vCij1zZ1+YfIIOmRfUO0ktFPsc1UTOrwOCOuB7QKYS1gGsOao9oMI3cKXIFlABIBbKBiAUASApVZMFlLgO0Cqxs4C/3LoJ0DKlEQCoV5V6YQCAtEqmEIcYQKVFK90DxJEDLkm1LimgCAAIcd8+4klA+yig9mwVbk6u0Ftd7vMqSlcU9aWwF4AWH7xCAYbfmoc7aTL81ke4CgvhkgVkBEhN5q4ABeU1Us4WwChotg2hUUXEPpVWk6UCpVUBlkyJEiLTCGBMptGl0ITkf4P25FGWxrQ6CugNQ+HmHkVBD9RQQEXUGMnnKCLASG9VHtwPtoECVLJbPRopATm+IQMZk2kUGh0BQI5vSJlOYtyjViwFp2mQ4zkq5NJHAeOEmGUDuKQzKMoAAHXQKRfKRwA6R9P4BsBvndSjSxXEoLuAaYgret3eT5TgQ5qQWAbf1PqKGyivnu1aqbVEQlPsVjlrGyAfUzC7Q4ETyNldo+CkDv1ZAjloX3v7zND/QNxXIOmqD+OtvSRF7Q3AotRE97LW69INluLcOvdybqht6V2rV09Sj9tAn2ZODVCzqz0n4WxKW/gv3kPnxSbTQ3M9MJjd2WHyqwoVYw9PecGSH7evNldK9vn4UBir9R8sLl43eZsfBtlXeykm/fBEmO3gYDg35lNz73+EvfvhU/Zde734d6R/2e33yxeB6//tJwC9tXw+4Mff);lineShape=1;fontSize=8;" parent="1" vertex="1">
                    <mxGeometry x="441.93866415684863" y="240.92452976993428" width="5.84610612728793" height="4.387982891593583" as="geometry"/>
                </mxCell>
                <mxCell id="129" value="" style="shape=stencil(rVjLbttADPwaX4l9L/ectv8RIE5jNI0DJ339fUdQV9VS0bgBelOUGWtJDoeUDvHm5eH2+XgI7uX1cv5y/HG6e304xA+HEE5PD8fL6RVXh/jxEG/uz5fj58v529Pd/Pfz7YScrr6ev0+/8HPmqWiaSMH9mm8kKfONTzP88fQ0wF0Z4L5JLPv4KiEO+BjExX18EfXjcVz/hR18qCO+SXL7+CylDfisUj3D+zzgSxWv+/gkGgZ8TZIaw9cxn4p4CT5LHvOjVTKJVyWP+dEmnuTTR9ExQQqFVEKo0qo9USMnClGcCaFIIilFDEVHArKc9wkRRRs1rVE8EWmCJk0MXiKJASL7k/SlzI3KOldbt1q4rrMVdo200DVINcpzUomScOJspK0SCQFlKuMTcEhW6VatuIuTHAgBB4iWkEh3gmDUCkIhaW1wq1FLxYsn8gahZktonNBM0EEacdSJYGKI/c4ewVg26uBYHVrP+oqgpB9AMC5fCnUx1ME+AUbO6gCPyBsCk0btQvjXI5XNE64EXbpyFkLidVhsa104YmQgGBO4Jo1ie3oSH4uhimuWQOUNXzIxXGkgtd56vUWrtwRqAs2uDCDQoFvfWFZBF1YHdNymDoXE4J3rDbYqNVuT3ngE9ipuGzYIjHruAmHTcvF9hSjd2/4PAYM/jC1XvShbTrDrmDGauj+/PbOidQGMUTaCpgk1OhnGHpuKWAeN+hSDlRQub2JQPJN0EJYNu/IplSvWmTZKo3m6g4ZmB3WLUolasYUaecN5PKm0157EhaC99m8TUt9qFwKGEmlq7+z+s2rCnU3a9MPkbaQOrj9/wTu6820sAEpS0m+ud+NqgSvE91wfmKtuozWw0wc7Jpugmx03Kc0PLHHMT+RvelGCwWOHJueJva2WAivNZxJv3gzFEU1DDiN8ee3YgafRukJfgfZe88Zf9xLIYbLNDYYsfUmtauCs3+H72cBZo8Axg4UTg8PiZc/O3hI2i52jK47as/v+gr4DN1My0CGptkzxGvx930KuwHHx97PL/enxcf5qs/6//UyDW/MnnvjxNw==);lineShape=1;fontSize=8;" parent="1" vertex="1">
                    <mxGeometry x="430.5359887163693" y="257.7600191422869" width="9.546030692274053" height="5.210204350399363" as="geometry"/>
                </mxCell>
                <mxCell id="130" value="matlab pure depth me jaata he uske child ke then to next child" style="text;html=1;align=center;verticalAlign=middle;resizable=0;points=[];autosize=1;strokeColor=none;fillColor=none;fontSize=8;" parent="1" vertex="1">
                    <mxGeometry x="297.12" y="280" width="240" height="20" as="geometry"/>
                </mxCell>
                <mxCell id="131" value="" style="group" parent="1" vertex="1" connectable="0">
                    <mxGeometry x="489.9987820242428" y="213.5388167528937" width="81.51846450641892" height="63.03914880008256" as="geometry"/>
                </mxCell>
                <mxCell id="132" value="" style="shape=stencil(lVfZctswDPwavWJAErye0/Q/MhOn9tS1M47T4+8LjYa2CEWb6E0HliAXi4NDeHjbP73uBs9v18v55+7P4fm6H8K3wfvDab+7HK76NITHITy8nC+7H5fz++l5en99Gi3Hp1/n3+MKfyecdxTqiPL8b/riyE8fvk/2x8NpZh8cCXf2iYqs2wtT7e1doJQAIFOOPaBQzeuAKG3DDeAjZQBIjlzoACFQZgDI5PoziKMa1wHZUSodIDJFDwBCqd9SLFTAGbKy3h86JcogDvm2XgNkPTTYUuG23g1QqRYACORTByiRPPKQbRxKJQbSqJVC76FmCm4d4JiJ2SLqNheFEnCh60kfCF3CAzFVaevNAAmIqWoGLTzUAHnlPnIzHtZC56J1UQBNKgUjDgVAgWusswUw4DVHStUGQsAZFCB9zmloYEYkimIBDnkorazcALoEYKlolRALcCDUmjDZaCO2JT4G1AVLGFADSdqyJf1tKtN4aAQoTTlfpPWu5i8GTgGWJSwN/e0XakXiUxJTsgAk7+rJb0qgUij0Wvo0R4VkUTdgGWAqbAGo0GiO1oUHVMo0gzjaQKBiuRmQxDZSVXxEAE+lP4PmlIDI6TCQfA9gckB9sdotaSMtoC/GTHHRqiugNUZyZnrAfTF6S6uOGwUcWmcskxDiW99bneJ6WoNAaehEFfsM0jkReRh/m6Z1I/pjAJMYgLQOsDIM2NKXYdzUvCdVKQLptpg0HAyyisyO3QLmPbdcnUEqezvUM+RSY5mNeUADtG2cjFtIE+/dnIE4nWvD+MweMKlh98XaIx1oR7On9Yh6bfvB2EdQIEbyrH0BN6qtN7DP7fXhft17ORyP021x/t9eD/XTdLUMj/8B);lineShape=1;fontSize=8;" parent="131" vertex="1">
                    <mxGeometry x="39.360975110013214" width="0.696363426043542" height="4.191529248466171" as="geometry"/>
                </mxCell>
                <mxCell id="133" value="" style="shape=stencil(rZfbbhpBDIafZm+t8Xjn4Os0fY9IIQWVQkRI27x9vF0tMB74UaTeLcvnWZ/tGeThbf30uhpieDse9j9XfzbPx/Ug34YYN7v16rA52tMgj4M8vOwPqx+H/fvuef79+jSR09Ov/e/phL+znCrVcZKK4WN+wxTk34vvM7/d7C75TCU1vJBGwLPnK8XxNl8LpZbnCBWqkTi0AoUYaFQSSW0EzISx3BbIhUr7BcE+SkrCrYBSZiAQFgUWgbEuYbkqMDIlbQRSJdbbAiLE0giYVTHfFoiJYusl81sGKnGlsU2kKhSQAFNtjdaw+O16HJawnvhECmyOlByv0ILoLZ5qA+jDpKPnFaSFxUw6HujPPrHv8IGyfkUf83bq7A2IZ+78Cc8Pnf4j5jv/RMhzZy9KuK7I1IqsIt51RuML4HkpqEseFQDl2vGoJCn0+ifES3f+nXrp8p9BX4yUu/wRyPfnJ8hL8XyB9obs+QrrK3fnK46vm5ThlOK3EqhrQAoMsATtDYA8dw7NsEGETp8E9e8LWHCD6M7n/8gLFdcg0jJzru8eS7s5TaQ7DT17g225SKADWcrVtgRsSDIQkK5H5wx7hC0O3H4hlSVtr28G1XdRe4Omasp+DNs3A1qHku9zZtUI6qbEJetPC1eEjbeo7ywWGRSHmii0lWDLxQiMtkRwNphXQebp6MMgsBLUVtD2fBu2oDKNF89HUPnG5+h4lHfGu13Fahudb0u6eh7ZW33E7vDqKy3A0T01HvH2Rshnfz5aJc6b3kW8QA2cG/mZRwl6MSnOAgU7SH1CVKzQ165xd3l7ON8ZXzbb7XzlvPzf3zHt1Xw/lcdP);lineShape=1;fontSize=8;" parent="131" vertex="1">
                    <mxGeometry x="32.9351684376997" y="3.8418365134544388" width="4.959462242138152" height="10.418283187050411" as="geometry"/>
                </mxCell>
                <mxCell id="134" value="" style="shape=stencil(rVnbblw3DPyafSV0p/icpv8RIE5t1LUDx22Tvy/VjTar0Z5xAxTIw+ZYcySSIw7Jc8rvvtx/+Hx3SuHL68vz73d/P3x8vT/lX04pPTzd3708vPqvU35/yu8+Pb/c/fby/OfTx/P/P38YK8evP57/Gm/4esZFFYeMf+Hb9yddVP998usZ8PjwdA3okvIKKJKMAExyWwFRUjkGpCjBFkCXksj6LEWX9VUskvUNLciixIBkUsKyPknMx+tzkra6NIiR8+cm0WB97GS9Sa2wPoTj9cXP02F9If4vdbrjh72B2FucEat/ilTi/2Jiq/9VKrG3RomrvU6gTAxwgK0Him5SJYAkaWWQu6gSkx1QVpc65yrfoa6A7FY1vsNKIqdJ40cKEIVEaeFeymsYilLe1SBpjUN9kxhlvfm1UbeWNt83AS1Qo91EW4/Uygzl7bvTpcMOygFF4hqHZpRLnqxsNVojB2S8zponu44ycFy5pJVGOuYN0CQTgCvASiVVfh3wgmqnJscgvawZPkwZug1Q1JAepRMf+ZFA1rq7mST5nMVAdOpk723quVPBBj8k2WEkGdjBaBpz7vc1DBap8LQ+dfUC8NRPjqQFs5K5G4hb1fD6WJl0v82kgmnMqjRGPbehIcCI0e6TXDcAscEUIz0AxEvWpYFbXbGJwJkh+RzAKhgHtIaAzo60SahbRXNGCCgPbhYjk2/RKwKUhNoB31X/AnB+czfhkTy1Mjf1ecGuAIx97hTNG4D51RVwO1JnNrigNQSw4mpQR9GtrDoc5GwIYMl7AGAHlUaysW31pwMCt6ECgOv6cOt+g4jqjsApApjEuU9K3gDMaJsmXgFYGzPove1A2erM2eKQfvKOKu1kBpsh0XRaho5EA1bbDM0RAEqH8QoeiLbdIGMAxRLuyg//FyLOfH2daQj/XMp7QgDL4F5ddMNIdHIkV1LU6otZtwEXZf6PGuGFLbShQ3pZ+RBmR3Il7kwivINocCXSvIZH5Tp06hYom7wqyyubvD7oJA7eehYospRmmtiwk/O6T9mNwNp4lDgkbkV0pZ5TJZH1Ww7ob3T3uF4v1fhtHolCL1Cm5t12UMIQaKL11ZgoASDSRJkSyroGasKYF6xE9co384kM9PetzZnO0UgGahnvKwNrHwxVusUZ+MOhzGp0vZSZtwEFc32tNHBlU2m/r4nEoWwJw1+hvL+HwqFEmlbLptJjqMGO1HFGkSNtstwGnF1VmiWLbqOfSAsH90lbAZ5CaKTr7FQvAH6BRqRhB34fxhQE2Dr7iSOyKlBpNl1HMxAIW51J5GhgiiljlkKHzfo24GPC4xkD2tDor2Aj3yRhtTjyVsNJADt4YmZzIgfUhADWLu1Tbn/ClGqMJDsC2IRiSElCALtt7hOI8wCwOU7HHnG4gQTOAXk7Equ6XUx6Q7eydskBNSCAeSluCSDaWzvEDZCZl376E8vbAP/x44vOp4fHx/MHoeu/4xcgf3T+epTf/wM=);lineShape=1;fontSize=8;" parent="131" vertex="1">
                    <mxGeometry x="29.853168081585466" y="17.37684522214977" width="4.553714106495566" height="4.617696434549599" as="geometry"/>
                </mxCell>
                <mxCell id="135" value="" style="shape=stencil(lVdJchsxDHzNXFHgTpwd5x+ushypolguWc7y+2CiojQkZ5rxbUShSSyNbXIP7/unt91k+f1yPn3f/To8X/aT+zJZe3jd786Hi35N7nFyDy+n8+7b+fTx+nz9/fY0S85fP04/5xt+X3FMMc8gy3/KgZF/B1+v4sfD60Lcko2VuCUx2+Keci0eKYRt8UTWVeJCEShjmHytvHHlwXWAp5hqgBBbABCSUNsbiDPwTyRrK4AzlN02wDmytQ1OVUrApUxSA3ykBGzwmaQ2OnjyfhsQEhlfR80Sg7DFUDhzA0jhyXqcbcuLFEgYAIRSrVI2MNI5UKqplBMxiIMYCqbmniEBL0gkX0daTxi4VYRyzSU9MYBL+re4FmAHgNwCPEhPw0zMLQJl6OoTKEdXjciArqtuEgxIPQC7KdaAhR+2EMF3T4Aknf3e6ZSxm1zn14SNcJ1KEUfOdYEI2GgXW4BDGSFdRihfcUa0OacZgW2IPQAQfHZip9IAkHvAICE6lQZGN+V44NaNJMWRE2kBA25IR9cB+3JH1wG/U6fSIIOaweR/krTTaVAHfA/AleaTgFha+aJHZEQ/U8h2A1jY3LXPufoF7XMJBCJ1hSZbiuAF7dW+jlyKFAFfo29TKGnggNFB55dmStT5AERaJ5om0iHATqozUwPwqRTo9alMFajd6gS6VcfCXOeoXhFAGTBd7dMrUMrp7GprgF6RgJdMVzb0CqRSbEcmvcGhSZRczdVUZt91fcqccPMQBSDOZc6+LyZojuYy3d3FUd7cGHkXj8CXnStvm8eWuG3EUYXnMl3fxS0gJ5cOtljZsHjrSLRfcLvhMdyQuCUBLtJcNo+FOCgNmrdtVNGIze14wLDZf3L3HYrrx33Nfjkcj9ctffl/u5br0XWld49/AQ==);lineShape=1;fontSize=8;" parent="131" vertex="1">
                    <mxGeometry x="42.59631924620419" y="4.650040894754227" width="19.651731291714178" height="14.606513421361047" as="geometry"/>
                </mxCell>
                <mxCell id="136" value="" style="shape=stencil(lVnJchwxCP2auVKSEFrOWf4jVXHiqTh2ynG2vw+dKfW0oPvFc5sF1Ah4PKBP/Ob7/Ydvd6cUvr88P325+3X++HJ/4renlM6P93fP5xf9dOJ3J37z6en57vPz04/Hj5fv3z4sksunr08/lxN+X/QSZV6UUvhz+SFQCP9+eH8Rfzg/bsRjoFysvAD5Tt2eH8H5qVBv9vx8LM/i7UHn50y9W3lwvmSSZOXrsXxhEnd+P5aviUI08ikC+U5s/ZOB/U18fBuwp+tx833VwATk8zB3yGd4316G+4Z8HQ88lJ/vGyNlEAA1qMwGRaGOFOJwyHrjQL0AlzbiMCsUYoCBtrpkKHCCSd00Z+YgcCUBCrVQmFGQE1WURolEZoVKCXipBuL5CaJeAiaVbhNPmBqItD4hzoGTQoJMEnsHqbB2Nba1QhoEW6vE5g59uOEolwyaSxyROYTPDActICiXFA+mfpUyKsK+QqM+Z2vFFb53i4fKEA8xrAeuGg0XgW4R1BIlVAU0TrNNrQxPH7ppDkTrJAwD0eZQd0UQukOkOhemrvmIyoYWutmkXqmC/G7RmdQpgTsoIEzpW2IJ3KoYNfm9ieW+RrTZpI8o4NbKnylZhQgilwuVPCs0WPu4U2jWryhfOQ4+2Chk4Ncko5auCgU+4dojbBQKCLVSlEGQKiBaL1SLlWfwAL1BtvIJnO/RoCQKMimPJmojj2idqZqs0CeCvGMqbOUjCJlSjckJrf2gSmZLVor+DrJUhvc28hlUi2K7JJVPoMzXnfMR9NuePaigOswkaqieUunWn4gIo6MEDRhkHdv2L30c6tqomASSwSkHDrLny0jxA/noIA/7+DF1bAEJHKT05SoEw4Tz9qC5KxM7QBYIMA941PfvARLdl13B4pFSB/Zb2mAKUL7PvaAmdIH+bNXKI/8Xx3sJto63yisDiEOwAAXlGOvRBCc7NSk7lzIKsRrgimgDmFQmttSdYTOrM0d0qK+4m7BMLHDcL8mOXkudQC1Rc4mkCgj4eeBqaxKaBnn8/Uq3Ntf86pCOyFj/NtPgMrKiGSEOn6wKAumpO7dqs1pRe50s4euIgPB25dNVAaeG3sFUpBpH/h55yXCmxr6hqbzYEbgInjejHePL6oajXDJVW/tt2AZWO2/qgNoQ7bAlcpHBpPsKbkCVhOd+GU5cNwsdriLU62YqzzIwuO+lOJrvVSFiiMqYgtZ1Cu5+qxayGaIcYOAU02x2SDII/iiXTMMZO2zAFMFmr7jMDCC9m1u8xggRtyjMly6QQdvaoF03f6hjUKcGswUb0+crN6MJ7vH85jWNVckrN7sMVwp+c8w3bqYZBsxvvhmOOH6zjs/3m3t8vnsxwIOs94+nJrdYbzmNYSkNAxzX2FZgzM4SG01nwU6vCTK4m23if4xx4hle1RgTKQBHuqsG2Fc7RwZojAtTuC0J8MuhG989/VdcP1xfc306Pzxc3pJt/7evxfSnyys1fvcX);lineShape=1;fontSize=8;" parent="131" vertex="1">
                    <mxGeometry x="58.25644149772154" y="19.804277685441548" width="3.183035497025693" height="4.907569574662503" as="geometry"/>
                </mxCell>
                <mxCell id="137" value="" style="shape=stencil(lVfZbttADPwavRLk3vucpv8RIE5t1I0Dx73+vlQFHcuVJ8ibogwtckjOzg7+4f349HYYHL/frpfvh9+n59tx8F8G506vx8P1dNOnwT8O/uHlcj18u15+vj5Pf789jcjx6cfl1/gLf6a4WqmmMcrx3+mNEOf/L75O+PPpdYsvFu+pMMAniqXBZ6oe4ANJbvMRigEEMCXfBiQK7n5AiZTbLzhHAZScK0VpA/RNBAFClVuOMmVAUvIk7ReC0gZYip5ibQJipARYCtqllqUUKIKifSDf9jk7KiDAdbQWJif3A6SQd22ANg7UII6kHaUqsNPJTkZdctz/AElo8ZVKuY/neZI3+ArxqW2aMBODuWAKqfsAYEgJj10BoAVMwhafwNhpts7iA8yfxeIlQXw7QqPagAYvA7bBZ4gPbPERN8x3eFhv6fJHeJXa2uErwrvS1Ys2hkLHD5ofmXVw2y/Aj+zMJ1pIsZoyzhvMx/a3zjJ2j89unisQaraS9fFCxn7jgaKwlbixALgAvQIlMBCabYcPcKB7ghwUlP73MT9iGqwDCvPx3YIluMCfw6vemwULlMBAqNewH1hauB+QKbSSq/bCgy+4QKVNSe2FgJn23i6Z2gvkuIKj2m6N2ouISHLzEi5mQlkCx0Zyc8aLXYmzRdo3RGyL9okyCii2aIeVsWjGxtQJ9GhFF8UcxhEGVDef7atYwBrUbPi2D3m2tvv4PPvc1Vk7oBU6+qYChm1ez7oVjyZ1XF02eOTnFF+iwQu6GaiUeINndDOo9jTAWr16kw0e8VN7fhiMnOKzzV8wviTLP7rYLGfXpr/ITHCn7gwPj90A5Hc/fVf8EK8P68X05XQ+T/fa7f/tRVZfTZdg//gP);lineShape=1;fontSize=8;" parent="131" vertex="1">
                    <mxGeometry x="18.940240685856736" y="24.658302927882403" width="9.556077865527106" height="9.350953889609093" as="geometry"/>
                </mxCell>
                <mxCell id="138" value="" style="shape=stencil(7VnLjls3DP0abwk9KXGdpv8RIJOO0elMMJn08felasgjUr7HKNBNgezsax6L5OFT95Q/fHv89PXhlMK3t9eXXx/+OH9+ezzln04pnZ8fH17Pb/rplD+e8ocvL68Pv7y+fH/+fPn+9dOQHJ9+e/l9/MOfF1ynUgcohb8uDyKV9M+Dny/iT+fnRbxRjEa8kcRjcabU7L8XakC+Uk9WXqh2JJ/ZyI8n+Vi+UBcjnyNVQfJSrHyjVpE+pRv5kokL8k+x+pROEo7lOyXr/pqptGP5GClYh9ZGBSgUKwVrMQdosRLUrAmsKgGKh4+sDVwpgRNyomRJZqbGACAkNuq4Qa+q01O2gE4VZEFlyskDEohT9Ulnr1JCeRaI2XspA+Jao2BDjxMkrieqlukqkLjOxNZL9Zp+twEyc/0KCJAHidQtoKijQXpKpuDyR60CKimArZdGsCCV8vx5AUTAgxSKDtBnhhwBSvOAAmJJAdI9AMWSVOJNpQCqpKjXLQ9a9gSd0HzVUEBHNmgZ7dsJyK3qE95sQCcIhQ2QEA/aabIHVFBbFdCrB3RwQgyBwhZMCVm9VTIFMApX8Q1UG1DBgGRVKg0aoURUy1y91rYjqsU1iABnALl2qLV8o3DVocSq1CpFxNwWrl3HAFArFeAahBbDhk9ga7QE6jiY2KacOjrfATQP6JjpYm0Y3KOk7n74ETyMydZGRzii8G6zui8AQSds89IAoGjV0lc3lRDTZYbaavSd8p02t95pEDZaB3GIhzJpWkMDq+Q6+3sOHnkpJg9glNN1VvcFUHBHadUD0DgzFNhsyDj4ynYCHAXErzIKgKGxNYj3gD9M0Y1p6FbZiJM54BzasEUr2geGl7YEulfIugcI8hL7fWBpe0fBJFsGoaVyhOuW1HwnIdgD0OQ6Um6jWv5TwDZ9a4OApS/5VVpbECwbiYKN79HkULimORSubRTlaKK4LTVwFFCj3eoX5k5xBHDjjA4baPUbC4FVSccZGN/ZE1cyTuofC8GPheB/tRC4tlgCbrw6W7iFIOPyrQXf5qgu7bB8l22DiLgtxjkJXwE8rTq6qXBE8PUe7DYgeBu4wMm1ZX/Rp6UPFSaungcWuBCoiW6+b3Hm1O1LrOt8tAASOGGEv83RcekEmE4yTVxsyMCtaeso6qUKToh1ztrLrVdEgDD3toVpAUbzFkp9LsC3neTnpbHtopSm5rJH5mx9U3675tNsQ7d2wV94ZRx3e4GJkIHgt5mEL2d1q7UMR5keO/BPdNNhgTtlnKXkGqNzHj2gy7knzmXrQDxZa/GSnv34EuBqmP0qqZUXuLL4ChHgJUal4MUDfDPhAhMP5TybxCIOBgSew+6iOxC/VoHFM0CZNjeOxe/g37t/XxDmtfKBuLtuinMxPBL/Ny/M7orrh/d3c1/OT0+XV3vr7/5dnj66vAfMH/8G);lineShape=1;fontSize=8;" parent="131" vertex="1">
                    <mxGeometry x="14.620765444979043" y="36.07727331006748" width="2.762856665606689" height="5.724222865907123" as="geometry"/>
                </mxCell>
                <mxCell id="139" value="" style="shape=stencil(lVfLctswDPwaXTEgwec5Tf8jM3FqT1074zh9/H2hqrJF0FonN5natQhgAS4HeXjbPr1uBs9v59Px++bX7vm8HeTL4P3usN2cdmd9GuRxkIeX42nz7XR8PzxPv1+fRuT49OP4c/yH3xPPUUgjyfOfaYHJl38LXyf4fndYwIWyb+Ceql+HZ/vvmTyvwx1TyQ3eOWIBhEgxtoRELqwTNN7o2gA8JfAFXyiXhiBMAmKQTI5bQqECchSSJYRMJa4TYiSpDSFmYrdOSIFCG0OKVEEMWYjbMudADLZUmFKb1uJgpYvuuA1aVxyIoarQ2qB1JSFCJpGWkCgBaddKpY2hFqoJEmpoCZUcqLRjtlErQwBj/ES1hHiH0H0hg0KMr6MlIPWNG+gId9IkrZgWeVhjcBd1RaXTDitdEBUSsuvShKIulLq8RrylmC1BMCF1W3KYYGbxmDeU1jLnZCHw//N2rQ5mMtXLNFwttXQErA0rpjJ34Uflqk2KCX1D8J2u7sTngTRud3XALdQPjgROrRujqd5LU+q0UcExN+64i6GiDlJtdPqGBK1TPzfQli7S+WjQnyak2etcCBlPV9cVTmaHc/uYi5agxxwallkbwhA8MZBGdjatelQX0KNJbKVTmgfJbbsRZr+zsBsFFC5E2w9BZxsIWqJtOanYlGVKbdDi5lF1m6CerSWokw3oqA7WY6mxrKhFKXXOFbk+lZ6pM5zd3hppNeIgQUyuhTtoTHieiNdLQAXnAs9u8wpHbdaNR4bDjme9X+EB6JnnyK5wgZnx0cAdmFpsm4Vna7ICj8XC4WZyBwciuFRlAQd5d1YECgdVddamXUS0Av/UxfEuXB+ud9SX3X4/XXGX7+2dVpem+7A8/gU=);lineShape=1;fontSize=8;" parent="131" vertex="1">
                    <mxGeometry x="31.480671573562574" y="24.759409420722818" width="9.167497400295328" height="10.622496248410195" as="geometry"/>
                </mxCell>
                <mxCell id="140" value="" style="shape=stencil(lVlJbhxHEHzNXBO1L2dZ/ocAUebANClQlG39XtEeVHsqqjsE3rhE1pIVGbn0JX749vjp68MluG9vry9/Pvxz/fz2eIm/XUK4Pj8+vF7f8NMlfrzED19eXh/+eH35/vz59vvXTxty++mvl7+3Ff692fVsIW1Wwf24/aVZav/94fcb/un6fI93lv2EL5bSOb4Fa3nCZ/Ni/VqttAmfrHuB95YLre/yOb5g+0T4LM6fm2VH9w3iPDmYi4Tv/RyfsNyMr9aFf5Ln8/SxwCE+Vqvzfb2z6oRBtDI/mE+DIscGwXyfDZp1tQNcNBuEYEn4FAZlvjOcWvQd0mwQvfZSsjh7KeJdgjDIvENy1oswKFZnt6ZssQqDZqHOBt28YDYOQEcCF4M40naAOdRykS+N9RrFTtcG1RqJhRv0PY7OOMRnN/DWxQ6lWwqzAfir9ALyQEfK4+2PBcxZJINqQURoww6kGN2iuHRr1uZ4gKipeOh+SMRugEsLtnbQm3aAagsuISv0+aUr7qB2AL3nd4DwR6F7MMjzHeC3LNiKI6U5gOC3Ih6uR35p+E0pX+tD2XeDNNh1bABhJC2GLomYXpNbb5JLYE6nHbo28JxOYNBUiIJL88N55waBj2UjcMhtWyhxjRY6G0RxCaT8nNhNRXDDgzq0Qx0xdWzAugR2KdXwnLG6Fu+lSAKTusT7yPgk8SQxILtKuev60aJ4MqQSui+kX0QC/FMZryIHgbisr6rCwGKx4VXFYLEwXuX/ZC4xPkt8XtZX2T9ZK+x/lQf3mveOD07wIQ1hu8MXef4wayn4rP1ZAuOTuC/YUhmvtDos/MmjCj3hT3zXedyiu7iv4KdbVDTJ8yMeA+Od0B/gVz4I/6MGofcKsktwC9+C7HL8IrhBFnZh8f+v4tH7Ba+K33fifTG/BoAIsK1LXBikimUksbyEjJLELU2ST4vsTJGJ1yDrYgfU0mnJYqrmKmjtF1qrNIBiec0bTtW+bvz7vuYSl257m3VX1WXx0vg39VGoG1VbtFXXtIMfI4CzI1Epi7JNJSesl+ZoqzqasR7Jb/Wyfq+BWzsUhop8aFHcvAPePqjGy/ORCkpZwaWcl04tyw4B3WuZcz46taZyZhq19G4QRtCeNsDUz8JLakxQR8jvBnU0e2djAqrrchpd+ulshDpmp0cdbuSZvesvstIMfQjjbqAjbpsvzTEdi3VlUDh5Rq8N8ojgfVxTZbbdyiOa7wTZMW/10fxwXtf7uAMVeD6NlHps0LjC9l4PhBzPOSFUmkp1vkKRc9fYWbuTvDGih2RPjwjAS5opBJlAESmUDzXtSho0Hng3eHg21w2N8Co/18a9uO5i0btHxkexfut8Hj1RRKKkFjOMnuoY31hakuxI0UJTxZNkUAK/zMnlfKZzCY9yR/DzbmpwR2hBOGzQKePIFhl4TsvaoX2UNneDdTVfatyTNjkXBN7zhxM5g6s8NsGG6kNL4fTXBqNOR3aR19f49334+SUeP/z/lenL9enp9pHq/v/8VQp/un3Rih9/Ag==);lineShape=1;fontSize=8;" parent="131" vertex="1">
                    <mxGeometry x="39.19464330298473" y="37.98686767684086" width="3.1710393426934993" height="4.382051083417425" as="geometry"/>
                </mxCell>
                <mxCell id="141" value="" style="shape=stencil(lZfZbtswEEW/Rq+DGe58TtP/CBCnNurGgeNuf99RDSriUL5G3mT5XHJ2UpN/eN8/ve0mx++X8+n77vfh+bKf/JfJucPrfnc+XPRp8o+Tf3g5nXffzqefr8/X329PMzk//Tj9mlf4c9XVSsnNKsd/r28ccfr/4uuVPx5e13wg6flEtd7mSyJfO148FX9bkCvV2Asq5QgEQoV7DzIFd1uQHPnSCXyCgqgC6QQBC4LGMHeCmCiDqPphh6SCfFvgPEXfCXJscdsUSCJJnaBoHlCiyYWOr0KRwQYtSQuvaYN8KJavkDf2CzMxEHArs/UGBfFRLI8CxOQGh1NAPA8Oe5CxxbsVzwJ542+hBO03AVUe22MaWXkGnc+UjL+ZKmgaad6teBR/IR+G9UF8pGVnbT9oMR0reYgPWF973g3xB4NumbMrvkJ7qol/hfbIRv0nyMehPguoZyGXLY/7q/bxv9/AaWhIlGAt0MHhDApOG2DgA27IwR6B61u+UIYBkoHH9viBF1BAn+Vzs3bhGTdMoNxvUBwF1DGOpB9xOVAAO3id6X0PpNiqcPsg1hrqh3SM7VzbPuq5HULLUR/antuXCbZt6VWArivcYrJcVyK+EBWK5uQrsO5KtCeHaKCB09XZUa1BAoU6103fOXoWghjNgzMZXoDH8+AUwzPmS7E8GCxz31p7GMWn2pQxjmdtg/+D99ieYtePIMHzHAyGR5fF1aBdKgI6vCnwKANqkTd8uuOxXR81zae/Uu7y+vDxSfRyOB6vX1Tr/+0nlL66fn75x38=);lineShape=1;fontSize=8;" parent="131" vertex="1">
                    <mxGeometry x="7.365641432043958" y="44.66673110980037" width="6.579056345954565" height="6.329143877144481" as="geometry"/>
                </mxCell>
                <mxCell id="142" value="" style="shape=stencil(lVlJbhwxDHzNXAlS1HrO8o8AceJBHDtwnO33oTJQp0VN18C3cZvsprhUkdRJ33y///Dt7hT4+8vz05e7X+ePL/cnfXsK4fx4f/d8frFfJ3130jefnp7vPj8//Xj8ePn724cu2X99ffrZ3/D7otcqxdK1Av+5PBEl5n9P3l8UHs6Pe4VMwSkIpQQUlJJTYOIAFIQ4TQqVWj6Wr4VinuQLpQjkA9U2yWcSOZYv9n6Z5CNlcOAi43VDXofLrspnpRIn+UDSjuVToqqzQykB/8RCWZx8AefVRlmdPbkCeTM3ev+A84ZEkV28CoiXNErOfqEKAiD2/TArZGrAIkvINmdcwEVQSecPhEYFhCxTnjNU84jh9RBTmUsmKjVgT6JUJ/nEVOD72xyxVEjB+83a+byWswn6J8z25DaeHAUgzAaVSBGFeEvJTaGRgBNL8kVQlSJSaMTzFyr2kVVJm4PWeITxukIhmb1qUJlBIehW55uCBRIgqVoeOQUMjb305zgYPygIXLRDN68QkULypWAmITQy9FL3BWMgELi4WbwpRAogcKZQ5uo3BkogcP0LM0BWS3hQ/naG6BjN0hvEIWbi+dCVB2heV4gjmbd6MC8hUgielUuA9RDZV1yuVIGX1P49V1y2dARnMEx0qJTDwOWj9OaZSDKPhD9iqjZ7KVmVozPYoec4GFBWEDhDPlGvgJodg2JHninD5OvkXb1CBm4VM4lfY5LRpy6HRkBm6F3dGSpk9DLyYBcGJJ9Gwe/jDDBDPLBmgR2e+AObfIDyeXm/gvoXT+cmnxH3+AbP5BH9y2g+doUjKGAeg00+oozwDbbJZ+z/xR4UXx6n28sDEmHP5V0e+JNJ02I/8CeTLPIIfW2e0cX/ALh4wS2BUMoDpPb5A/xv3dSan9Cfjp56/sPzliU/BeYnL/YwrBeV5f0wn9Niv8L6Wu1HI6ws7a8MbjuSX/KTUfs70Gwnr2giorTkG7Y/rPWI47XWI8zPssrD/H+dfPTxNb4QwPNl4dQKJ3BZAMIYD/WYRpEuo42EIWNY2+BYO42twiHNO5PiaI8Op+roFRCoWKviWMlMUtQ9yRjrd4dW1D3FJQ4FDu7WAbrC740B7jFXZEdjoHWxbnuVI1wuxbBwWYXbGevE3fanCNwN9F7fzb7p1kTk9kU2+6IxMLaBnrvxA+FvYt/F2oBzQ8Exso1QFS0s2DelNqShFY3NXNkpFDxoZh+41vAYGPwSSJjhFsim5ZD9JyqqoOT9atMynHB4GU0NmIBCX2VG71dUcmuv2XAv0pHMLVJugGscyLjLvoDYbWs+dvmNKqguuyBc09njWG6joT8YPzwE6BgLD+hKl4ELtV+6TKV84/0ui6JSgfa7fbrhLNreZb81Cg1GeNnPhgCTVNRvaCTBgNkI6zfADAeovoF2EwtmqoXaFGKFVX70K3XU8BtkuwUtwwbGmNjtEjESGYmxOHnkH6OkxM5+lEGl+CsThQ1t363O/rcWDrzfIMQxVIK42DHKlTxs+NvSQW4ZdV1+WdgJw0WRAb+/Y8E7RFNwaxzBITAFNyQLXgp0BfeFgKc0XuZS01DkpubT1BRQnDs/LjbdOLXrdWS7vTtScDvyfp+JUqP5FtIUUAvZmoffroBCXZfIKax+U3Bo1BVQHF59iXtbwX78vzP+dH54uFw57//v75jt0eV+Wt/9BQ==);lineShape=1;fontSize=8;" parent="131" vertex="1">
                    <mxGeometry y="54.389970165216766" width="7.985227190974911" height="8.649178634865772" as="geometry"/>
                </mxCell>
                <mxCell id="143" value="" style="shape=stencil(7VnLUlsxDP2abDV+W17T9j+YAUqmFBigr7+v3IwvsRSfwEyX7ELQiS3p6OldvHi+vXy83gX3/PL08O361/7q5XYXP+1C2N/fXj/tX+TTLn7exYubh6frr08PP+6vDn8/XnbJ/un7w8/+C78POE8+dFBwfw5fxEYl//vmy0H+bn9/JJ8oRC2f2lqeqbX3/L6P5L0G1AIATDlpAMc1IGTy1QCACjEQFw1o4ITkKRgdGtAhiU2MFxq4Uq5UZ6WTI+fWgJIpOgPwa0D11KoBBACoVLwBACtxIJ+NpxMAZMoKwNBxbKwUKyV0QiHPM8BRAo7jNMg/AEFOqFDpqACJPLLSZvUN4GAAiR/yrIOv5MCVaqakAJEqAph4EL8BN4h8npkhSQFRL+gA5RFPS6rO3K4UEVM91dmkhQJD+TLTSDIIIEWXn3mazoVanfUNQ6GlvsphWD4M9V7lISGC1hcHQY3ktLxDfIgjRI7k0f3jiPJXeY/8lbS+bii0zFxZ2T8A/khIhvk+iRjJm5JWiQEfJM+12Z7eUUMHMNU5AHoEA4s2T3Gu4r5QBJRokYo6gUd9OA3IgzKbTf2oD6cBkqQUII0wPQ2QvkMVWeEJoEVrJ1oRZFbvNl5ujq6D6qsjVKbLkRpI1k0K2Ey94rAjWF+pFGLk6qLJ1MMVAfIg8wZgKiD8W6I8X0kIj+JByKQKvxA4oBoo/dmcMMQMAejAhhvimYDqOJuS1iCZ+o0NAAWE9CKlakAG1BCAN0qjNCbNCyulpQ6iE4ru2LrvUWKygAQzMW/c3AAB61BHZd0AkqowQOXu5obvl46bUx+fcRyPaeLoBIfMKuRzGgCVboZ8kitBAZXf09SQmEapz+nuXxxXUJqREjdnDckjAbXaJrkK+VATKQDVpgq90YwkAKc8LW0nyhqsS9BRQl+RyWaBimNU1dHGcG6TgGgmRmHvUEbuPXIEDIhCWTkC11EBVHWliCeSqicSoSt0xHsBna6z0iwAxO+grSQ9IIrR3s/M7CsMe4EeL6ruxlHrV2VU6dBndnSlMpL11myU0RysAHp+ZjhniA5N7TECtpIMqzM1pHOFvYMbjfNREwfnZ0nfcwBJmwhH+jSMuAW1VHYUot4002X0K6engaY3YtJMo22PUK2q8crBdua/zMOAqx/z8Mc8fHYexoRW20gPM5fMzyoRldE9rCLMqdI/NlCrEM5qWsUjDCfdKkjMF1wDVR0XE8HWmXWyFk5DQNPNuQRxxh2YmnliHYvu1ZXU7jLF0WKt1gyq8KeEV/lhDF0bII+h/a0r4a0qvnXpjAEn1toZzs8nFucCAFayq3kBJEA+u/zvAEA++7zQAYBL9gGjA4Dj7BNJynD2tI8wAkApw7zyiDxa5ZtXJJFHZd+8Up35fafXKv3+QGGnm+bOCnCfbUlzFDpoiJQE3bQ84oTTy7CEV/J2URVhZFr5MDLgSl7pi7d5Vl8HhztrTzzFG3+deS8zfIh4dnzvq+h5efnw+gR7s7+7O7zgHv9fP9nKV4fn3vj5Lw==);lineShape=1;fontSize=8;" parent="131" vertex="1">
                    <mxGeometry x="66.20280427503934" y="31.143525697536575" width="15.31566023137957" height="5.661031152327905" as="geometry"/>
                </mxCell>
                <mxCell id="144" value="" style="shape=stencil(lVfLchpBDPwarirNaJ5nx/kPVxkHKsS4MM7j7yNCZlmJpSnflmV6NZK6ezQreXjfPL2tV5Hfj4f99/Wv7fNxs5Ivqxi3r5v1YXvUp5U8ruThZX9YfzvsP16fz7/fnk4rT08/9j9PX/h9xgWmzidU5D/nN4mk/Hvx9bx+t32dr8/UxayPTK0DQCfOBiA8PrEIiIGKjZACCQOAUI8GkANlkEMsxNUAClNBERqFbgGdYrsNEKESDKDxeLMISIlisQChAAC5ULURaqNebwOKjJpMgEQ13wZUptx80gVE0A0E2ziN2UAfmn7PbinHkdUioAdKNoJ2WgD5ulCy5MvKVpBDz5SajxDRlipJ9DkIitCougja+wQA3Xdae4+4FJiJraZzvxfCSa4EaoAbmoQHJAoo6zrYPAHUSAA3tBH/dzwBKjGwDW2112gdmrpFpmirVLSuoEpK11R8DjECQBs1mQkCValVT9eTMQGfUYA4MjVitKU6TGICTIy/lXRwChISJAgVmKNroIrIp5p3LqAHBCJfWojAwL57GRuYAToCNJKrpDPaklLjqqwVlFUB/apxgiM06zPlTtJ9yGVGvoQi1OHuM3on1LjPAloa+pqOoEoV5FDLMOvpVEwwaT2h3BGk/EV9UH1V6xpqPIzO3UjZbknJkoDi9GQXC5j58/LwoOOJ21OH7Ivd+4wyHnmlTkzNRWA4YukQ19x4Eqmgqa9QtxGqwJlM58rg+J3gtBFknMszyQlIOqjfW1GnjCVHwUpUMpxOipeDvokgA6ZkS6SzeALfV9bY/TQonqshoIwx+cZyV50Mjyr2doQNMlzVhgJwijgm06k04xKxrLEh2bGcx1C2rOFxw7ksh6ZCVdxyNJk3f99hOFX0MUJcUs2I9uynlkgNsf6z97u76/Xhcpl82e5257vo/H9/+dRX54urPP4F);lineShape=1;fontSize=8;" parent="1" vertex="1">
                    <mxGeometry x="521.6811652266894" y="225.0190893909894" width="4.389904315145396" height="3.3887593017966537" as="geometry"/>
                </mxCell>
                <mxCell id="145" value="" style="shape=stencil(lVfLctswDPwaXTEgwRfOafofmYlTe+rGGcfp4+8L1aUrQtF2cpNlrghggQUwyd3r/uFlN0V+vZxPX3c/Do+X/SSfphgPz/vd+XCxp0nuJ7l7Op13X86nt+fH6++Xh/nk/PTt9H3+ws8rTjJVnlGRf13fFMrpz4vP1/PHw/PyvFAuw/nQKIVtQFRq4wXC8IZYiWUENFIEENIwAFKjiExiCiMgV2q6DQjFA0qlVAFAiEdAtTgDH0LoLnZAK8QN+lDqCLC4ZQBoFLK/oUTAdKUy+tAyJRAli7ojrhkzwIfcSJwPkaJsA4rxOiZfYxIAqJXqeEO1bAVRUiEZo1QLReCD5m7AApAA01o9D2YkylZtVJL3ISOAdl4XUYqA6cBMzJ6IgMKkPZtvgESBoRPNMZepgQrSW4Et8vsv+VtEFB0BlvGICKEaPSCBMGnwyWQAVHJqYU3eBwYVZN+rq5IrIL/te+p8EGoYUJ0KBMiDmRTHG6qSAh6aUhx5sHQVlBrcLV4UBCOmo2faSk5QjSavlTMAMW09cAVADcLSO6ycZsCDFZDXGYVqbADfIAJlFFYDuJoWSiis6pm25BOkM7Wr+6KjNFQPpX9vUQ+Kbkgkq5oWxMNHAW01CsxFC0yq7LuiyQLyobDPJRMeBSZl7tl/A9goAEpU1Lcgxbpko4ATMsXJZyNeG8O6aBkbLYVa8jZlYJP0lnY7n2BXXHesQgqCZB3QNVGFYh8pOVEKXXXeZ61n/m1CFIqov3kKsgk30DCbKJ1ByVQNAYof7G3UFzSCWg6MeWeTeEYjaKTqVoHS+9f7gNQ3hZsPPQpb5+uYdljBjAQ3M0Q4u9mqk0bFC713bW0meRQ8hjkdV2VjagNyzhYjN97iIpPgBz2GNSNxbQ9aSiT5Igt9+ds633z8C7JnxZd01dg674aXTAHw++Hd9r/n7eHfIv10OB6ve/jyf79426vr0i73vwE=);lineShape=1;fontSize=8;" parent="1" vertex="1">
                    <mxGeometry x="508.92165583049325" y="244.38360527495814" width="4.189507441814385" height="4.229321738535418" as="geometry"/>
                </mxCell>
                <mxCell id="146" value="" style="shape=stencil(lVhJcttADHyNrqjZMTg7zj9cZTlSRbFcsrP9PmBUQ3MwYtO+SSSaBNCNZbiLd6+Hh5f9LrjXt8v5+/738fHtsItfdiEcnw/7y/FNf+3i/S7ePZ0v+2+X88/nx+v/l4fJcvr14/xresKfK47JyQQK7u/1QqIc/1/4ejU/HZ8X5oU4duY+UxFonzr7EKmC56s7rrOPiWqB9sZ9R8zI3hv7QjEg+5g7+6xvhP6n2tkXpuLX7auNlwvVum4vxL6zr4HYrdv7RD70AE85rwNCoNIzzEIBRDyF0KeUmQSEHDPFAeCASylSHgHApRza7QUABV2clTVXCkAWRSgXCxDAg952bNNagVCrZqkHKHEevEE8cS/VSRogS1IGaSSYJamUe/GJtCu3AWy1pABJ0KUiAwCUv2SqbnAJ1U9uUpsBFTYkSUPQTAw6ngKCeUOhDJieAH3PUCcjYjq1ljID5ipfCzqYLEXymAfTliRQQjyUpv4FwKOgmWqygICIq4M0QuP+NkAoVht0QfKWJoRFWhkE7Z0b0qSJQwUhbZgtxBRQmoSSSVOlhKKubfwtCiIguWqzHmq0Im1wC3FeAd7zsKqmoaoZMZGHihDyKK9aEcWmySO9plZhC+Zko6oNEZkY1VyiZIjQToKrWga9JtSZst0FtCKgwD8NcC3EeUJIm0q3h9ZcMDOA4YTQuWz2w1pa+1wbvKaqdVAWtLC6Ng8WgASIy74JYQkAxOl6It4C0A4adeUcgq4gS7r1FRNDbX3hNiDZtVWpRA3fD/uMrhMFxKBrfxy0JICHYUucRhCgQeeN2WYYVrSjOCxkAUQ8tO6NRV3z17fJjYOAa133gwcNZ3W9cZBxtr1sHJSGDXfjIObsNrlx0Bv9h+dIZ89JuNc5O9VUHoAs304ss/Ow9Xo7+HHqQ9uS380DyHykaJ+OpmVqhfpRc7FPR84oifbpKNRid1mcyGIHDKZpPOxDEXzyU8Wmuf54/yrydDydrh9VlvftVxS9dP0CE+//AQ==);lineShape=1;fontSize=8;" parent="1" vertex="1">
                    <mxGeometry x="496.7709418415576" y="260.7341499146517" width="7.414508775228205" height="5.459962055144297" as="geometry"/>
                </mxCell>
                <mxCell id="147" value="" style="shape=stencil(7VnJcls3EPwaXqcADNaz4/yHqyxHrCiSS5az/H3mhYWXhwbYFCuXHHyjKDQBzNLTMzjph2+Pn74+nIL79vb68uvDH+fPb48n/ekUwvn58eH1/GafTvrxpB++vLw+/PL68v358+Xvr5+2ldun315+337hzwvOS/AbKLi/Ll+0JCX8883Pl/VP5+fD+iLFjeuDhHx9vXfS2gCorX+zBkRxcQQUSWyHIgEAUYpeBwQnCY7kJVcCUMkjoFSJhQCyhDoCkgRHAFVKGgFeKgGoFz8CchVHzKpm1jICVBpxtBbxOgBSk0z8EJ24MTRSkkR2iEHSeIfkRSMBJDRrLH3PNaBOgNB9vwRsB8gDQKsoiaUUJQIgiiehkYromHDqxPvrgOy6XzvAossRs+YgedzBkpxlXE6io+MspSq5QzYSGI/kLZYSATSJAHA044rrkbNHaz/jeoPd6HtKU1Yyo+Yx9PYTrr2WJIKJvCTm5jgBAnVzMo6ZAEqukAJShgEicYLFdpt3YHcwjrnvDm5hpcLys0lVBHjGMeYmADjOMU3CCLAtyRVW6xmtzgcyviCBvd14DGzLJUJ5ZlKF0iOeExiwRZZCzpP2UrlzcCe09XqrMsCoPDHDRHec7XLnhd3B0hhRmH4Zs8BRrrM6DKXcdYcv19epqDlacaoRYcTfJ/Y0bVOBGSWTeG4eq7JKJfZpisUg0wJo6i+N9cyKPrFPswIMCRmkkQu3ijrEZ8qkBqgQESYgSQi11mlwr39Ka7gBIAfMSJEDGjgh0KjwbgojEyIsTttOUzvAIouZqfU42wFRKikHZtcIO5jvuas1IYBV/ZbFA1eYcmGAhNLfdqiEHdvUKxiAulonQRh59IV+gIMfMrtD6Hx78DSTzXYkYOzIi6YBoPCb8mZyzawEnGqAwAAJ9Z02ntS5//sI4MEHLHDrSFaG/V2XNt4qd5m19UJzdBy7Q+v903tDw4jpvuCrvRV/b3iXBYAmkHHvvSk6swb1dFywBqUZleTQSpTIQj/Ae6nSUhSo8gYZ/3eAdYU0+CZAaFTMGwAaJBNiTDkbwE1doWd+8KiErStkl66tZ/CxIWHaKmO7ULtYvKat/Gik3Ol/rfUKatVEA6koapncxdNaq9ZZyzPtZk1qhkFVb3+uNalQe/jk7EfPeQH86Dn/5z1nwOFLpg6wntNDVaPD1Oyx59HOfdfmXyAVfE/Ua9MsTBtaM63nhIZkV3DX1oP2b70krtdH9JfnyqXsOXjowRwb+E3diOdUlC1iRuoynzEbGTdC1d8meDecPN5BA60eaRqxa+ajDlPBk+RMPK4L9Ar8IWJLTJD+jVopFpx2GIUro4qIqZD22e0a4LF9yXx4rLXL8B2QJTBAxglGcV1TrgGKGnULeOI4dTiDMSXQ+OsLaKPqu1RfAyIyWI30MWXTWuMdaqVDfNNaOKDmgy0fcYdNSBOzbkVsfvljZUR0ZOGtxWJ+w6nKNtMgJKOo1g5Tk7VRsRW5BbDYLtOJ2MviZNJGh2cO++xtKEMs5HA2ujV8pPA4tJCt578PQ6dWaF2YXpq26R69r4KHM32pdUiotp79/r1v07fX24d/H8K/nJ+eLu/ox//jw7l9dXl0149/Aw==);lineShape=1;fontSize=8;" parent="1" vertex="1">
                    <mxGeometry x="501.88512936374275" y="259.6425651856297" width="8.368260135217406" height="9.863288896180165" as="geometry"/>
                </mxCell>
                <mxCell id="148" value="" style="shape=stencil(7VnLchw3DPyavaJIgg/wbDv/4SrL0ZZlySUrr78PmA1Hw57ddungm2+rEXtIAI0GwDnpu+/3H7/dnVL4/vL89OXur/Onl/uTvj+ldH68v3s+v/ivk3446bvPT893vz8//fH46fL3t49j5fj19enP8Ya/L7ggrQxQCv9cHvQi2v978ttl/cP5cbdepbd1fZKQbq9vYnlZb/6k3F4fo/S+ApKYEUCWZAugdekMUKXqCqhigQC6aFgBKonYnKK01Um1S24E4DYAoEgmUUj1sEOUQtyaOu5QmjQW5zgPsAGyKLFBVQoAgvRMAEXaSo3cpLIjHbiUs1S2gxMhrYAoldiQncvrDmpzz+uAKnFNH3dDJtTIJimugCCVkK84l1ZAKnPP64AiqS4A5+//hL8OMDTaU0ojBdh6pBjmIW8dKa8pGpMkZkOcTtwASlN0UC2iDYmIQN40YgcoHBACAmqlkQ562IHEwdkfEwIiO1IVVfRSJW7NnnEB49CZDQVVwwGMfA4IQL44X3ETsKqGc4nJjAN03aFLIczw9ViAKFfdqSXC+sAsbhiEJoW41KkN68uU8uvr/f0gSRLJ+hqwfrqmEXvrprlzfaABa3kq6Ov6QPxvUSIEmJZzq1MOd/4hCmyGmW9UgHsQg6SJtNR6f6OHtOzE4q6TkBvAaB73LHktIu6jSmLWq6TVhkE6QtLepqDvyhQT4N7F1iiP0siM7ki77DwleeAAqGtezJXvAGVqqBMLnKEWeW4HIsDuVjMEZOalMsO0AzAx8khrRwDLZueSFjS6MGok7MLcrYXt4JV4ZasHLrPApdn77qhBA5dmk7brwhJPIKj+OdBiPhJoDZx3fqwx9MAB+RygDFBx7HEAlRlP+YwA4/kQAxrN2raRQAe3MkAMAVsYjxyrPUMFgH0+/vEzwaTk7GOzWLdDqL1eM7+2mfO7DFKWoxXbsJGjbIcs7aACygCKFXH0WTyD7CB9nSc1Gq10iH4zwDrmqPIZwMsuDKDeh1GAZxAUOaUXDVYODXejHbodpG90t+RIbRvKX1tJNoo1L7urkxpNn5bQgjZ7oeutWMWi22ij4a1exVa4s1Yy4zjsDqqE2b+mqgvg11T1U6Yq5qI3TlWjjQpwfhZkZ3Za1ahSMSr+fpBsur6mQyGk+uupHxXOT99fZuLuWc0Ainkz5jbi0XqYU12vA2mRfFC19UgeYyYWRVFdvObQm62IlVkbHUpcXeqhzWPdhdM6H2YMuoPicOjMNRKH0fquR3IqGskcPzEwz/1mRPC0zqKxu+lVEmn3OtyHe2FhdU0Tjp/VG3BiQ+pIjWq03U4N5chrKb0Pz/MyewPU2Q1cByS8lrAwrbr1EQBU3pS32w0lZlxtsO8Saf5704BIr+hNykrWMY8yEcOMHiM1E1X0qa9ns2fGkWfMD4ypkqHQBn6XlPCq6keAiO3IOBHh3UHzhsXEgoCCNDxKIhAOVXaL4Y31UMZ9/GEd7WHAG+MSfz+cv9LLgoB3kc449onnrR8Xf7zef7x+yfx8fni4fAjd/x+/fPqjy1dT/fAv);lineShape=1;fontSize=8;" parent="1" vertex="1">
                    <mxGeometry x="513.1554621734233" y="242.7934186511996" width="8.25063690270872" height="8.990740287323115" as="geometry"/>
                </mxCell>
                <mxCell id="162" value="" style="group" parent="1" vertex="1" connectable="0">
                    <mxGeometry x="559.9987820242428" y="218.6388167528937" width="81.51846450641892" height="63.03914880008256" as="geometry"/>
                </mxCell>
                <mxCell id="163" value="" style="shape=stencil(lVfZctswDPwavWJAErye0/Q/MhOn9tS1M47T4+8LjYa2CEWb6E0HliAXi4NDeHjbP73uBs9v18v55+7P4fm6H8K3wfvDab+7HK76NITHITy8nC+7H5fz++l5en99Gi3Hp1/n3+MKfyecdxTqiPL8b/riyE8fvk/2x8NpZh8cCXf2iYqs2wtT7e1doJQAIFOOPaBQzeuAKG3DDeAjZQBIjlzoACFQZgDI5PoziKMa1wHZUSodIDJFDwBCqd9SLFTAGbKy3h86JcogDvm2XgNkPTTYUuG23g1QqRYACORTByiRPPKQbRxKJQbSqJVC76FmCm4d4JiJ2SLqNheFEnCh60kfCF3CAzFVaevNAAmIqWoGLTzUAHnlPnIzHtZC56J1UQBNKgUjDgVAgWusswUw4DVHStUGQsAZFCB9zmloYEYkimIBDnkorazcALoEYKlolRALcCDUmjDZaCO2JT4G1AVLGFADSdqyJf1tKtN4aAQoTTlfpPWu5i8GTgGWJSwN/e0XakXiUxJTsgAk7+rJb0qgUij0Wvo0R4VkUTdgGWAqbAGo0GiO1oUHVMo0gzjaQKBiuRmQxDZSVXxEAE+lP4PmlIDI6TCQfA9gckB9sdotaSMtoC/GTHHRqiugNUZyZnrAfTF6S6uOGwUcWmcskxDiW99bneJ6WoNAaehEFfsM0jkReRh/m6Z1I/pjAJMYgLQOsDIM2NKXYdzUvCdVKQLptpg0HAyyisyO3QLmPbdcnUEqezvUM+RSY5mNeUADtG2cjFtIE+/dnIE4nWvD+MweMKlh98XaIx1oR7On9Yh6bfvB2EdQIEbyrH0BN6qtN7DP7fXhft17ORyP021x/t9eD/XTdLUMj/8B);lineShape=1;fontSize=8;" parent="162" vertex="1">
                    <mxGeometry x="39.360975110013214" width="0.696363426043542" height="4.191529248466171" as="geometry"/>
                </mxCell>
                <mxCell id="164" value="" style="shape=stencil(rZfbbhpBDIafZm+t8Xjn4Os0fY9IIQWVQkRI27x9vF0tMB74UaTeLcvnWZ/tGeThbf30uhpieDse9j9XfzbPx/Ug34YYN7v16rA52tMgj4M8vOwPqx+H/fvuef79+jSR09Ov/e/phL+znCrVcZKK4WN+wxTk34vvM7/d7C75TCU1vJBGwLPnK8XxNl8LpZbnCBWqkTi0AoUYaFQSSW0EzISx3BbIhUr7BcE+SkrCrYBSZiAQFgUWgbEuYbkqMDIlbQRSJdbbAiLE0giYVTHfFoiJYusl81sGKnGlsU2kKhSQAFNtjdaw+O16HJawnvhECmyOlByv0ILoLZ5qA+jDpKPnFaSFxUw6HujPPrHv8IGyfkUf83bq7A2IZ+78Cc8Pnf4j5jv/RMhzZy9KuK7I1IqsIt51RuML4HkpqEseFQDl2vGoJCn0+ifES3f+nXrp8p9BX4yUu/wRyPfnJ8hL8XyB9obs+QrrK3fnK46vm5ThlOK3EqhrQAoMsATtDYA8dw7NsEGETp8E9e8LWHCD6M7n/8gLFdcg0jJzru8eS7s5TaQ7DT17g225SKADWcrVtgRsSDIQkK5H5wx7hC0O3H4hlSVtr28G1XdRe4Omasp+DNs3A1qHku9zZtUI6qbEJetPC1eEjbeo7ywWGRSHmii0lWDLxQiMtkRwNphXQebp6MMgsBLUVtD2fBu2oDKNF89HUPnG5+h4lHfGu13Fahudb0u6eh7ZW33E7vDqKy3A0T01HvH2Rshnfz5aJc6b3kW8QA2cG/mZRwl6MSnOAgU7SH1CVKzQ165xd3l7ON8ZXzbb7XzlvPzf3zHt1Xw/lcdP);lineShape=1;fontSize=8;" parent="162" vertex="1">
                    <mxGeometry x="32.9351684376997" y="3.8418365134544388" width="4.959462242138152" height="10.418283187050411" as="geometry"/>
                </mxCell>
                <mxCell id="165" value="" style="shape=stencil(rVnbblw3DPyafSV0p/icpv8RIE5t1LUDx22Tvy/VjTar0Z5xAxTIw+ZYcySSIw7Jc8rvvtx/+Hx3SuHL68vz73d/P3x8vT/lX04pPTzd3708vPqvU35/yu8+Pb/c/fby/OfTx/P/P38YK8evP57/Gm/4esZFFYeMf+Hb9yddVP998usZ8PjwdA3okvIKKJKMAExyWwFRUjkGpCjBFkCXksj6LEWX9VUskvUNLciixIBkUsKyPknMx+tzkra6NIiR8+cm0WB97GS9Sa2wPoTj9cXP02F9If4vdbrjh72B2FucEat/ilTi/2Jiq/9VKrG3RomrvU6gTAxwgK0Him5SJYAkaWWQu6gSkx1QVpc65yrfoa6A7FY1vsNKIqdJ40cKEIVEaeFeymsYilLe1SBpjUN9kxhlvfm1UbeWNt83AS1Qo91EW4/Uygzl7bvTpcMOygFF4hqHZpRLnqxsNVojB2S8zponu44ycFy5pJVGOuYN0CQTgCvASiVVfh3wgmqnJscgvawZPkwZug1Q1JAepRMf+ZFA1rq7mST5nMVAdOpk723quVPBBj8k2WEkGdjBaBpz7vc1DBap8LQ+dfUC8NRPjqQFs5K5G4hb1fD6WJl0v82kgmnMqjRGPbehIcCI0e6TXDcAscEUIz0AxEvWpYFbXbGJwJkh+RzAKhgHtIaAzo60SahbRXNGCCgPbhYjk2/RKwKUhNoB31X/AnB+czfhkTy1Mjf1ecGuAIx97hTNG4D51RVwO1JnNrigNQSw4mpQR9GtrDoc5GwIYMl7AGAHlUaysW31pwMCt6ECgOv6cOt+g4jqjsApApjEuU9K3gDMaJsmXgFYGzPove1A2erM2eKQfvKOKu1kBpsh0XRaho5EA1bbDM0RAEqH8QoeiLbdIGMAxRLuyg//FyLOfH2daQj/XMp7QgDL4F5ddMNIdHIkV1LU6otZtwEXZf6PGuGFLbShQ3pZ+RBmR3Il7kwivINocCXSvIZH5Tp06hYom7wqyyubvD7oJA7eehYospRmmtiwk/O6T9mNwNp4lDgkbkV0pZ5TJZH1Ww7ob3T3uF4v1fhtHolCL1Cm5t12UMIQaKL11ZgoASDSRJkSyroGasKYF6xE9co384kM9PetzZnO0UgGahnvKwNrHwxVusUZ+MOhzGp0vZSZtwEFc32tNHBlU2m/r4nEoWwJw1+hvL+HwqFEmlbLptJjqMGO1HFGkSNtstwGnF1VmiWLbqOfSAsH90lbAZ5CaKTr7FQvAH6BRqRhB34fxhQE2Dr7iSOyKlBpNl1HMxAIW51J5GhgiiljlkKHzfo24GPC4xkD2tDor2Aj3yRhtTjyVsNJADt4YmZzIgfUhADWLu1Tbn/ClGqMJDsC2IRiSElCALtt7hOI8wCwOU7HHnG4gQTOAXk7Equ6XUx6Q7eydskBNSCAeSluCSDaWzvEDZCZl376E8vbAP/x44vOp4fHx/MHoeu/4xcgf3T+epTf/wM=);lineShape=1;fontSize=8;" parent="162" vertex="1">
                    <mxGeometry x="29.853168081585466" y="17.37684522214977" width="4.553714106495566" height="4.617696434549599" as="geometry"/>
                </mxCell>
                <mxCell id="166" value="" style="shape=stencil(lVdJchsxDHzNXFHgTpwd5x+ushypolguWc7y+2CiojQkZ5rxbUShSSyNbXIP7/unt91k+f1yPn3f/To8X/aT+zJZe3jd786Hi35N7nFyDy+n8+7b+fTx+nz9/fY0S85fP04/5xt+X3FMMc8gy3/KgZF/B1+v4sfD60Lcko2VuCUx2+Keci0eKYRt8UTWVeJCEShjmHytvHHlwXWAp5hqgBBbABCSUNsbiDPwTyRrK4AzlN02wDmytQ1OVUrApUxSA3ykBGzwmaQ2OnjyfhsQEhlfR80Sg7DFUDhzA0jhyXqcbcuLFEgYAIRSrVI2MNI5UKqplBMxiIMYCqbmniEBL0gkX0daTxi4VYRyzSU9MYBL+re4FmAHgNwCPEhPw0zMLQJl6OoTKEdXjciArqtuEgxIPQC7KdaAhR+2EMF3T4Aknf3e6ZSxm1zn14SNcJ1KEUfOdYEI2GgXW4BDGSFdRihfcUa0OacZgW2IPQAQfHZip9IAkHvAICE6lQZGN+V44NaNJMWRE2kBA25IR9cB+3JH1wG/U6fSIIOaweR/krTTaVAHfA/AleaTgFha+aJHZEQ/U8h2A1jY3LXPufoF7XMJBCJ1hSZbiuAF7dW+jlyKFAFfo29TKGnggNFB55dmStT5AERaJ5om0iHATqozUwPwqRTo9alMFajd6gS6VcfCXOeoXhFAGTBd7dMrUMrp7GprgF6RgJdMVzb0CqRSbEcmvcGhSZRczdVUZt91fcqccPMQBSDOZc6+LyZojuYy3d3FUd7cGHkXj8CXnStvm8eWuG3EUYXnMl3fxS0gJ5cOtljZsHjrSLRfcLvhMdyQuCUBLtJcNo+FOCgNmrdtVNGIze14wLDZf3L3HYrrx33Nfjkcj9ctffl/u5br0XWld49/AQ==);lineShape=1;fontSize=8;" parent="162" vertex="1">
                    <mxGeometry x="42.59631924620419" y="4.650040894754227" width="19.651731291714178" height="14.606513421361047" as="geometry"/>
                </mxCell>
                <mxCell id="167" value="" style="shape=stencil(lVnJchwxCP2auVKSEFrOWf4jVXHiqTh2ynG2vw+dKfW0oPvFc5sF1Ah4PKBP/Ob7/Ydvd6cUvr88P325+3X++HJ/4renlM6P93fP5xf9dOJ3J37z6en57vPz04/Hj5fv3z4sksunr08/lxN+X/QSZV6UUvhz+SFQCP9+eH8Rfzg/bsRjoFysvAD5Tt2eH8H5qVBv9vx8LM/i7UHn50y9W3lwvmSSZOXrsXxhEnd+P5aviUI08ikC+U5s/ZOB/U18fBuwp+tx833VwATk8zB3yGd4316G+4Z8HQ88lJ/vGyNlEAA1qMwGRaGOFOJwyHrjQL0AlzbiMCsUYoCBtrpkKHCCSd00Z+YgcCUBCrVQmFGQE1WURolEZoVKCXipBuL5CaJeAiaVbhNPmBqItD4hzoGTQoJMEnsHqbB2Nba1QhoEW6vE5g59uOEolwyaSxyROYTPDActICiXFA+mfpUyKsK+QqM+Z2vFFb53i4fKEA8xrAeuGg0XgW4R1BIlVAU0TrNNrQxPH7ppDkTrJAwD0eZQd0UQukOkOhemrvmIyoYWutmkXqmC/G7RmdQpgTsoIEzpW2IJ3KoYNfm9ieW+RrTZpI8o4NbKnylZhQgilwuVPCs0WPu4U2jWryhfOQ4+2Chk4Ncko5auCgU+4dojbBQKCLVSlEGQKiBaL1SLlWfwAL1BtvIJnO/RoCQKMimPJmojj2idqZqs0CeCvGMqbOUjCJlSjckJrf2gSmZLVor+DrJUhvc28hlUi2K7JJVPoMzXnfMR9NuePaigOswkaqieUunWn4gIo6MEDRhkHdv2L30c6tqomASSwSkHDrLny0jxA/noIA/7+DF1bAEJHKT05SoEw4Tz9qC5KxM7QBYIMA941PfvARLdl13B4pFSB/Zb2mAKUL7PvaAmdIH+bNXKI/8Xx3sJto63yisDiEOwAAXlGOvRBCc7NSk7lzIKsRrgimgDmFQmttSdYTOrM0d0qK+4m7BMLHDcL8mOXkudQC1Rc4mkCgj4eeBqaxKaBnn8/Uq3Ntf86pCOyFj/NtPgMrKiGSEOn6wKAumpO7dqs1pRe50s4euIgPB25dNVAaeG3sFUpBpH/h55yXCmxr6hqbzYEbgInjejHePL6oajXDJVW/tt2AZWO2/qgNoQ7bAlcpHBpPsKbkCVhOd+GU5cNwsdriLU62YqzzIwuO+lOJrvVSFiiMqYgtZ1Cu5+qxayGaIcYOAU02x2SDII/iiXTMMZO2zAFMFmr7jMDCC9m1u8xggRtyjMly6QQdvaoF03f6hjUKcGswUb0+crN6MJ7vH85jWNVckrN7sMVwp+c8w3bqYZBsxvvhmOOH6zjs/3m3t8vnsxwIOs94+nJrdYbzmNYSkNAxzX2FZgzM4SG01nwU6vCTK4m23if4xx4hle1RgTKQBHuqsG2Fc7RwZojAtTuC0J8MuhG989/VdcP1xfc306Pzxc3pJt/7evxfSnyys1fvcX);lineShape=1;fontSize=8;" parent="162" vertex="1">
                    <mxGeometry x="58.25644149772154" y="19.804277685441548" width="3.183035497025693" height="4.907569574662503" as="geometry"/>
                </mxCell>
                <mxCell id="168" value="" style="shape=stencil(lVfZbttADPwavRLk3vucpv8RIE5t1I0Dx73+vlQFHcuVJ8ibogwtckjOzg7+4f349HYYHL/frpfvh9+n59tx8F8G506vx8P1dNOnwT8O/uHlcj18u15+vj5Pf789jcjx6cfl1/gLf6a4WqmmMcrx3+mNEOf/L75O+PPpdYsvFu+pMMAniqXBZ6oe4ANJbvMRigEEMCXfBiQK7n5AiZTbLzhHAZScK0VpA/RNBAFClVuOMmVAUvIk7ReC0gZYip5ibQJipARYCtqllqUUKIKifSDf9jk7KiDAdbQWJif3A6SQd22ANg7UII6kHaUqsNPJTkZdctz/AElo8ZVKuY/neZI3+ArxqW2aMBODuWAKqfsAYEgJj10BoAVMwhafwNhpts7iA8yfxeIlQXw7QqPagAYvA7bBZ4gPbPERN8x3eFhv6fJHeJXa2uErwrvS1Ys2hkLHD5ofmXVw2y/Aj+zMJ1pIsZoyzhvMx/a3zjJ2j89unisQaraS9fFCxn7jgaKwlbixALgAvQIlMBCabYcPcKB7ghwUlP73MT9iGqwDCvPx3YIluMCfw6vemwULlMBAqNewH1hauB+QKbSSq/bCgy+4QKVNSe2FgJn23i6Z2gvkuIKj2m6N2ouISHLzEi5mQlkCx0Zyc8aLXYmzRdo3RGyL9okyCii2aIeVsWjGxtQJ9GhFF8UcxhEGVDef7atYwBrUbPi2D3m2tvv4PPvc1Vk7oBU6+qYChm1ez7oVjyZ1XF02eOTnFF+iwQu6GaiUeINndDOo9jTAWr16kw0e8VN7fhiMnOKzzV8wviTLP7rYLGfXpr/ITHCn7gwPj90A5Hc/fVf8EK8P68X05XQ+T/fa7f/tRVZfTZdg//gP);lineShape=1;fontSize=8;" parent="162" vertex="1">
                    <mxGeometry x="18.940240685856736" y="24.658302927882403" width="9.556077865527106" height="9.350953889609093" as="geometry"/>
                </mxCell>
                <mxCell id="169" value="" style="shape=stencil(7VnLjls3DP0abwk9KXGdpv8RIJOO0elMMJn08felasgjUr7HKNBNgezsax6L5OFT95Q/fHv89PXhlMK3t9eXXx/+OH9+ezzln04pnZ8fH17Pb/rplD+e8ocvL68Pv7y+fH/+fPn+9dOQHJ9+e/l9/MOfF1ynUgcohb8uDyKV9M+Dny/iT+fnRbxRjEa8kcRjcabU7L8XakC+Uk9WXqh2JJ/ZyI8n+Vi+UBcjnyNVQfJSrHyjVpE+pRv5kokL8k+x+pROEo7lOyXr/pqptGP5GClYh9ZGBSgUKwVrMQdosRLUrAmsKgGKh4+sDVwpgRNyomRJZqbGACAkNuq4Qa+q01O2gE4VZEFlyskDEohT9Ulnr1JCeRaI2XspA+Jao2BDjxMkrieqlukqkLjOxNZL9Zp+twEyc/0KCJAHidQtoKijQXpKpuDyR60CKimArZdGsCCV8vx5AUTAgxSKDtBnhhwBSvOAAmJJAdI9AMWSVOJNpQCqpKjXLQ9a9gSd0HzVUEBHNmgZ7dsJyK3qE95sQCcIhQ2QEA/aabIHVFBbFdCrB3RwQgyBwhZMCVm9VTIFMApX8Q1UG1DBgGRVKg0aoURUy1y91rYjqsU1iABnALl2qLV8o3DVocSq1CpFxNwWrl3HAFArFeAahBbDhk9ga7QE6jiY2KacOjrfATQP6JjpYm0Y3KOk7n74ETyMydZGRzii8G6zui8AQSds89IAoGjV0lc3lRDTZYbaavSd8p02t95pEDZaB3GIhzJpWkMDq+Q6+3sOHnkpJg9glNN1VvcFUHBHadUD0DgzFNhsyDj4ynYCHAXErzIKgKGxNYj3gD9M0Y1p6FbZiJM54BzasEUr2geGl7YEulfIugcI8hL7fWBpe0fBJFsGoaVyhOuW1HwnIdgD0OQ6Um6jWv5TwDZ9a4OApS/5VVpbECwbiYKN79HkULimORSubRTlaKK4LTVwFFCj3eoX5k5xBHDjjA4baPUbC4FVSccZGN/ZE1cyTuofC8GPheB/tRC4tlgCbrw6W7iFIOPyrQXf5qgu7bB8l22DiLgtxjkJXwE8rTq6qXBE8PUe7DYgeBu4wMm1ZX/Rp6UPFSaungcWuBCoiW6+b3Hm1O1LrOt8tAASOGGEv83RcekEmE4yTVxsyMCtaeso6qUKToh1ztrLrVdEgDD3toVpAUbzFkp9LsC3neTnpbHtopSm5rJH5mx9U3675tNsQ7d2wV94ZRx3e4GJkIHgt5mEL2d1q7UMR5keO/BPdNNhgTtlnKXkGqNzHj2gy7knzmXrQDxZa/GSnv34EuBqmP0qqZUXuLL4ChHgJUal4MUDfDPhAhMP5TybxCIOBgSew+6iOxC/VoHFM0CZNjeOxe/g37t/XxDmtfKBuLtuinMxPBL/Ny/M7orrh/d3c1/OT0+XV3vr7/5dnj66vAfMH/8G);lineShape=1;fontSize=8;" parent="162" vertex="1">
                    <mxGeometry x="14.620765444979043" y="36.07727331006748" width="2.762856665606689" height="5.724222865907123" as="geometry"/>
                </mxCell>
                <mxCell id="170" value="" style="shape=stencil(lVfLctswDPwaXTEgwec5Tf8jM3FqT1074zh9/H2hqrJF0FonN5natQhgAS4HeXjbPr1uBs9v59Px++bX7vm8HeTL4P3usN2cdmd9GuRxkIeX42nz7XR8PzxPv1+fRuT49OP4c/yH3xPPUUgjyfOfaYHJl38LXyf4fndYwIWyb+Ceql+HZ/vvmTyvwx1TyQ3eOWIBhEgxtoRELqwTNN7o2gA8JfAFXyiXhiBMAmKQTI5bQqECchSSJYRMJa4TYiSpDSFmYrdOSIFCG0OKVEEMWYjbMudADLZUmFKb1uJgpYvuuA1aVxyIoarQ2qB1JSFCJpGWkCgBaddKpY2hFqoJEmpoCZUcqLRjtlErQwBj/ES1hHiH0H0hg0KMr6MlIPWNG+gId9IkrZgWeVhjcBd1RaXTDitdEBUSsuvShKIulLq8RrylmC1BMCF1W3KYYGbxmDeU1jLnZCHw//N2rQ5mMtXLNFwttXQErA0rpjJ34Uflqk2KCX1D8J2u7sTngTRud3XALdQPjgROrRujqd5LU+q0UcExN+64i6GiDlJtdPqGBK1TPzfQli7S+WjQnyak2etcCBlPV9cVTmaHc/uYi5agxxwallkbwhA8MZBGdjatelQX0KNJbKVTmgfJbbsRZr+zsBsFFC5E2w9BZxsIWqJtOanYlGVKbdDi5lF1m6CerSWokw3oqA7WY6mxrKhFKXXOFbk+lZ6pM5zd3hppNeIgQUyuhTtoTHieiNdLQAXnAs9u8wpHbdaNR4bDjme9X+EB6JnnyK5wgZnx0cAdmFpsm4Vna7ICj8XC4WZyBwciuFRlAQd5d1YECgdVddamXUS0Av/UxfEuXB+ud9SX3X4/XXGX7+2dVpem+7A8/gU=);lineShape=1;fontSize=8;" parent="162" vertex="1">
                    <mxGeometry x="31.480671573562574" y="24.759409420722818" width="9.167497400295328" height="10.622496248410195" as="geometry"/>
                </mxCell>
                <mxCell id="171" value="" style="shape=stencil(lVlJbhxHEHzNXBO1L2dZ/ocAUebANClQlG39XtEeVHsqqjsE3rhE1pIVGbn0JX749vjp68MluG9vry9/Pvxz/fz2eIm/XUK4Pj8+vF7f8NMlfrzED19eXh/+eH35/vz59vvXTxty++mvl7+3Ff692fVsIW1Wwf24/aVZav/94fcb/un6fI93lv2EL5bSOb4Fa3nCZ/Ni/VqttAmfrHuB95YLre/yOb5g+0T4LM6fm2VH9w3iPDmYi4Tv/RyfsNyMr9aFf5Ln8/SxwCE+Vqvzfb2z6oRBtDI/mE+DIscGwXyfDZp1tQNcNBuEYEn4FAZlvjOcWvQd0mwQvfZSsjh7KeJdgjDIvENy1oswKFZnt6ZssQqDZqHOBt28YDYOQEcCF4M40naAOdRykS+N9RrFTtcG1RqJhRv0PY7OOMRnN/DWxQ6lWwqzAfir9ALyQEfK4+2PBcxZJINqQURoww6kGN2iuHRr1uZ4gKipeOh+SMRugEsLtnbQm3aAagsuISv0+aUr7qB2AL3nd4DwR6F7MMjzHeC3LNiKI6U5gOC3Ih6uR35p+E0pX+tD2XeDNNh1bABhJC2GLomYXpNbb5JLYE6nHbo28JxOYNBUiIJL88N55waBj2UjcMhtWyhxjRY6G0RxCaT8nNhNRXDDgzq0Qx0xdWzAugR2KdXwnLG6Fu+lSAKTusT7yPgk8SQxILtKuev60aJ4MqQSui+kX0QC/FMZryIHgbisr6rCwGKx4VXFYLEwXuX/ZC4xPkt8XtZX2T9ZK+x/lQf3mveOD07wIQ1hu8MXef4wayn4rP1ZAuOTuC/YUhmvtDos/MmjCj3hT3zXedyiu7iv4KdbVDTJ8yMeA+Od0B/gVz4I/6MGofcKsktwC9+C7HL8IrhBFnZh8f+v4tH7Ba+K33fifTG/BoAIsK1LXBikimUksbyEjJLELU2ST4vsTJGJ1yDrYgfU0mnJYqrmKmjtF1qrNIBiec0bTtW+bvz7vuYSl257m3VX1WXx0vg39VGoG1VbtFXXtIMfI4CzI1Epi7JNJSesl+ZoqzqasR7Jb/Wyfq+BWzsUhop8aFHcvAPePqjGy/ORCkpZwaWcl04tyw4B3WuZcz46taZyZhq19G4QRtCeNsDUz8JLakxQR8jvBnU0e2djAqrrchpd+ulshDpmp0cdbuSZvesvstIMfQjjbqAjbpsvzTEdi3VlUDh5Rq8N8ojgfVxTZbbdyiOa7wTZMW/10fxwXtf7uAMVeD6NlHps0LjC9l4PhBzPOSFUmkp1vkKRc9fYWbuTvDGih2RPjwjAS5opBJlAESmUDzXtSho0Hng3eHg21w2N8Co/18a9uO5i0btHxkexfut8Hj1RRKKkFjOMnuoY31hakuxI0UJTxZNkUAK/zMnlfKZzCY9yR/DzbmpwR2hBOGzQKePIFhl4TsvaoX2UNneDdTVfatyTNjkXBN7zhxM5g6s8NsGG6kNL4fTXBqNOR3aR19f49334+SUeP/z/lenL9enp9pHq/v/8VQp/un3Rih9/Ag==);lineShape=1;fontSize=8;" parent="162" vertex="1">
                    <mxGeometry x="39.19464330298473" y="37.98686767684086" width="3.1710393426934993" height="4.382051083417425" as="geometry"/>
                </mxCell>
                <mxCell id="172" value="" style="shape=stencil(lZfZbtswEEW/Rq+DGe58TtP/CBCnNurGgeNuf99RDSriUL5G3mT5XHJ2UpN/eN8/ve0mx++X8+n77vfh+bKf/JfJucPrfnc+XPRp8o+Tf3g5nXffzqefr8/X329PMzk//Tj9mlf4c9XVSsnNKsd/r28ccfr/4uuVPx5e13wg6flEtd7mSyJfO148FX9bkCvV2Asq5QgEQoV7DzIFd1uQHPnSCXyCgqgC6QQBC4LGMHeCmCiDqPphh6SCfFvgPEXfCXJscdsUSCJJnaBoHlCiyYWOr0KRwQYtSQuvaYN8KJavkDf2CzMxEHArs/UGBfFRLI8CxOQGh1NAPA8Oe5CxxbsVzwJ542+hBO03AVUe22MaWXkGnc+UjL+ZKmgaad6teBR/IR+G9UF8pGVnbT9oMR0reYgPWF973g3xB4NumbMrvkJ7qol/hfbIRv0nyMehPguoZyGXLY/7q/bxv9/AaWhIlGAt0MHhDApOG2DgA27IwR6B61u+UIYBkoHH9viBF1BAn+Vzs3bhGTdMoNxvUBwF1DGOpB9xOVAAO3id6X0PpNiqcPsg1hrqh3SM7VzbPuq5HULLUR/antuXCbZt6VWArivcYrJcVyK+EBWK5uQrsO5KtCeHaKCB09XZUa1BAoU6103fOXoWghjNgzMZXoDH8+AUwzPmS7E8GCxz31p7GMWn2pQxjmdtg/+D99ieYtePIMHzHAyGR5fF1aBdKgI6vCnwKANqkTd8uuOxXR81zae/Uu7y+vDxSfRyOB6vX1Tr/+0nlL66fn75x38=);lineShape=1;fontSize=8;" parent="162" vertex="1">
                    <mxGeometry x="7.365641432043958" y="44.66673110980037" width="6.579056345954565" height="6.329143877144481" as="geometry"/>
                </mxCell>
                <mxCell id="173" value="" style="shape=stencil(lVlJbhwxDHzNXAlS1HrO8o8AceJBHDtwnO33oTJQp0VN18C3cZvsprhUkdRJ33y///Dt7hT4+8vz05e7X+ePL/cnfXsK4fx4f/d8frFfJ3130jefnp7vPj8//Xj8ePn724cu2X99ffrZ3/D7otcqxdK1Av+5PBEl5n9P3l8UHs6Pe4VMwSkIpQQUlJJTYOIAFIQ4TQqVWj6Wr4VinuQLpQjkA9U2yWcSOZYv9n6Z5CNlcOAi43VDXofLrspnpRIn+UDSjuVToqqzQykB/8RCWZx8AefVRlmdPbkCeTM3ev+A84ZEkV28CoiXNErOfqEKAiD2/TArZGrAIkvINmdcwEVQSecPhEYFhCxTnjNU84jh9RBTmUsmKjVgT6JUJ/nEVOD72xyxVEjB+83a+byWswn6J8z25DaeHAUgzAaVSBGFeEvJTaGRgBNL8kVQlSJSaMTzFyr2kVVJm4PWeITxukIhmb1qUJlBIehW55uCBRIgqVoeOQUMjb305zgYPygIXLRDN68QkULypWAmITQy9FL3BWMgELi4WbwpRAogcKZQ5uo3BkogcP0LM0BWS3hQ/naG6BjN0hvEIWbi+dCVB2heV4gjmbd6MC8hUgielUuA9RDZV1yuVIGX1P49V1y2dARnMEx0qJTDwOWj9OaZSDKPhD9iqjZ7KVmVozPYoec4GFBWEDhDPlGvgJodg2JHninD5OvkXb1CBm4VM4lfY5LRpy6HRkBm6F3dGSpk9DLyYBcGJJ9Gwe/jDDBDPLBmgR2e+AObfIDyeXm/gvoXT+cmnxH3+AbP5BH9y2g+doUjKGAeg00+oozwDbbJZ+z/xR4UXx6n28sDEmHP5V0e+JNJ02I/8CeTLPIIfW2e0cX/ALh4wS2BUMoDpPb5A/xv3dSan9Cfjp56/sPzliU/BeYnL/YwrBeV5f0wn9Niv8L6Wu1HI6ws7a8MbjuSX/KTUfs70Gwnr2giorTkG7Y/rPWI47XWI8zPssrD/H+dfPTxNb4QwPNl4dQKJ3BZAMIYD/WYRpEuo42EIWNY2+BYO42twiHNO5PiaI8Op+roFRCoWKviWMlMUtQ9yRjrd4dW1D3FJQ4FDu7WAbrC740B7jFXZEdjoHWxbnuVI1wuxbBwWYXbGevE3fanCNwN9F7fzb7p1kTk9kU2+6IxMLaBnrvxA+FvYt/F2oBzQ8Exso1QFS0s2DelNqShFY3NXNkpFDxoZh+41vAYGPwSSJjhFsim5ZD9JyqqoOT9atMynHB4GU0NmIBCX2VG71dUcmuv2XAv0pHMLVJugGscyLjLvoDYbWs+dvmNKqguuyBc09njWG6joT8YPzwE6BgLD+hKl4ELtV+6TKV84/0ui6JSgfa7fbrhLNreZb81Cg1GeNnPhgCTVNRvaCTBgNkI6zfADAeovoF2EwtmqoXaFGKFVX70K3XU8BtkuwUtwwbGmNjtEjESGYmxOHnkH6OkxM5+lEGl+CsThQ1t363O/rcWDrzfIMQxVIK42DHKlTxs+NvSQW4ZdV1+WdgJw0WRAb+/Y8E7RFNwaxzBITAFNyQLXgp0BfeFgKc0XuZS01DkpubT1BRQnDs/LjbdOLXrdWS7vTtScDvyfp+JUqP5FtIUUAvZmoffroBCXZfIKax+U3Bo1BVQHF59iXtbwX78vzP+dH54uFw57//v75jt0eV+Wt/9BQ==);lineShape=1;fontSize=8;" parent="162" vertex="1">
                    <mxGeometry y="54.389970165216766" width="7.985227190974911" height="8.649178634865772" as="geometry"/>
                </mxCell>
                <mxCell id="174" value="" style="shape=stencil(7VnLUlsxDP2abDV+W17T9j+YAUqmFBigr7+v3IwvsRSfwEyX7ELQiS3p6OldvHi+vXy83gX3/PL08O361/7q5XYXP+1C2N/fXj/tX+TTLn7exYubh6frr08PP+6vDn8/XnbJ/un7w8/+C78POE8+dFBwfw5fxEYl//vmy0H+bn9/JJ8oRC2f2lqeqbX3/L6P5L0G1AIATDlpAMc1IGTy1QCACjEQFw1o4ITkKRgdGtAhiU2MFxq4Uq5UZ6WTI+fWgJIpOgPwa0D11KoBBACoVLwBACtxIJ+NpxMAZMoKwNBxbKwUKyV0QiHPM8BRAo7jNMg/AEFOqFDpqACJPLLSZvUN4GAAiR/yrIOv5MCVaqakAJEqAph4EL8BN4h8npkhSQFRL+gA5RFPS6rO3K4UEVM91dmkhQJD+TLTSDIIIEWXn3mazoVanfUNQ6GlvsphWD4M9V7lISGC1hcHQY3ktLxDfIgjRI7k0f3jiPJXeY/8lbS+bii0zFxZ2T8A/khIhvk+iRjJm5JWiQEfJM+12Z7eUUMHMNU5AHoEA4s2T3Gu4r5QBJRokYo6gUd9OA3IgzKbTf2oD6cBkqQUII0wPQ2QvkMVWeEJoEVrJ1oRZFbvNl5ujq6D6qsjVKbLkRpI1k0K2Ey94rAjWF+pFGLk6qLJ1MMVAfIg8wZgKiD8W6I8X0kIj+JByKQKvxA4oBoo/dmcMMQMAejAhhvimYDqOJuS1iCZ+o0NAAWE9CKlakAG1BCAN0qjNCbNCyulpQ6iE4ru2LrvUWKygAQzMW/c3AAB61BHZd0AkqowQOXu5obvl46bUx+fcRyPaeLoBIfMKuRzGgCVboZ8kitBAZXf09SQmEapz+nuXxxXUJqREjdnDckjAbXaJrkK+VATKQDVpgq90YwkAKc8LW0nyhqsS9BRQl+RyWaBimNU1dHGcG6TgGgmRmHvUEbuPXIEDIhCWTkC11EBVHWliCeSqicSoSt0xHsBna6z0iwAxO+grSQ9IIrR3s/M7CsMe4EeL6ruxlHrV2VU6dBndnSlMpL11myU0RysAHp+ZjhniA5N7TECtpIMqzM1pHOFvYMbjfNREwfnZ0nfcwBJmwhH+jSMuAW1VHYUot4002X0K6engaY3YtJMo22PUK2q8crBdua/zMOAqx/z8Mc8fHYexoRW20gPM5fMzyoRldE9rCLMqdI/NlCrEM5qWsUjDCfdKkjMF1wDVR0XE8HWmXWyFk5DQNPNuQRxxh2YmnliHYvu1ZXU7jLF0WKt1gyq8KeEV/lhDF0bII+h/a0r4a0qvnXpjAEn1toZzs8nFucCAFayq3kBJEA+u/zvAEA++7zQAYBL9gGjA4Dj7BNJynD2tI8wAkApw7zyiDxa5ZtXJJFHZd+8Up35fafXKv3+QGGnm+bOCnCfbUlzFDpoiJQE3bQ84oTTy7CEV/J2URVhZFr5MDLgSl7pi7d5Vl8HhztrTzzFG3+deS8zfIh4dnzvq+h5efnw+gR7s7+7O7zgHv9fP9nKV4fn3vj5Lw==);lineShape=1;fontSize=8;" parent="162" vertex="1">
                    <mxGeometry x="66.20280427503934" y="31.143525697536575" width="15.31566023137957" height="5.661031152327905" as="geometry"/>
                </mxCell>
                <mxCell id="175" value="" style="shape=stencil(lVjZchpBDPwaXlUz0pzPjvMfrjIOVIhxYZzj76MNHoy0u53kbVnUjI5uScNG7l53Dy/bDYfX8+n4dftj/3jebeTThnn/vNue9md92sj9Ru6ejqftl9Px7fnx8vnlYbKcnr4dv0+/8POC61TaBOLw6/JCqPc/Lz5fzA/75xvzGKkUYx+ZJAMAU0sGwIECA0CiGKxH1zPXAMkBGiUMyNkAUqZYIaCIAeRIDQWdqFqXcqOIXFIH2ACqZgm5VCjZtNZOFRSOtQ42hpYpA5eEKVlmtEoJFE6z3roHoLSmQtK8Sx2kNSfq0QIEAooQ20q3SAm4pFnvlt61QT3USt3GoG9Q4Xqh6k5QwoMTehtJvALyUMgyoBM7aihZQJYU0KoPOkYI8EHrG+xSLr4O75JaC9q1Ga10RIA641IiRoDs+5ICGgLo78UZAKWVZzEkEpSlODrpTdDvpVwGBErRp7UCTbfu6d20zeATgutLbUhqDVCsS0q+3GDQxQY90RvpQSjYRqYCgi5p93YxyKj9mkS9gBIFpIdKdeZSRSdoUxEfdAeFUwFVF0OlDNgag1bOjiDVKGRf941JyQQ7WR9JuQKU8QhQZ5LT9g0mihZCbGNSBRXEDU179oCOKqddZQbIiEwy5vg/AlRg7ABaOVAHJaePoQ8nl4dc8RpVTaFVIFffZzRvDdQhqebdCXVoankV6JQsv6cJAILWFU/sCTcEXt5nxC9xegQaWrESW0EovRoCxKHhK0Dg4K0j69fCNQqg9WUSZ8/DxeUyeK7qtoK6vfixXnT+gJ4hfjjolovkObPXNRpdBZTY7qrB4/KxYh+s/xyhPfu2PW3VoMDBL1ZlOLhi7hpqpgRUFvxGj9e8QNmaMxwIkaLNZRzFXklNsNQJcKvVzHdnLsCZ5BOPb3h5XCNuzAHtr/vDhzmjjZyKdwZlpvk2EsekXe7/PlSGnPnP2/VfzfXh4yL/tD8cLv8D3H7vL/766vKngdz/Bg==);lineShape=1;fontSize=8;" parent="1" vertex="1">
                    <mxGeometry x="591.9453898924514" y="228.92948313650334" width="5.23710449368482" height="4.763187721382565" as="geometry"/>
                </mxCell>
                <mxCell id="176" value="" style="shape=stencil(lVfLbttADPwaXYldcrmPc5r+R4A4tVHXDhynj78vVUGKl5KnyE2WOdLOkENSgzy87Z9edwOHt+vl/H336/B83Q/yZWA+nPa7y+FqV4M8DvLwcr7svl3O76fn6ffr0xg5Xv04/xyf8HvC5UApjCgOf6Y7hQL/u/F1ij8eTjfxKsTaxbNQA4BUKbQOIIlKAwAmLR0gKcV6HyCZau0AqjOpbUCk2HPOSpruAziT5F6kRAI4GIB7QFUSBaSTJ10zKZC1MiXuATIfchtQiFcABhxapBo9oIE8NKUSV6QFACqpA9ghIwA0ag7QKKE3NCp9aRirAvJgR4rSA4w0eoPVZi/rKAOoJTtA6DPdMjWQByuE1JNuhRRwqJEyewAqjbIqDTtSAhyKUE49IFEFHEokdnlgqgUAAokDBFL8htAnrlZY3sYhOotmWHzFDOkAi2m38xCoOoDANmN2cYkbLYqKz1RKHpDBkSxN3nFpdvk2oFBhrxLiYI7L0ecBHSmGQKHvxkYL9plK1VWfyYTOlP3MGl2LWh97mewRGWWurjgU6KBPA7j6iXIj3PakXjnILAfiV2ko1lvRjJv74hJvJkd2mGfBMnQZMo7JA5RnStsHCl4iWyUEzFCTqLnVhGEh2eLAvUamQgStWNTPH53b1L1VJvecBdad2LjqrYAlSmHmt1TR3EHu7WKlVyjAlmebmhsMgSJoL7YcruJhTUffXQJMmFoNFReP2p1mKsXpk4EHdOltH/pXUHFqC0zPN80J3Iy37VydB6D+n93m/x9vFx+fDi+H43H68rj9339q2K3pM0Ue/wI=);lineShape=1;fontSize=8;" parent="1" vertex="1">
                    <mxGeometry x="579.291417715752" y="250.14141715364838" width="1.935983531387683" height="4.005667806101246" as="geometry"/>
                </mxCell>
                <mxCell id="177" value="" style="shape=stencil(lVfbchshDP2afdWABAKe0/Q/MhOn9tS1M457+/tqu13HiPikeVtjHYSkc4SY5O5l+/C8mTi8nE/Hr5ufu8fzdpJPE/PusN2cdmf7muR+krun42nz5XT8fnhcfj8/zJbz17fjj3mHXwtOIoU8ozj8XlaUSvy78Hmx3+8OV/ZcKHJnz0xRACCRlg4gTIw8MIUekC4rbwJiI2kdIEeqGQDUH0kjaQCATDX2gEYZeShU+yPVSLHdBkggTj1AKYIj5UCBPUD1NkCZUvOABI7UzEPoAYkEFK4xleoBjDxkSuwBjQGgkI5ZAnVojdh5sMoAthqguRgaFRRDo6odoEXsoQ4AoZJg0KE/kuUN1iGtCr4AlKTCwoUBUMGRLCecPUARwJoK+xhQWo0I2rPVokpAD1VIek1bVEjTlan19DbCZ3Qk8+C4VCmDvjTH4ARkaQBstb+zk6hVGtchDhJNoAnM3FQPYKS4tIZ4BUCVNiI09TEoIl8dukYhxhL9p68riUYQQwxDJ7M8RJQm47eTnMBLzjRanCASVJDRPw8KCqjPGF3FAwqK4aMAlaELNFKQ1/kKSh7QQKlF/a14VZpbw0NylauwWUbrpQ6QoUjzULgAm2v0dbO2oKBuA/WKQsEFzzytsHdHP5nkC3fftE8+P8kmGWBfvP6lrUW8ITY/jM2jDZqtxLPIcvDOMCYu5JW4/zm8CexgUT0lbHJC+1c/QUdcsbbOaas9jte2S8XZw4FbVvev9lBjmdjvD+fz4uMNUJJc/TUYoSJ56O92kYNb0/ilfbwCh8j5xeOeCyQgPx99Ib1vbx+vz7Gn3X6/vOau//fPN1tann5y/wc=);lineShape=1;fontSize=8;" parent="1" vertex="1">
                    <mxGeometry x="567.5329554737579" y="267.4196774415498" width="3.057722060139713" height="4.149405140338058" as="geometry"/>
                </mxCell>
                <mxCell id="178" value="" style="shape=stencil(7VnJbhUxEPyad221d/vM8h+RCOSJkKAQtr+nhidPpnsyFcENidtbumz3Vl2eOaVXX26uPl+fon55fLj/eP39/O7x5pRen2I8391cP5wf8emU3pzSq/f3D9cfHu6/3r27fP98tVgunz7df1tW+HHBqfSxgKL+vPwwivT6+5e3F/vb893Gvkqs1j5KDMf2IUrIBtCbDCUA7NAsIEsmJ4pBcrQAlVQIoEkIBtCK1HYMSElisgCVRpxOQ5IaQC2S+zEgF1HrQ1UJ8RhQdMZkAkqWTnYoOID1IQ8ZbIch3SYOh4ysMpLkYgFKd6hVUjeAVGUkAujS7Q7IDItSC6I2D3FIIT60KN2WBgo+DALIEq0PMUpjAJS3PVJYfzkCuCihpSLJNHxowQMyixJaNHlAIXlAWLPuAGwHlTr+yAcVtZkOQTorjTEPsAEwXgLAkUDQ2SGHxWd5iZcS7Jv1uUvNfH1r36Sx7oED9jx1HvAwQsPZBxIgpCDYFBQp3L6rsw+srsNcbqWLGYDn7csk9TVh0kg8W/djQaWQqdCxXHP2Ss7fQajB2bN8daTfMnaUStYfQdLw8ST+jiTN8kSXwtYvz9BEIgkezRcEmIuNzdFnB64eK9UWY4haIop8qAVVT/Cpz1MebeFHyJhkdgRwXIepVlgekGebhxwosSCubQcYxOtRd4DIS6P41sQOLK4jzzm8AUS2Q/aiDVGKpJtRrY7tkAc2yheAbefUZiqPjqT2SFAXle2Q598roFCGHzsGSHlyyFHiHIUBwJQqSuMZAKulPlt4eyTW1GvUN04ztQ2AG+UIK5sLAAyn8vhgWwBWeKKnB6slTDbXD5hdrLyxnlOqQQJzuosOD+isH5oPa15F1lFp7AHKwlq8jsSRKN/jFrVrUSZI0HE+cYOqvKVFd2QcWT/8BaDYxEGE0YkSfYvGxHdQHyUMOeY0brOu+CA8MwkrbrNujHZ6NcRl1uk8PuGgkxyzQtgqcfm//P8v//8B+Z+mYnmyf0H+l+z8jVz+V9cFgcoF9OVwXdBpybXhZRtuMIM9jMB6tqgR08YAdYqDDT0ybml5PtxYCTjSh3PIWnOCBHuysut+mGel9FWL54qcJxk8D1iZYQVABJHEleajVCLV2/jbAxoVJLl6rqiJ8h1Gt9OqC32QTEPVDXuZXFJJig/s46oV5cj6c5mTtvh64s9tu2dU3HiZqArJMySuvJkNKs8A0EDscSGGkmNsdCC1D93bs/V3Dww219EDgFPzywaktNXL1MUBEiCdDxQ29iygOvtkY6+kTNVr1OWuSzpNp4Ld2LOa213mIaMLPb9T5bBnVKH+WS1UN1/fqc1FpVP7P3uX8rI9Pjy9uHl/vr29vPfZ/u9f9OCny0ui9OYX);lineShape=1;fontSize=8;" parent="1" vertex="1">
                    <mxGeometry x="570.8344901411205" y="265.7666192788285" width="9.922997454445612" height="7.8289868545712125" as="geometry"/>
                </mxCell>
                <mxCell id="179" value="" style="shape=stencil(rVjJblsxDPwaXwntos5p+h8B4jRG0zhw0u3vS9WQbFL2GAV6c1845aLhkNIm3r0/P7xtN8G9fxz2X7c/d48fz5v4aRPC7vV5e9h9yK9NvN/Eu6f9YfvlsP/++nj899tDt+y/vu1/9P/h1xHnqLYOCu738UMrlNLfL5+P9i+71zP7RjFqe0fOXbf3iTgoAGeKwMEaETsKGQAKsQbURCVeB8RIrihAYcrAQ2QqrAGBPPCQEvmqADlTAR7SUlb5kst1QI6UdFnFpwMeslRJe4iNQgUACUnnEDNMungqXgM8eQYAyUGXNVSqAQAyZR1SSJRADqVR0kl7hh5qHBFPgJAFJF0zBUNvCg1ExOQ19yRl0A2daDqgNsh72V56JWnmUfKwpJGtPYhfWis7Y494WhtV02sUQTw8D/RUnwzqz2wpgVndpJ5aLLwnBgG1RE076IoGBK9VcoZCPFh4GcCj4pPVYbTeZUAbAjoBhTzS7DZIPwHyBSXdqGkPscBW9m5OgalHGR50j0m7SIUyBlgPQg1AVTkIzhrAeLSV0SpngAY0VbjBi2o7UKYWBznPPDDQo+apLSF5lLQjZlulABpUAKHZc0Ay3wHmHNII8hqgmFEVqSIPnrIBBKja0tTVJC11Q+eQlqQ95lJeynoDUK2u9pBQU/NYEM6Txv2Q01JWVKVmlawfHFKyZherTg3sIS4tCsnHF/oB0rtc6AfYQKJCev7cblHLpRsiEJbV7YbMeDvSpUoFnYOzW0yXSpS0s+tnF+P/DdBllQERQQ7cRkNOgMMAqbqZiglORS6jXebcbeSRhzg2iwnIY2Jc3mWqnYqyHDLaiKWBigUEvI25BZDAOchWb8rqA+zpLNuOzkHqDFKQe4a5BYh0IvtZ8xkQNZBAKYP6w97BZanvn9HYo+sn+3GzmzSCJyD7p9OzR3oTCBKv+2QYh345gUXyZD1ktHFHapoTvRFQSeXSYwAN8rpUK0hyQ0Y37pLsxhrr0INrV0OrYB4+AuRqb9wiSGh8dp7q7hemZ+DhNGgmoOIrerD6ImUIgHqiiGbeVgepEZeXD1EcB6ghRDBVEjqiVazffvU5iMwiD/32q9tBxh2SvPnyMu1lJwAO0lgozuwrKqpdDftWAzKWaE23OSwYwd7nT2vT5QpZ/epbE+hOTy5Ze3SBdsv9tkHWuSHP017OHMTvlnjwA8Zyz5NNt0J7e8AVzn036HL2Hsmgj//1/fK2vfw4PZY+7V5ejm+t53+3j6vy6fgwG+//AA==);lineShape=1;fontSize=8;" parent="1" vertex="1">
                    <mxGeometry x="583.041839100347" y="247.189160897926" width="6.484581822128348" height="8.438233262639097" as="geometry"/>
                </mxCell>
                <mxCell id="180" value="" style="shape=stencil(lVnZbtswEPwavy5ILs/nNP2PAk0ao2lSJOn19x3VoCIupTH6Zssck3vNDlcnvXl9+PT97hTc69vL89e7X+fPbw8n/XAK4fz0cPdyfsOnk96e9Ob++eXuy8vzj6fPl+/fPy0rl0/fnn8u//D7gssS6gIK7s/lgZPq/j34eFn+eH7aLPdBtA3rk5RA1mfxflhfJXuyvkkc/997KeUYEILkOAJSP+I+IEl2I6BJYjtUiWEAhNiN2gWoF19GQKU2qEobj4QnkdiguTtxBeCQiQCa6AiI2IEcKQYJOgKwQyYAeH20IQWpkQBqP8AKyFJJKiUvcUzV7CQxQBTNI0DpkVKRMEY6F3HErTiAM4AmjXgpwyejW0ugRmdkaxoB65N9QJU0Rrog+fQYULxlgOolkeQrE2VUHInkEk5sCqgG8cRLALRgjfb8SM64FclCaAwAHQGIdGE7FKkjLyGUngQOPilj8qUqjcShrpmzSe9MbGix09YKyPRIDYEzNjS+Q5Fkkk8pzbQ6AVBSJNKtSRgBSD7HbGhSTT+JEllDcajRkZiaE2VbFOvXlmhuNLVFDT8EwjMVbhpDDbNSJQAVP5bcxqyjfDUVgS1Yoy5ItsmIRozIUUKxAHYksKvpcvC0I6ED4ZeRBpDBDBDx8+gmRI4FQteOswJir/N9LRAlN7tDYwC1fXSxgQF8z7XNDpWUEARbihaghGh8swJoYRJS1QA4E2m9JuLcWKQtUKJZVJ8B+J6OR0Yb3mhct8KtpgcBwFpKCDY1QNCV1ChSw7DrArgiRIs9UiAlCq1uecZRPROKFQ+LW5kNdWINBI4lX+k9bZsaTEwXUVOikaYGjLaBQ3qzHSAVkgXQwOkezfDUCNnu0NiR3OSl1Iv2qB5qsV6qvKaDs3Fg7O1rP/Em0hTQJiLz1wDWaE/FNEp0p1Gz5MNddGS+RUOxHf4XoKVzxAqAmCbZulybggVUds8qXZxvjsQUU9KpTzveRduU3o42lDyJ6YU1iJdwhfETaygBvMv/TbY6JpjaHpERAEyMxq2FGr3sMN2CGnFrnQoI9yxW0zXbxo47CmPvOk0FMr8g12LbLjSaI8m33NvMlaP20cURwLD3cs+6AjBeSjw1pjFCaZQEIP+buUEo30Ht5bJyt0JKF8NLnjZF1EOpFqCkAyGuJpcQSjbZyHGaqkUqf7K3oxCkNwPgsmpYA+lNAdmOQhBpxnwgMjOSWkYhxEvJTfddUBubMKHkx9SAo9ldMSYrdHHJZyQw0z3Y1pM+rc16KUW6gyar+eCGQLykSD4z6UtdG+w3xWZpJjp6aYKE82ZaeWXiGm2k1dGRFJRAGo2GCmQDI6gZw634C6qXsm1ZvlAl4NWO1Tx0KylRDxPH5PNcexe7QaVDB9fF1xq1LnsPlsdxuVIKc32Q9L6cTbynEUvoxhwtNzP+TskHy9UuZwTvrHZ2nQb2A9WZ9n05G3GF+X0Jy0y1juRiTfswYbOcyc0uIDaHIVmfesZuTCWH+c9XQ1eX48P7W6j78+Pj5SXW9nf71gqPLm+89PYv);lineShape=1;fontSize=8;" parent="1" vertex="1">
                    <mxGeometry x="591.2854641099755" y="247.6230978162739" width="6.2724040401262755" height="9.103402337354236" as="geometry"/>
                </mxCell>
                <mxCell id="181" value="" style="group" parent="1" vertex="1" connectable="0">
                    <mxGeometry x="629.9987820242428" y="222.6688167528937" width="81.51846450641892" height="63.03914880008256" as="geometry"/>
                </mxCell>
                <mxCell id="182" value="" style="shape=stencil(lVfZctswDPwavWJAErye0/Q/MhOn9tS1M47T4+8LjYa2CEWb6E0HliAXi4NDeHjbP73uBs9v18v55+7P4fm6H8K3wfvDab+7HK76NITHITy8nC+7H5fz++l5en99Gi3Hp1/n3+MKfyecdxTqiPL8b/riyE8fvk/2x8NpZh8cCXf2iYqs2wtT7e1doJQAIFOOPaBQzeuAKG3DDeAjZQBIjlzoACFQZgDI5PoziKMa1wHZUSodIDJFDwBCqd9SLFTAGbKy3h86JcogDvm2XgNkPTTYUuG23g1QqRYACORTByiRPPKQbRxKJQbSqJVC76FmCm4d4JiJ2SLqNheFEnCh60kfCF3CAzFVaevNAAmIqWoGLTzUAHnlPnIzHtZC56J1UQBNKgUjDgVAgWusswUw4DVHStUGQsAZFCB9zmloYEYkimIBDnkorazcALoEYKlolRALcCDUmjDZaCO2JT4G1AVLGFADSdqyJf1tKtN4aAQoTTlfpPWu5i8GTgGWJSwN/e0XakXiUxJTsgAk7+rJb0qgUij0Wvo0R4VkUTdgGWAqbAGo0GiO1oUHVMo0gzjaQKBiuRmQxDZSVXxEAE+lP4PmlIDI6TCQfA9gckB9sdotaSMtoC/GTHHRqiugNUZyZnrAfTF6S6uOGwUcWmcskxDiW99bneJ6WoNAaehEFfsM0jkReRh/m6Z1I/pjAJMYgLQOsDIM2NKXYdzUvCdVKQLptpg0HAyyisyO3QLmPbdcnUEqezvUM+RSY5mNeUADtG2cjFtIE+/dnIE4nWvD+MweMKlh98XaIx1oR7On9Yh6bfvB2EdQIEbyrH0BN6qtN7DP7fXhft17ORyP021x/t9eD/XTdLUMj/8B);lineShape=1;fontSize=8;" parent="181" vertex="1">
                    <mxGeometry x="39.360975110013214" width="0.696363426043542" height="4.191529248466171" as="geometry"/>
                </mxCell>
                <mxCell id="183" value="" style="shape=stencil(rZfbbhpBDIafZm+t8Xjn4Os0fY9IIQWVQkRI27x9vF0tMB74UaTeLcvnWZ/tGeThbf30uhpieDse9j9XfzbPx/Ug34YYN7v16rA52tMgj4M8vOwPqx+H/fvuef79+jSR09Ov/e/phL+znCrVcZKK4WN+wxTk34vvM7/d7C75TCU1vJBGwLPnK8XxNl8LpZbnCBWqkTi0AoUYaFQSSW0EzISx3BbIhUr7BcE+SkrCrYBSZiAQFgUWgbEuYbkqMDIlbQRSJdbbAiLE0giYVTHfFoiJYusl81sGKnGlsU2kKhSQAFNtjdaw+O16HJawnvhECmyOlByv0ILoLZ5qA+jDpKPnFaSFxUw6HujPPrHv8IGyfkUf83bq7A2IZ+78Cc8Pnf4j5jv/RMhzZy9KuK7I1IqsIt51RuML4HkpqEseFQDl2vGoJCn0+ifES3f+nXrp8p9BX4yUu/wRyPfnJ8hL8XyB9obs+QrrK3fnK46vm5ThlOK3EqhrQAoMsATtDYA8dw7NsEGETp8E9e8LWHCD6M7n/8gLFdcg0jJzru8eS7s5TaQ7DT17g225SKADWcrVtgRsSDIQkK5H5wx7hC0O3H4hlSVtr28G1XdRe4Omasp+DNs3A1qHku9zZtUI6qbEJetPC1eEjbeo7ywWGRSHmii0lWDLxQiMtkRwNphXQebp6MMgsBLUVtD2fBu2oDKNF89HUPnG5+h4lHfGu13Fahudb0u6eh7ZW33E7vDqKy3A0T01HvH2Rshnfz5aJc6b3kW8QA2cG/mZRwl6MSnOAgU7SH1CVKzQ165xd3l7ON8ZXzbb7XzlvPzf3zHt1Xw/lcdP);lineShape=1;fontSize=8;" parent="181" vertex="1">
                    <mxGeometry x="32.9351684376997" y="3.8418365134544388" width="4.959462242138152" height="10.418283187050411" as="geometry"/>
                </mxCell>
                <mxCell id="184" value="" style="shape=stencil(rVnbblw3DPyafSV0p/icpv8RIE5t1LUDx22Tvy/VjTar0Z5xAxTIw+ZYcySSIw7Jc8rvvtx/+Hx3SuHL68vz73d/P3x8vT/lX04pPTzd3708vPqvU35/yu8+Pb/c/fby/OfTx/P/P38YK8evP57/Gm/4esZFFYeMf+Hb9yddVP998usZ8PjwdA3okvIKKJKMAExyWwFRUjkGpCjBFkCXksj6LEWX9VUskvUNLciixIBkUsKyPknMx+tzkra6NIiR8+cm0WB97GS9Sa2wPoTj9cXP02F9If4vdbrjh72B2FucEat/ilTi/2Jiq/9VKrG3RomrvU6gTAxwgK0Him5SJYAkaWWQu6gSkx1QVpc65yrfoa6A7FY1vsNKIqdJ40cKEIVEaeFeymsYilLe1SBpjUN9kxhlvfm1UbeWNt83AS1Qo91EW4/Uygzl7bvTpcMOygFF4hqHZpRLnqxsNVojB2S8zponu44ycFy5pJVGOuYN0CQTgCvASiVVfh3wgmqnJscgvawZPkwZug1Q1JAepRMf+ZFA1rq7mST5nMVAdOpk723quVPBBj8k2WEkGdjBaBpz7vc1DBap8LQ+dfUC8NRPjqQFs5K5G4hb1fD6WJl0v82kgmnMqjRGPbehIcCI0e6TXDcAscEUIz0AxEvWpYFbXbGJwJkh+RzAKhgHtIaAzo60SahbRXNGCCgPbhYjk2/RKwKUhNoB31X/AnB+czfhkTy1Mjf1ecGuAIx97hTNG4D51RVwO1JnNrigNQSw4mpQR9GtrDoc5GwIYMl7AGAHlUaysW31pwMCt6ECgOv6cOt+g4jqjsApApjEuU9K3gDMaJsmXgFYGzPove1A2erM2eKQfvKOKu1kBpsh0XRaho5EA1bbDM0RAEqH8QoeiLbdIGMAxRLuyg//FyLOfH2daQj/XMp7QgDL4F5ddMNIdHIkV1LU6otZtwEXZf6PGuGFLbShQ3pZ+RBmR3Il7kwivINocCXSvIZH5Tp06hYom7wqyyubvD7oJA7eehYospRmmtiwk/O6T9mNwNp4lDgkbkV0pZ5TJZH1Ww7ob3T3uF4v1fhtHolCL1Cm5t12UMIQaKL11ZgoASDSRJkSyroGasKYF6xE9co384kM9PetzZnO0UgGahnvKwNrHwxVusUZ+MOhzGp0vZSZtwEFc32tNHBlU2m/r4nEoWwJw1+hvL+HwqFEmlbLptJjqMGO1HFGkSNtstwGnF1VmiWLbqOfSAsH90lbAZ5CaKTr7FQvAH6BRqRhB34fxhQE2Dr7iSOyKlBpNl1HMxAIW51J5GhgiiljlkKHzfo24GPC4xkD2tDor2Aj3yRhtTjyVsNJADt4YmZzIgfUhADWLu1Tbn/ClGqMJDsC2IRiSElCALtt7hOI8wCwOU7HHnG4gQTOAXk7Equ6XUx6Q7eydskBNSCAeSluCSDaWzvEDZCZl376E8vbAP/x44vOp4fHx/MHoeu/4xcgf3T+epTf/wM=);lineShape=1;fontSize=8;" parent="181" vertex="1">
                    <mxGeometry x="29.853168081585466" y="17.37684522214977" width="4.553714106495566" height="4.617696434549599" as="geometry"/>
                </mxCell>
                <mxCell id="185" value="" style="shape=stencil(lVdJchsxDHzNXFHgTpwd5x+ushypolguWc7y+2CiojQkZ5rxbUShSSyNbXIP7/unt91k+f1yPn3f/To8X/aT+zJZe3jd786Hi35N7nFyDy+n8+7b+fTx+nz9/fY0S85fP04/5xt+X3FMMc8gy3/KgZF/B1+v4sfD60Lcko2VuCUx2+Keci0eKYRt8UTWVeJCEShjmHytvHHlwXWAp5hqgBBbABCSUNsbiDPwTyRrK4AzlN02wDmytQ1OVUrApUxSA3ykBGzwmaQ2OnjyfhsQEhlfR80Sg7DFUDhzA0jhyXqcbcuLFEgYAIRSrVI2MNI5UKqplBMxiIMYCqbmniEBL0gkX0daTxi4VYRyzSU9MYBL+re4FmAHgNwCPEhPw0zMLQJl6OoTKEdXjciArqtuEgxIPQC7KdaAhR+2EMF3T4Aknf3e6ZSxm1zn14SNcJ1KEUfOdYEI2GgXW4BDGSFdRihfcUa0OacZgW2IPQAQfHZip9IAkHvAICE6lQZGN+V44NaNJMWRE2kBA25IR9cB+3JH1wG/U6fSIIOaweR/krTTaVAHfA/AleaTgFha+aJHZEQ/U8h2A1jY3LXPufoF7XMJBCJ1hSZbiuAF7dW+jlyKFAFfo29TKGnggNFB55dmStT5AERaJ5om0iHATqozUwPwqRTo9alMFajd6gS6VcfCXOeoXhFAGTBd7dMrUMrp7GprgF6RgJdMVzb0CqRSbEcmvcGhSZRczdVUZt91fcqccPMQBSDOZc6+LyZojuYy3d3FUd7cGHkXj8CXnStvm8eWuG3EUYXnMl3fxS0gJ5cOtljZsHjrSLRfcLvhMdyQuCUBLtJcNo+FOCgNmrdtVNGIze14wLDZf3L3HYrrx33Nfjkcj9ctffl/u5br0XWld49/AQ==);lineShape=1;fontSize=8;" parent="181" vertex="1">
                    <mxGeometry x="42.59631924620419" y="4.650040894754227" width="19.651731291714178" height="14.606513421361047" as="geometry"/>
                </mxCell>
                <mxCell id="186" value="" style="shape=stencil(lVnJchwxCP2auVKSEFrOWf4jVXHiqTh2ynG2vw+dKfW0oPvFc5sF1Ah4PKBP/Ob7/Ydvd6cUvr88P325+3X++HJ/4renlM6P93fP5xf9dOJ3J37z6en57vPz04/Hj5fv3z4sksunr08/lxN+X/QSZV6UUvhz+SFQCP9+eH8Rfzg/bsRjoFysvAD5Tt2eH8H5qVBv9vx8LM/i7UHn50y9W3lwvmSSZOXrsXxhEnd+P5aviUI08ikC+U5s/ZOB/U18fBuwp+tx833VwATk8zB3yGd4316G+4Z8HQ88lJ/vGyNlEAA1qMwGRaGOFOJwyHrjQL0AlzbiMCsUYoCBtrpkKHCCSd00Z+YgcCUBCrVQmFGQE1WURolEZoVKCXipBuL5CaJeAiaVbhNPmBqItD4hzoGTQoJMEnsHqbB2Nba1QhoEW6vE5g59uOEolwyaSxyROYTPDActICiXFA+mfpUyKsK+QqM+Z2vFFb53i4fKEA8xrAeuGg0XgW4R1BIlVAU0TrNNrQxPH7ppDkTrJAwD0eZQd0UQukOkOhemrvmIyoYWutmkXqmC/G7RmdQpgTsoIEzpW2IJ3KoYNfm9ieW+RrTZpI8o4NbKnylZhQgilwuVPCs0WPu4U2jWryhfOQ4+2Chk4Ncko5auCgU+4dojbBQKCLVSlEGQKiBaL1SLlWfwAL1BtvIJnO/RoCQKMimPJmojj2idqZqs0CeCvGMqbOUjCJlSjckJrf2gSmZLVor+DrJUhvc28hlUi2K7JJVPoMzXnfMR9NuePaigOswkaqieUunWn4gIo6MEDRhkHdv2L30c6tqomASSwSkHDrLny0jxA/noIA/7+DF1bAEJHKT05SoEw4Tz9qC5KxM7QBYIMA941PfvARLdl13B4pFSB/Zb2mAKUL7PvaAmdIH+bNXKI/8Xx3sJto63yisDiEOwAAXlGOvRBCc7NSk7lzIKsRrgimgDmFQmttSdYTOrM0d0qK+4m7BMLHDcL8mOXkudQC1Rc4mkCgj4eeBqaxKaBnn8/Uq3Ntf86pCOyFj/NtPgMrKiGSEOn6wKAumpO7dqs1pRe50s4euIgPB25dNVAaeG3sFUpBpH/h55yXCmxr6hqbzYEbgInjejHePL6oajXDJVW/tt2AZWO2/qgNoQ7bAlcpHBpPsKbkCVhOd+GU5cNwsdriLU62YqzzIwuO+lOJrvVSFiiMqYgtZ1Cu5+qxayGaIcYOAU02x2SDII/iiXTMMZO2zAFMFmr7jMDCC9m1u8xggRtyjMly6QQdvaoF03f6hjUKcGswUb0+crN6MJ7vH85jWNVckrN7sMVwp+c8w3bqYZBsxvvhmOOH6zjs/3m3t8vnsxwIOs94+nJrdYbzmNYSkNAxzX2FZgzM4SG01nwU6vCTK4m23if4xx4hle1RgTKQBHuqsG2Fc7RwZojAtTuC0J8MuhG989/VdcP1xfc306Pzxc3pJt/7evxfSnyys1fvcX);lineShape=1;fontSize=8;" parent="181" vertex="1">
                    <mxGeometry x="58.25644149772154" y="19.804277685441548" width="3.183035497025693" height="4.907569574662503" as="geometry"/>
                </mxCell>
                <mxCell id="187" value="" style="shape=stencil(lVfZbttADPwavRLk3vucpv8RIE5t1I0Dx73+vlQFHcuVJ8ibogwtckjOzg7+4f349HYYHL/frpfvh9+n59tx8F8G506vx8P1dNOnwT8O/uHlcj18u15+vj5Pf789jcjx6cfl1/gLf6a4WqmmMcrx3+mNEOf/L75O+PPpdYsvFu+pMMAniqXBZ6oe4ANJbvMRigEEMCXfBiQK7n5AiZTbLzhHAZScK0VpA/RNBAFClVuOMmVAUvIk7ReC0gZYip5ibQJipARYCtqllqUUKIKifSDf9jk7KiDAdbQWJif3A6SQd22ANg7UII6kHaUqsNPJTkZdctz/AElo8ZVKuY/neZI3+ArxqW2aMBODuWAKqfsAYEgJj10BoAVMwhafwNhpts7iA8yfxeIlQXw7QqPagAYvA7bBZ4gPbPERN8x3eFhv6fJHeJXa2uErwrvS1Ys2hkLHD5ofmXVw2y/Aj+zMJ1pIsZoyzhvMx/a3zjJ2j89unisQaraS9fFCxn7jgaKwlbixALgAvQIlMBCabYcPcKB7ghwUlP73MT9iGqwDCvPx3YIluMCfw6vemwULlMBAqNewH1hauB+QKbSSq/bCgy+4QKVNSe2FgJn23i6Z2gvkuIKj2m6N2ouISHLzEi5mQlkCx0Zyc8aLXYmzRdo3RGyL9okyCii2aIeVsWjGxtQJ9GhFF8UcxhEGVDef7atYwBrUbPi2D3m2tvv4PPvc1Vk7oBU6+qYChm1ez7oVjyZ1XF02eOTnFF+iwQu6GaiUeINndDOo9jTAWr16kw0e8VN7fhiMnOKzzV8wviTLP7rYLGfXpr/ITHCn7gwPj90A5Hc/fVf8EK8P68X05XQ+T/fa7f/tRVZfTZdg//gP);lineShape=1;fontSize=8;" parent="181" vertex="1">
                    <mxGeometry x="18.940240685856736" y="24.658302927882403" width="9.556077865527106" height="9.350953889609093" as="geometry"/>
                </mxCell>
                <mxCell id="188" value="" style="shape=stencil(7VnLjls3DP0abwk9KXGdpv8RIJOO0elMMJn08felasgjUr7HKNBNgezsax6L5OFT95Q/fHv89PXhlMK3t9eXXx/+OH9+ezzln04pnZ8fH17Pb/rplD+e8ocvL68Pv7y+fH/+fPn+9dOQHJ9+e/l9/MOfF1ynUgcohb8uDyKV9M+Dny/iT+fnRbxRjEa8kcRjcabU7L8XakC+Uk9WXqh2JJ/ZyI8n+Vi+UBcjnyNVQfJSrHyjVpE+pRv5kokL8k+x+pROEo7lOyXr/pqptGP5GClYh9ZGBSgUKwVrMQdosRLUrAmsKgGKh4+sDVwpgRNyomRJZqbGACAkNuq4Qa+q01O2gE4VZEFlyskDEohT9Ulnr1JCeRaI2XspA+Jao2BDjxMkrieqlukqkLjOxNZL9Zp+twEyc/0KCJAHidQtoKijQXpKpuDyR60CKimArZdGsCCV8vx5AUTAgxSKDtBnhhwBSvOAAmJJAdI9AMWSVOJNpQCqpKjXLQ9a9gSd0HzVUEBHNmgZ7dsJyK3qE95sQCcIhQ2QEA/aabIHVFBbFdCrB3RwQgyBwhZMCVm9VTIFMApX8Q1UG1DBgGRVKg0aoURUy1y91rYjqsU1iABnALl2qLV8o3DVocSq1CpFxNwWrl3HAFArFeAahBbDhk9ga7QE6jiY2KacOjrfATQP6JjpYm0Y3KOk7n74ETyMydZGRzii8G6zui8AQSds89IAoGjV0lc3lRDTZYbaavSd8p02t95pEDZaB3GIhzJpWkMDq+Q6+3sOHnkpJg9glNN1VvcFUHBHadUD0DgzFNhsyDj4ynYCHAXErzIKgKGxNYj3gD9M0Y1p6FbZiJM54BzasEUr2geGl7YEulfIugcI8hL7fWBpe0fBJFsGoaVyhOuW1HwnIdgD0OQ6Um6jWv5TwDZ9a4OApS/5VVpbECwbiYKN79HkULimORSubRTlaKK4LTVwFFCj3eoX5k5xBHDjjA4baPUbC4FVSccZGN/ZE1cyTuofC8GPheB/tRC4tlgCbrw6W7iFIOPyrQXf5qgu7bB8l22DiLgtxjkJXwE8rTq6qXBE8PUe7DYgeBu4wMm1ZX/Rp6UPFSaungcWuBCoiW6+b3Hm1O1LrOt8tAASOGGEv83RcekEmE4yTVxsyMCtaeso6qUKToh1ztrLrVdEgDD3toVpAUbzFkp9LsC3neTnpbHtopSm5rJH5mx9U3675tNsQ7d2wV94ZRx3e4GJkIHgt5mEL2d1q7UMR5keO/BPdNNhgTtlnKXkGqNzHj2gy7knzmXrQDxZa/GSnv34EuBqmP0qqZUXuLL4ChHgJUal4MUDfDPhAhMP5TybxCIOBgSew+6iOxC/VoHFM0CZNjeOxe/g37t/XxDmtfKBuLtuinMxPBL/Ny/M7orrh/d3c1/OT0+XV3vr7/5dnj66vAfMH/8G);lineShape=1;fontSize=8;" parent="181" vertex="1">
                    <mxGeometry x="14.620765444979043" y="36.07727331006748" width="2.762856665606689" height="5.724222865907123" as="geometry"/>
                </mxCell>
                <mxCell id="189" value="" style="shape=stencil(lVfLctswDPwaXTEgwec5Tf8jM3FqT1074zh9/H2hqrJF0FonN5natQhgAS4HeXjbPr1uBs9v59Px++bX7vm8HeTL4P3usN2cdmd9GuRxkIeX42nz7XR8PzxPv1+fRuT49OP4c/yH3xPPUUgjyfOfaYHJl38LXyf4fndYwIWyb+Ceql+HZ/vvmTyvwx1TyQ3eOWIBhEgxtoRELqwTNN7o2gA8JfAFXyiXhiBMAmKQTI5bQqECchSSJYRMJa4TYiSpDSFmYrdOSIFCG0OKVEEMWYjbMudADLZUmFKb1uJgpYvuuA1aVxyIoarQ2qB1JSFCJpGWkCgBaddKpY2hFqoJEmpoCZUcqLRjtlErQwBj/ES1hHiH0H0hg0KMr6MlIPWNG+gId9IkrZgWeVhjcBd1RaXTDitdEBUSsuvShKIulLq8RrylmC1BMCF1W3KYYGbxmDeU1jLnZCHw//N2rQ5mMtXLNFwttXQErA0rpjJ34Uflqk2KCX1D8J2u7sTngTRud3XALdQPjgROrRujqd5LU+q0UcExN+64i6GiDlJtdPqGBK1TPzfQli7S+WjQnyak2etcCBlPV9cVTmaHc/uYi5agxxwallkbwhA8MZBGdjatelQX0KNJbKVTmgfJbbsRZr+zsBsFFC5E2w9BZxsIWqJtOanYlGVKbdDi5lF1m6CerSWokw3oqA7WY6mxrKhFKXXOFbk+lZ6pM5zd3hppNeIgQUyuhTtoTHieiNdLQAXnAs9u8wpHbdaNR4bDjme9X+EB6JnnyK5wgZnx0cAdmFpsm4Vna7ICj8XC4WZyBwciuFRlAQd5d1YECgdVddamXUS0Av/UxfEuXB+ud9SX3X4/XXGX7+2dVpem+7A8/gU=);lineShape=1;fontSize=8;" parent="181" vertex="1">
                    <mxGeometry x="31.480671573562574" y="24.759409420722818" width="9.167497400295328" height="10.622496248410195" as="geometry"/>
                </mxCell>
                <mxCell id="190" value="" style="shape=stencil(lVlJbhxHEHzNXBO1L2dZ/ocAUebANClQlG39XtEeVHsqqjsE3rhE1pIVGbn0JX749vjp68MluG9vry9/Pvxz/fz2eIm/XUK4Pj8+vF7f8NMlfrzED19eXh/+eH35/vz59vvXTxty++mvl7+3Ff692fVsIW1Wwf24/aVZav/94fcb/un6fI93lv2EL5bSOb4Fa3nCZ/Ni/VqttAmfrHuB95YLre/yOb5g+0T4LM6fm2VH9w3iPDmYi4Tv/RyfsNyMr9aFf5Ln8/SxwCE+Vqvzfb2z6oRBtDI/mE+DIscGwXyfDZp1tQNcNBuEYEn4FAZlvjOcWvQd0mwQvfZSsjh7KeJdgjDIvENy1oswKFZnt6ZssQqDZqHOBt28YDYOQEcCF4M40naAOdRykS+N9RrFTtcG1RqJhRv0PY7OOMRnN/DWxQ6lWwqzAfir9ALyQEfK4+2PBcxZJINqQURoww6kGN2iuHRr1uZ4gKipeOh+SMRugEsLtnbQm3aAagsuISv0+aUr7qB2AL3nd4DwR6F7MMjzHeC3LNiKI6U5gOC3Ih6uR35p+E0pX+tD2XeDNNh1bABhJC2GLomYXpNbb5JLYE6nHbo28JxOYNBUiIJL88N55waBj2UjcMhtWyhxjRY6G0RxCaT8nNhNRXDDgzq0Qx0xdWzAugR2KdXwnLG6Fu+lSAKTusT7yPgk8SQxILtKuev60aJ4MqQSui+kX0QC/FMZryIHgbisr6rCwGKx4VXFYLEwXuX/ZC4xPkt8XtZX2T9ZK+x/lQf3mveOD07wIQ1hu8MXef4wayn4rP1ZAuOTuC/YUhmvtDos/MmjCj3hT3zXedyiu7iv4KdbVDTJ8yMeA+Od0B/gVz4I/6MGofcKsktwC9+C7HL8IrhBFnZh8f+v4tH7Ba+K33fifTG/BoAIsK1LXBikimUksbyEjJLELU2ST4vsTJGJ1yDrYgfU0mnJYqrmKmjtF1qrNIBiec0bTtW+bvz7vuYSl257m3VX1WXx0vg39VGoG1VbtFXXtIMfI4CzI1Epi7JNJSesl+ZoqzqasR7Jb/Wyfq+BWzsUhop8aFHcvAPePqjGy/ORCkpZwaWcl04tyw4B3WuZcz46taZyZhq19G4QRtCeNsDUz8JLakxQR8jvBnU0e2djAqrrchpd+ulshDpmp0cdbuSZvesvstIMfQjjbqAjbpsvzTEdi3VlUDh5Rq8N8ojgfVxTZbbdyiOa7wTZMW/10fxwXtf7uAMVeD6NlHps0LjC9l4PhBzPOSFUmkp1vkKRc9fYWbuTvDGih2RPjwjAS5opBJlAESmUDzXtSho0Hng3eHg21w2N8Co/18a9uO5i0btHxkexfut8Hj1RRKKkFjOMnuoY31hakuxI0UJTxZNkUAK/zMnlfKZzCY9yR/DzbmpwR2hBOGzQKePIFhl4TsvaoX2UNneDdTVfatyTNjkXBN7zhxM5g6s8NsGG6kNL4fTXBqNOR3aR19f49334+SUeP/z/lenL9enp9pHq/v/8VQp/un3Rih9/Ag==);lineShape=1;fontSize=8;" parent="181" vertex="1">
                    <mxGeometry x="39.19464330298473" y="37.98686767684086" width="3.1710393426934993" height="4.382051083417425" as="geometry"/>
                </mxCell>
                <mxCell id="191" value="" style="shape=stencil(lZfZbtswEEW/Rq+DGe58TtP/CBCnNurGgeNuf99RDSriUL5G3mT5XHJ2UpN/eN8/ve0mx++X8+n77vfh+bKf/JfJucPrfnc+XPRp8o+Tf3g5nXffzqefr8/X329PMzk//Tj9mlf4c9XVSsnNKsd/r28ccfr/4uuVPx5e13wg6flEtd7mSyJfO148FX9bkCvV2Asq5QgEQoV7DzIFd1uQHPnSCXyCgqgC6QQBC4LGMHeCmCiDqPphh6SCfFvgPEXfCXJscdsUSCJJnaBoHlCiyYWOr0KRwQYtSQuvaYN8KJavkDf2CzMxEHArs/UGBfFRLI8CxOQGh1NAPA8Oe5CxxbsVzwJ542+hBO03AVUe22MaWXkGnc+UjL+ZKmgaad6teBR/IR+G9UF8pGVnbT9oMR0reYgPWF973g3xB4NumbMrvkJ7qol/hfbIRv0nyMehPguoZyGXLY/7q/bxv9/AaWhIlGAt0MHhDApOG2DgA27IwR6B61u+UIYBkoHH9viBF1BAn+Vzs3bhGTdMoNxvUBwF1DGOpB9xOVAAO3id6X0PpNiqcPsg1hrqh3SM7VzbPuq5HULLUR/antuXCbZt6VWArivcYrJcVyK+EBWK5uQrsO5KtCeHaKCB09XZUa1BAoU6103fOXoWghjNgzMZXoDH8+AUwzPmS7E8GCxz31p7GMWn2pQxjmdtg/+D99ieYtePIMHzHAyGR5fF1aBdKgI6vCnwKANqkTd8uuOxXR81zae/Uu7y+vDxSfRyOB6vX1Tr/+0nlL66fn75x38=);lineShape=1;fontSize=8;" parent="181" vertex="1">
                    <mxGeometry x="7.365641432043958" y="44.66673110980037" width="6.579056345954565" height="6.329143877144481" as="geometry"/>
                </mxCell>
                <mxCell id="192" value="" style="shape=stencil(lVlJbhwxDHzNXAlS1HrO8o8AceJBHDtwnO33oTJQp0VN18C3cZvsprhUkdRJ33y///Dt7hT4+8vz05e7X+ePL/cnfXsK4fx4f/d8frFfJ3130jefnp7vPj8//Xj8ePn724cu2X99ffrZ3/D7otcqxdK1Av+5PBEl5n9P3l8UHs6Pe4VMwSkIpQQUlJJTYOIAFIQ4TQqVWj6Wr4VinuQLpQjkA9U2yWcSOZYv9n6Z5CNlcOAi43VDXofLrspnpRIn+UDSjuVToqqzQykB/8RCWZx8AefVRlmdPbkCeTM3ev+A84ZEkV28CoiXNErOfqEKAiD2/TArZGrAIkvINmdcwEVQSecPhEYFhCxTnjNU84jh9RBTmUsmKjVgT6JUJ/nEVOD72xyxVEjB+83a+byWswn6J8z25DaeHAUgzAaVSBGFeEvJTaGRgBNL8kVQlSJSaMTzFyr2kVVJm4PWeITxukIhmb1qUJlBIehW55uCBRIgqVoeOQUMjb305zgYPygIXLRDN68QkULypWAmITQy9FL3BWMgELi4WbwpRAogcKZQ5uo3BkogcP0LM0BWS3hQ/naG6BjN0hvEIWbi+dCVB2heV4gjmbd6MC8hUgielUuA9RDZV1yuVIGX1P49V1y2dARnMEx0qJTDwOWj9OaZSDKPhD9iqjZ7KVmVozPYoec4GFBWEDhDPlGvgJodg2JHninD5OvkXb1CBm4VM4lfY5LRpy6HRkBm6F3dGSpk9DLyYBcGJJ9Gwe/jDDBDPLBmgR2e+AObfIDyeXm/gvoXT+cmnxH3+AbP5BH9y2g+doUjKGAeg00+oozwDbbJZ+z/xR4UXx6n28sDEmHP5V0e+JNJ02I/8CeTLPIIfW2e0cX/ALh4wS2BUMoDpPb5A/xv3dSan9Cfjp56/sPzliU/BeYnL/YwrBeV5f0wn9Niv8L6Wu1HI6ws7a8MbjuSX/KTUfs70Gwnr2giorTkG7Y/rPWI47XWI8zPssrD/H+dfPTxNb4QwPNl4dQKJ3BZAMIYD/WYRpEuo42EIWNY2+BYO42twiHNO5PiaI8Op+roFRCoWKviWMlMUtQ9yRjrd4dW1D3FJQ4FDu7WAbrC740B7jFXZEdjoHWxbnuVI1wuxbBwWYXbGevE3fanCNwN9F7fzb7p1kTk9kU2+6IxMLaBnrvxA+FvYt/F2oBzQ8Exso1QFS0s2DelNqShFY3NXNkpFDxoZh+41vAYGPwSSJjhFsim5ZD9JyqqoOT9atMynHB4GU0NmIBCX2VG71dUcmuv2XAv0pHMLVJugGscyLjLvoDYbWs+dvmNKqguuyBc09njWG6joT8YPzwE6BgLD+hKl4ELtV+6TKV84/0ui6JSgfa7fbrhLNreZb81Cg1GeNnPhgCTVNRvaCTBgNkI6zfADAeovoF2EwtmqoXaFGKFVX70K3XU8BtkuwUtwwbGmNjtEjESGYmxOHnkH6OkxM5+lEGl+CsThQ1t363O/rcWDrzfIMQxVIK42DHKlTxs+NvSQW4ZdV1+WdgJw0WRAb+/Y8E7RFNwaxzBITAFNyQLXgp0BfeFgKc0XuZS01DkpubT1BRQnDs/LjbdOLXrdWS7vTtScDvyfp+JUqP5FtIUUAvZmoffroBCXZfIKax+U3Bo1BVQHF59iXtbwX78vzP+dH54uFw57//v75jt0eV+Wt/9BQ==);lineShape=1;fontSize=8;" parent="181" vertex="1">
                    <mxGeometry y="54.389970165216766" width="7.985227190974911" height="8.649178634865772" as="geometry"/>
                </mxCell>
                <mxCell id="193" value="" style="shape=stencil(7VnLUlsxDP2abDV+W17T9j+YAUqmFBigr7+v3IwvsRSfwEyX7ELQiS3p6OldvHi+vXy83gX3/PL08O361/7q5XYXP+1C2N/fXj/tX+TTLn7exYubh6frr08PP+6vDn8/XnbJ/un7w8/+C78POE8+dFBwfw5fxEYl//vmy0H+bn9/JJ8oRC2f2lqeqbX3/L6P5L0G1AIATDlpAMc1IGTy1QCACjEQFw1o4ITkKRgdGtAhiU2MFxq4Uq5UZ6WTI+fWgJIpOgPwa0D11KoBBACoVLwBACtxIJ+NpxMAZMoKwNBxbKwUKyV0QiHPM8BRAo7jNMg/AEFOqFDpqACJPLLSZvUN4GAAiR/yrIOv5MCVaqakAJEqAph4EL8BN4h8npkhSQFRL+gA5RFPS6rO3K4UEVM91dmkhQJD+TLTSDIIIEWXn3mazoVanfUNQ6GlvsphWD4M9V7lISGC1hcHQY3ktLxDfIgjRI7k0f3jiPJXeY/8lbS+bii0zFxZ2T8A/khIhvk+iRjJm5JWiQEfJM+12Z7eUUMHMNU5AHoEA4s2T3Gu4r5QBJRokYo6gUd9OA3IgzKbTf2oD6cBkqQUII0wPQ2QvkMVWeEJoEVrJ1oRZFbvNl5ujq6D6qsjVKbLkRpI1k0K2Ey94rAjWF+pFGLk6qLJ1MMVAfIg8wZgKiD8W6I8X0kIj+JByKQKvxA4oBoo/dmcMMQMAejAhhvimYDqOJuS1iCZ+o0NAAWE9CKlakAG1BCAN0qjNCbNCyulpQ6iE4ru2LrvUWKygAQzMW/c3AAB61BHZd0AkqowQOXu5obvl46bUx+fcRyPaeLoBIfMKuRzGgCVboZ8kitBAZXf09SQmEapz+nuXxxXUJqREjdnDckjAbXaJrkK+VATKQDVpgq90YwkAKc8LW0nyhqsS9BRQl+RyWaBimNU1dHGcG6TgGgmRmHvUEbuPXIEDIhCWTkC11EBVHWliCeSqicSoSt0xHsBna6z0iwAxO+grSQ9IIrR3s/M7CsMe4EeL6ruxlHrV2VU6dBndnSlMpL11myU0RysAHp+ZjhniA5N7TECtpIMqzM1pHOFvYMbjfNREwfnZ0nfcwBJmwhH+jSMuAW1VHYUot4002X0K6engaY3YtJMo22PUK2q8crBdua/zMOAqx/z8Mc8fHYexoRW20gPM5fMzyoRldE9rCLMqdI/NlCrEM5qWsUjDCfdKkjMF1wDVR0XE8HWmXWyFk5DQNPNuQRxxh2YmnliHYvu1ZXU7jLF0WKt1gyq8KeEV/lhDF0bII+h/a0r4a0qvnXpjAEn1toZzs8nFucCAFayq3kBJEA+u/zvAEA++7zQAYBL9gGjA4Dj7BNJynD2tI8wAkApw7zyiDxa5ZtXJJFHZd+8Up35fafXKv3+QGGnm+bOCnCfbUlzFDpoiJQE3bQ84oTTy7CEV/J2URVhZFr5MDLgSl7pi7d5Vl8HhztrTzzFG3+deS8zfIh4dnzvq+h5efnw+gR7s7+7O7zgHv9fP9nKV4fn3vj5Lw==);lineShape=1;fontSize=8;" parent="181" vertex="1">
                    <mxGeometry x="66.20280427503934" y="31.143525697536575" width="15.31566023137957" height="5.661031152327905" as="geometry"/>
                </mxCell>
                <mxCell id="194" value="" style="shape=stencil(lVfZkhoxDPyaeVXJ8v282fzHVi0bqBDYYtkcfx9NpgxYhia8zeG2pVbr8OSfPtYv76tJ+ON42H9f/dq8HteT/zKJbHbr1WFz1KfJP0/+6W1/WH077D93r8v7+8u8cn76sf857/B7wTlPHGaU8J/lSyTn/334uqzfbnaX64Wy69a7REUgIOQOIIVCeuQEnygxAHgS6QAhERcIKL1JMVJFJsW2XwOkSCEAQLasZk8R0CqBUm9S8ZQBrT5S7E0qhVy8DYhMyQAyReBDYhJjUiIHWMpMxZwQ4AmlUow9S4WSuw2ojkqwAAekUYOVhgIEARIFbwGlAoDu1/tQmBzyoVIwLDkYacdMzFYbEQRCj8jGJixXdcICMhRT1d89r6q+CJyomkEGoDwgmmRIiAppqkx+PAEA1GIZfUByTUPKKQ2gzijrMQ9xyBDg+9I3RxqoTwHF+OBaKK8DhsI0yxUUJuWkDDlacY5yGlIOAfyVlINJHSkPANQgVK25T6BcKSF516b+C1phPtTGyQkgVFHGKcAELsA2OpvU06pyhLUyW5bmBoFTNJsTKpT3wwDtgblPIN2iAlqT2I5y9up6k5MmtROgkgBAULWaceZcbq83Xm2LfQZp9USRE25168Jrj+cZkxDKKxKTxrXaquEBrWFIODUI7C9NaKfpJ8Ha7drf03iVYNlj2310fgvAfq30vf13BkS2dfvOBDrsf2fEHfozHqHZhsvDCWNgR2AKOEq9PF0rfjdiaxrIaYi7IR2TXwylrBUimOUot7Jtf3h5sdMgNsZxKwX/56tTHfMDVOrFxffr70RKue/rJxbCw1e1u+v14XwvfNtst8u18vK/vUfqp+UO6p//Ag==);lineShape=1;fontSize=8;" parent="1" vertex="1">
                    <mxGeometry x="661.0889412581886" y="232.63984254177677" width="3.592063103284454" height="4.533786525971027" as="geometry"/>
                </mxCell>
                <mxCell id="195" value="" style="shape=stencil(lVfZctswDPwavWJIgOdzmv5HZuLUmrp2xnGvvy9UhbUISdvJmyxzBSyOBTjIw9vx6fUwsHu7XS9fDz/H59txkE8D83g+Hq7jTZ8GeRzk4eVyPXy5Xr6fn+ffr0/Tyenp2+XH9IVfM84nCmVCsfs9v4lU5O+Lz/P503heng9UcneehdhDwPvfDSBCIQKAUOw9CkI+AABTDT0FplghQFwHSJ4qconJ96RTpYpIJ+LeQi6U0z6As7VQhDKwIIlS6gGJHEhcKOQNIFMFUUpKWnpAhWFVij52gOoogrDWSL72AE8ekK6JcrAAAWGtxXKoTA7UUq02cVXIFQgoxqVAkiGgGtKRMraQDIfcUrlHuhgOBUcp246bwoA4pJamBSAjQKAoFoBkZor6ykJAAE+ZLenEAOBa1BdhDSgPzqrGFAbkkgKMS6E5uQewtSQkyCVPxVhgnDhZ9YOnAHpaPTYyM7UoIq3Kt2pRRqQzZWcBsJa0vKsl/f6J3QYqNqwVuOSdI2d8iiRImLSaTbkmKN8K8CZzWI2VtTOA2lpkLxFpBUhYjV20gIJkQwHpI4CcrTAtIr09g7TYnDVRQXGEtEGCgeDrMsLRJiKCAmdPcSX4qF51ebAd4VpBbgLiahUIbcHZNmApa5yR8q2KW5eZCNKmQ3y1LTFImo7kXmOibzvjdkTtYhIYLohsB6hwk8HtFLf0/NtYGfZmINd/P0JN1XHfp1fgLhnssspwJug23ifXN0HebjGrEg6GprTxcj/OqOOtM7h7vbeh0fO4U0ymHL4pBCtAeDb5aKcfY39iGxP31MKrTrLhDHC4fvju9d/z+nC/6L2Mp9N8T1z+by+G+mq+VMrjHw==);lineShape=1;fontSize=8;" parent="1" vertex="1">
                    <mxGeometry x="650.5542067392514" y="253.13671735375374" width="3.8986494097398463" height="4.347689067358078" as="geometry"/>
                </mxCell>
                <mxCell id="196" value="" style="shape=stencil(lVfLctswDPwaXTEEn+A5Tf8jM3FqT9044zh9/H3BamiLkLyZ3mQJaxDALgBO4eF9//S2m7x7v5xP33e/Ds+X/RS+TN4fXve78+GiT1N4nMLDy+m8+3Y+fbw+z7/fnpple/px+tn+4feM80I1NpR3f+Y3lXz49+LrbH88vC7tmWoY7LlQifcB+tmNgMDEGQASsYyASkkAIJDUARA1BgcAnsQNgFQpoxgUkAdAFioVACKl8Uglw6C9IxmzJAnWIXji0YMUaj/vAaIjP6ZVMiXgITnikRkSSUAdsqMyplU8BQAo+nn0UCo5UIfqKI9ZKgypUT3lagGuAICGGC2AkYdM4i2gMgAIxTQCAvag7DeA2Om4TT7nyI2FUPYVFHWlMvK7KL9xEDKeSRxFFEShUEYAd9VuAxJFA7iqdhsQKJgjaV4RgMlH66GAGKSuPDAshCpSZJUlIDlVZK22Dhl5uNZ1WWlQuNYkDL+VTAggNuhGV6BRzZKNgWHb0DqsAYw1yqsuAEWdba9UQEb0LlSNHjzWgw6clUY9VpwZo21AgPbdAKbPCA669nGwaK4VeSi9by3oHT9Jq5lZnhJgawOsFIcAmpM0HkkngAfky5r1sdIV1yF5K6DWqUDXiGz1oIlGQy44u/8s+vN2/74uI1cXAicEu1UQAbaNuOpLGdozFcNugTGv5o+uSwLKpvYjVRNue84yNZY+hbe3KyuFUIgTyk8cC+BLXzy2edpZfC2xwB2A2S6g+sYhgNg9xnca3qOQqRj3VeveVm9I6uBepe6jGHtGt4bYw7vZIwn41FfTm70H+fHZ3mJcT8C2vdg7hu6RoE3opYizyX9G/1/tOh+ogni1SfBYrwTbVrM3CqOMz2/4I5Bv/30r/NReH25X0JfD8TjfYJff7ZVVX83X3fD4Fw==);lineShape=1;fontSize=8;" parent="1" vertex="1">
                    <mxGeometry x="637.3753703270883" y="270.64601322304" width="3.812199607114235" height="4.186633296095897" as="geometry"/>
                </mxCell>
                <mxCell id="197" value="" style="shape=stencil(lVjZUhtBDPwav6p0zPlMyH9QhQmuEEwBuf4+2jjreDRsU7ytbbVnRt2SenZnVy/3N0/7nfLL6/Px6/7n4fb1fmefdqqHx/v98+HVn3Z2vbOru+Pz/svz8fvj7enz080SuTx9O/5Y/uHXCcdUdAEp/z590QtZ/fvN51P8w+HxIj6TyRgvVEC8MPU2AFqmLgCQScoIEJK8DZiPUDMpAhTKNgBKo1K2AaakfQQIZXBoa8R5AOREibcByUjHtKZKBZzBf24BIKSIN6E2bsky3FLOxGkEMFkHgBp58ESLAUCnMq6gSgnw4Flvo5akkqAtdarjoUWpgxVyoxbERwkcoSi1URm2rvhmfPUUjtLjdcE34xtTlhDPgDSvLRtTKsRAFa1TDqog1e347ukb451i8P89T+0FFk6vayGe92+wHfVOwlESGZxA+JzBs+q8mFFO2wQwagkAaiw113UBLc9XUItbQrXptPFYCK4LA7rrPOnCiQDC61O7cIAgZRilGgH/NrklDbYIQLW2DKYSDy2ABxeTaUzrO4DQVJ04Q4euVAMPthbUFkBDy0tU0QplAnhJgZbXU+yRige6ExcmugMKIk6o8gQAanXx6QRAWvJ6CJ5hsR24RKXGtCrQ0lKiIa1GjLcUpqFrqQIeHBBGz+JTQFq9puNw63AF58GmAkKHXpr3BGCk1hSN0rICbvd96hoN9/uYVl5LarPipu6N7OSHAc5DD21G17awKb4wggpWa6I+mgbxvgQOXX1Lo7zr6pzejrc5vgGei4/MsCGG1VDcuQVh+EhEPqmvFv4MaJCFkqkGFhLse8WmGdpg7y4cLbfb/ASymss6xM+Aiq9KGgeW23zEs5v6Gkx9h0QnjcT5JhPIkpXJv7lhBSuYxPlTBfYM79TBsVYXH+DBC17HKd0MqtUviHVk2iswg7S6mGUELI0N3QLimXuHN9C0pvAiPoNqSKsLuYhHHcbWW9FFfAfC0+nWw/jaoMTzAiDe3anEeDTbOJpJjzegOqY0SqJ7twAamglu6z9sxAdHvzg/UDYcp9RiLYEgXNIhnwXeGD76Eub9eH/4/8bn7vDwcHphdPl7fEPkX53eLtn1Hw==);lineShape=1;fontSize=8;" parent="1" vertex="1">
                    <mxGeometry x="641.790895303255" y="269.07852051481194" width="6.092706751638434" height="7.979033385785533" as="geometry"/>
                </mxCell>
                <mxCell id="198" value="" style="shape=stencil(lVjZctswDPwav2II3nxO0//ITJzG0zTOOOn1913VpSJC0mb65oMrEsRisdAh3Lw+3r0cD969vl3OX48/T/dvj4fw6eD96fnxeDm94dMh3B7CzcP5cvxyOX9/vr9+f7mbVk6fvp1/TE/4dcWpBJ1A3v2+/tCipPD3l8/X9U+n58X6LLGO653UvL9eVWIZALWIJxtoEjWA2M+4DWhSwgjAkdw+wCPCNgBKlsYATfJ4ScVLJoAQpYyAXKR5AmjSDCCIIzvEJG7MQyqS0z4gOZvopFIjASRJ4w7YsxTCDNx6GgCI6t8jtgFZdDxSCJJIpouK8wPAFykk6BIljpn2SFwjgCI6ArSKJ7eUWz/xAhAYwIk3OzQadPLi3WoHAohNdMwDSopxCURwph56RW2vx9/jibwUcql55k1f78SxrDlpwa4n56+rK0WSSbFBT2IcS0Eie361tKvSyPmb9vDmBATKiRbsgZBiJZXTcOBxB4TciAq3Ii6PAATFjtSkjjkLRSLbAQo2ykWoUlgMbaUvnBatWlGNKsqDNq0HgEYUDNdqYoieMgO9MuoKQKjXvNV5ABwpZnApJxsDa59oxyXZa1V2ravGgMRVljgAVtRILA+o55HeIUtgMegKkKjkoYC8IV+kEoDEVbWAwAA48WqHyK61SPUW0IhKgt6t2KBpHla+B3lgNa1u1tFFqqkwYYtRNtDSMwe4MXNgX2X3OvuiBb9Z80Ei0hgDKijwGjXdZKpRRleIdbMAZZlDCQcbA/PQU4Nw9pYowHUZWuSBFsQmgPXE0vM6A9BVCb8rzJsxAan7v72uaxwrZg9mfKq3AC0fmTfj6xWJI2wtwVqr1vV8z8gY9a6dW9tGCS1uLGmdlW17g7nHLgCeaADmENPi1FFpLaueiIImLbGmbn8Xd8rGBgCCMT+l27NtAJIwXip4wVpiddZegXmJKACmO+NvwW1mWDFnmBEUDSsRbmOSccZp+D4y7k0BRuwj95Rp7gWzZ03UB6SVD8jadW1vojRkBRuVzRnOutYyjyrbQy5OPLJ7GrcI+ZAmNcYbzYGoGIhgMg06MhOKycIYuNqo7Gm2gEn9SQzvBTwDkmQ2FdsOip7KJCD17rdYz1Qy2tFhcu6ESGGlYY6PY/OEvdigkgNpf3+0DIA8X+14i/VsDHB2zoDTSuQ8zr4CmDwKqYOVqcJ6Nrw56xZgaSJRVPRho9iJFoGz0znWU4b+5xvAj9fjw/vrxofT09P1beXyf/t6Ej9dX22G2z8=);lineShape=1;fontSize=8;" parent="1" vertex="1">
                    <mxGeometry x="653.9559507906476" y="252.30302748374072" width="6.112230225130406" height="7.291091835952011" as="geometry"/>
                </mxCell>
                <mxCell id="199" value="" style="shape=stencil(lZfbchoxDIafhluNbPkgX6fpe2QmpDClkCGkh7ev6HYpEuzf9m7j6LMt69eBlTy8bZ5e16vMb6fj4fP62/b5tFnJh1XO2/1mfdye7Gsljyt5eDkc15+Oh/f98/T369PZ8vz15fD1vMP3iVMSPkOZf0wLTDX9Wvg4me+2+yvznIm7sx/U8rK9MBVx9qnQGADQCORECQClkRQPKLW6DFSh5l2QRhUAjaklB5QCH6lnas0BtVPmZWCU+KpdSDoAGmX1QCEFVxpKKXugUwHPOgYV77SmeYu7QGIm9lLSSgIIO0J95HTAyJkTwwPjEsv7QI9O2MP93uI+YDceHhiUBABC7IGrd7hPMPUejyjACdWoV3OrgtBpmzPsApheGwAqDS8Ou2RDJ1SqXn52pmAgXEkzVJN2Sj5y3SoVELi9kvq60StOIaZxk3MNBU5iqTQAVSYTUw0nFEoK5Vp93eiNCgIGcfXAmJ9hMeVC4GReWQJGAJQyPkGCljKUhjkdTrB3G0CtlsLJx8HqQkVJbS7eZJyiExJVuQGQNNJ8gX8EWiX1+WCB6yAfrGkVH2nbAuWDtcWQ0+ceBIprYRIvvjKootYusVaWPHel+7ODNS2f02KRBldKOs8WF4CxD1S9MrLAG90UbxtvEghbikKyaUlAMnCMgXnEoCZx7OqpzmFfsA8dN9nkAe8T/DXRgTzgeSy6iJQYTQAk3hx3nUwlzG1YbvNVL74SA1crZb87w9LbqGswR038P6fmv5rbx58B/WW7203z/fX/40BvS9OPAXn8CQ==);lineShape=1;fontSize=8;" parent="1" vertex="1">
                    <mxGeometry x="665.9096342888706" y="257.0427798112222" width="3.9359528893912286" height="2.118677932582341" as="geometry"/>
                </mxCell>
                <mxCell id="200" value="" style="shape=stencil(rZfJctswDIafRlcMAXA9Z3mPzMSpNXXtjOOkzdsHGkW2AEnoJTdZ5kcCPxZCHd+97Z9edx2Ft8v59Hv3t3++7Du+74j643537i/y1PFDx3cvp/Pu1/n0fnwef78+DSuHpz+nj2GHfyOHDRIPFIXP8Q1BGF88jusP/XG2nhNkUuuRoIZtIFZADRADO0CSE5oCOAC2bSAzNAMUKHUbKAglKiBmIOeEUoE0kCJEB6gMSQOZgNABCiTtQ27Ajg+tQQ4KaAjRB1rVAEPOLhCKBpIb6ZahJQ0UyMUBGKpW6XbmOhAgVAtUx4eaISQLfBu5DhBgsQBHNzW+DbgCFYKXSxmiATIwOUAC0gXUIpBTogNgfJCa9nzINpeqqOTIWpqNQ62uSSJr1HGQhA+O0xI4NsBVt63U4GKB7FSciIjBmhQdlSSZMVqnq19xaLI1uH0Jg+S3KWqC5ugqRySTGwnQ8/raGWc16qWryNRMMlW/qHHqW7MK8gCRnXXrm+mw1V0jLY7wSqhNgZo5kRybyiLWt+a2VXNROzEI95NArrZviFfs+JARKiogZxdIkv861OmaweuAnGAAnLZYnwUWrSzKHeRNGwikC4IakGMShQUQpvljHYCiVcXgNia0k0CdVF5dLl1Jx8DvMYv6T9Nos7W7mWOmsWPDdmMMT5fdhjRVt2CcJoj14NpkQAiOMgVICx/ce7bZ3f0WIUNpstt71qC0zYU5jjZY7IAn3jrX0zBm6/X+mP3/sVwebjP9S384jJ8E8//tN4C8Gr8f+OEL);lineShape=1;fontSize=8;" parent="1" vertex="1">
                    <mxGeometry x="669.3710529218858" y="254.97624244085875" width="2.212324515736145" height="4.064407800925437" as="geometry"/>
                </mxCell>
                <mxCell id="201" value="" style="shape=stencil(lZfbbtswDIafxrcEdaauu+49CjRdgmVNkWantx89Q4lFxX/RO0fhZ5nkT4qawsP7/ultN3l+v5xP33e/D8+X/RS+TN4fXve78+GiT1N4nMLDy+m8+3Y+/Xx9Xn6/Pc2W89OP06/5DX8WLlCuM+T577LAlP3/ha+L+fHwujIv5HNnHonTtrnzFHxnL1QysM+UQ2evb8i8DXhPLvVAIYkAEJL+i9QFBzwOmbzrgOAolG0gRhujUNtH3gWSbyG/BrVQAEBmqn2UUqICnM7qNHdADiRgh5LJ9UBxlNw2IJ5S73QRCiBxIjZKonEDQPXti6+AUEVAbmlqgL4iBQhIH9ZaqYBMzzuwBSKIUk1U+0xX9QEDJVsASUMB6dVaC6w49YHFAh7UgwIp9kCmUgFQyA1AQokrgw8aaLSDUKwWiMhpLchhh4Kcrq0LraLkQMUpUIc8ZNT5mInNFloieAspFhDsRBr0HVBBVGJvARgmaXlaARXJVcXZh2kVhy2Co91CsMBjtkBC36QVMYSJkfxS0/8qEQllLrW2shIHDJP2jQGAFTH2vtxazxZgjpS5SFHvK5TEAhElTtU8fFLEYrLNMsPZ5PNAaAV2BSIlFFYemiVD8Umi2DsterICoGiBmVOOYRco6kMvPl1BvS+rlnpAVwR0gSRtPrpOG/hIidWOWLoSwQ7RUezzoCtetoEQ7FipKwlk2ifbjj0+Uly1c6UOxg4BwTZXl3DXsOXgXBs07/tM0ksvt0PvrjnbI9HD+ud25t/ME0gxt6n/Zo5UPRxtjgrQg5qb0FAAkWE7STKcqdhOqvyBqzUacyRNZ09AhipwJIM5uu7ceTtw1VvNML7q2KpiOB588ur4obk+3G6pL4fjcbnkrv+3t1pdWm7E4fEf);lineShape=1;fontSize=8;" parent="1" vertex="1">
                    <mxGeometry x="666.9079507860039" y="246.061127663329" width="8.381727259688523" height="9.843265941143363" as="geometry"/>
                </mxCell>
                <mxCell id="202" value="" style="shape=stencil(7VjJblsxDPwaXwmtlHRO0/8IEKc26tqB43T5+1J15D7y+U0SoL0UvTkOx+IyHFJaxZunzd3jehXc0+l4+Lz+tr0/bVbxwyqE7X6zPm5P8mkVb1fx5uFwXH86Hp739+e/H++6Zf/05fC1/8L3My4wNe6o4H6cv8mNQv71zcczYLfdTwC+UcwKUAp5BoBELilA89QqAAQqRQMy9T8XAZ5q1IBCDgEcsdeASqksA9qI8GLfKIEQCmUdgXeOnFsGZGrJHtDasn2iOHcIFCFQmwecQIaIm7ZnWDN3pWQe2nvz+5F8RPYv2bvYu8HbBfug7Wulgv3X/lSmAvITKWv7EgelFggRqrLnME5c6gHTNFlSABLkC0Vd4ShnAoBQomiXhISoB3oTaJe8tCWIITJ5XYRCDJQlSVK1faAM7HOgqB3CPcaeYjX2AdS4OFsDORCoSqlWhjIVwFGhfNUkEl2KoGTSg0EfIMqXkWxV8lqrfaQCUtpVxACYGOmEm3WmDIiGgmhUdBDSTAG0pgTBhqg8RtBSmpoOIkhlADFasi5FN6hyHRDGiJwAUNC1WX3sJ4DeqTJB0iwGQL6aqfpZlgA3ahpMmNQB0VsAyQw1qTQ6IZPTLnUyIYB4bLgUoWqLqL/sBdOGAGmVqZENv90QkaUedXaSj566DhARbdYlhwBSaU1v0f6GXGpWVkWHGRSurxKmDnWQ5Y0AUT40zbtLBpBxAxU7P4XeDilZpmxOaHAB6IXTJ0jHVXSCs3UQAL/CpXcBWJZStmlloBo52YHSOw6kNSVqZoLKWgWCjiICZmuQRAMuSdaNGCeGQ1Q21apbNMvmifYSZ0WgeLz5sFXv6kbe/tz9wmzn/+8Xf+F+Afz5B+4Xum1euV+EsR1c7ONg+fVJaNuSG/x9n+3kzNJl6FLOVuJTg+tCv5DoFKUy9t3rgGq1SKQFAXoR2ALQyiOsq3kGQKyOlNzMJQSYqV0PGtWZh5BM0oqeX/p7jblk+LFmXQcUe6vKEUqFAIoBSK+hmVDGyLgACp4J731zegNAPvx+4nrY7nbnF7Lp/+2TmHx1fk6Ltz8B);lineShape=1;fontSize=8;" parent="1" vertex="1">
                    <mxGeometry x="666.5237098848826" y="244.00265844436734" width="3.7458951744194566" height="2.7948358118181202" as="geometry"/>
                </mxCell>
                <mxCell id="203" value="" style="shape=stencil(lVjZbttADPwavxK75J7PafofAeI0RtM4cNLr70vVWEWkpAnyZsscrXnMkNyD3Lw+3r0cDxxe3y7n78ffp/u3x4N8OTCfnh+Pl9ObfjrI7UFuHs6X47fL+efz/fX7y91kOX36cf41veHPFRcolwnE4e/1Qa8U2v8nX6/2T6fnhX2jwtZe35D27WOlGg2gCbW8D+BEsRlA7SR1HyBMwZ5QE0nYB6RAJRtAaVQLAHTK3QIY+pAbiT0hF6p9H1D0Z+t0DtQBQF0MNg8pwzy0QMmeoGFgBoBEyfogmRhEqRWKDhBglFqmWg2AKyUBTncq1gfWWgKZLqs8cBzluA2IFMUDBGVa81A8IAAfUqWeLEAJBAgnjbKNUmyUgNNSqdgTIlMBBEqJunVaOQtKaaKDtdfSA5WU15UE05y716Q4HmwnLVOw7w9DQrbLKFJiZx9AQGv1ha1VArjZmNj72xBxMjV28Rckwc3HM0bIfZVosbyJylWQsc4jIIsirYAGXXzKtCZQjHpeEU1VHgEKZRdUGcTYBvTxjxeCFwAghuC9ThEWxnQEe0BHcW2eaYlxXJWJDiAfhYmTB1QUpkQlegCqVk11WAEK8iH6kUEBEQFmQVxECQlG66NXLvKQUefpI02L2iigL6wZJB02EnVabJRUxzviKPsoKQCpQF/NSQoImHJtdUJE5a0yVDwgIad1OFwB0BTTV0o/hRWTuq+mmIKi1KnZ7pnmctwDeAJp8SEfNIjuBCFGYS1j2FwSCDmdff+ZKIoA4hv0JAKIcew76CQzmKJtRdGCohS83mseoMx8FqDjp9N7SVRBHrTteoqGUb/bAPFrAJfRibcB0U/1zLAF6YDrwvq+Pu2NJt36EGWcuQ0Q6jZKbQxDexO0U8oCNaNoYXT/flAXmT3ddFgV8Id0zUm2LiJOs06fTgFiHkHb2wFcN9FpSdBaEnxdKADxs7YxGy1G+ogqbzWh6zzG4C/14JuDzqCM20+zhaRDKNr2FJCcdEco3W2lxFKgKCk/vbAybHAaVj831CGEe4sAW6ez4OrWKNlqzQ0OfNN6aAHTsoJ2sTwG83kXiOMV29teoWKH1lrgKKOE7DasDe/EqlnZ3eBk2NUnCbJOa7GgFTcPYZ/tO+ygKtzJ26P9ZxaIhT26jREfoWnsAJU69/uZzgFvlOwX0OkAdIm25QAIaPSXEr1DIsxXeAt7tL2t1EWHIHQPs1qs1F6AuKztK5Ts4PVU7ROIz2cvPT+21w/vN6wPp6en6wXt8nd/I6uPrre5cvsP);lineShape=1;fontSize=8;" parent="1" vertex="1">
                    <mxGeometry x="665.9909341915316" y="229.77656207805387" width="5.320485229460064" height="9.25813662350215" as="geometry"/>
                </mxCell>
                <mxCell id="204" value="" style="shape=stencil(lVjZctswDPwav2IIguDxnLb/kZk4jadpnHHS6+8L1UNFhMLt5M2WsBKwxLHQQW5eHm6fj4cYXl4v52/HX6e714eDfDrEeHp6OF5Or/brIJ8PcnN/vhy/Xs4/nu6u/59vF8vl1/fzz+UJv6+4VEjTgorhz/UKU8n/Lny52j+enjb2ytR0sG8kFdhnqqM9Z8o6B+RAjQfA4lEEAO23V0AlLnNAYQrjG0QpgJhLJhljSNydfBdQmXIZARWyVI2TMAA0UQUuNWOpDQDjTRsAJCoyApQqcKkVyuMbjDdGLjUqI61FYQwcAoUx6qr4FYVkfEVtlBAgUhmz265kAKhWDqNLC3EIsDvqlikKSCZ7XvOAmkB+FyrOpdJ5m1VQ2r2hgdxQocg7AHApqa/RJQZQclI7idsYQPYJU90FnUDbiIla9ACU31yoOZesRsHBWUG6mBs1FDOltLMHpEZi9fYJPJ87gRv/M/A/9Oi2jAKCdsVpZ4yKMxA7flbGJvbZxSukqF30u5tSVpQRVNzzGeZoIg7ePoO5o73zbJ+PytL3U/M/AfvSG9WGHwHxVorF868g3rrzX3sJzZ6/q8gI/LFO6vKt9oqY8KO7+kLxKsXs7SvoctLvrkLkbf5MEsgnXKOMOko/zk3ADQQQvPJaOhYIIHSRsinIDAssuI64UjaxT85eeoucxBudfexab8Knb0ARyi6h7PhhqBw/am8TQFxFGmWgg1qLkLHETH4oSGmbYhI9AI49K5GRo1phDDaJXVYbIOJZz9kDGABMTcgOEJCAL13qroAC86KIn8S1QFpL86O1YjWxeOx04yqHZ7oxuZNm2Lwsc5yqM52XAa3mko6pkRusNpPGcQw6WwwoaO7HtO4UFb5hWXPGc9DYxe37AFtCxmxNuQ/R2armlKlYjwcAXSXWCoh43dSezOsyaFMNAdhr36UPIpmwrk3rHIlwGbRdUdxuB+d+Cn7DTn05nNk7YSpd+UztR04jHDvmPydnHxBB7HdZxro6+jkSYG2afavOHnW8JJ4f6/JouUleqGGZYAnh5niAnx+sRtwcDF0pvW9ffPNizP8Hv+j8395+vH0+uj89Pl6/Pm3v+89Ndun6qUo+/wU=);lineShape=1;fontSize=8;" parent="1" vertex="1">
                    <mxGeometry x="684.5073176144888" y="234.73298470663997" width="5.899459788924105" height="5.953263962894562" as="geometry"/>
                </mxCell>
                <mxCell id="205" value="" style="shape=stencil(lVfJctswDP0aXTEkwQ3nNP2PzMSpNXXtjON0+ftS1VARQeupuck0HrE8bBz44e349HoYnHm7XS/fD7/G59tx4C+Dc+P5eLiOt/I18OPADy+X6+Hb9fJ+fp5/vz5NktPXj8vP6YbfM84S5wnkzJ/5wBD7fwdfZ/HTeF6JezLSiHtisy2eybpGXMiC262l2F5vmawAQCQfW0CmYLcBzhGHBlA8yBkAhFxqAOzIAZc5kvg2RIYcCmmoIVwAmSIwKRQSWg0hwShFR6mlIQYKvA1IhqR1OjE5YFLK5LkBZEM2gsTwJK1JOZCEbYBY8iqVlpP7gEihZVoCRWCSCMXWacnQ6QLIXgM84KEAJGpAAk5bY8i0uVHuMCCZJhVJA1BBT050gAgqqPydrAZkRITUilwBBBPh2p60isMWwsROBfI6U+4AGWnId7wOCQKi64jAGmJP9Q5AJXgxcseHLsE9qrlcS3JdEZg52yU4agNTTKQDIJOW5FybhPM7dRo8zm9hDYjYJOk0wOTrAbLng/TJB/r35HRX1AnzELIGCC5qVoN3v0YtdypwBakRMdXoTrp+DhAoq7gmTISpE2QBuMrl1piz7YjIiQKIUkq6beRlJ9oa1arkkoedLFrKbfbFBEdKKKO/jVLAfcZ78mo/KUYCpsvKpNq3t3Vjub+UZb21MsOVqay5Xq19sSbw/cm7LEhLfgtk2hpKCuChSUmvxuWGiHzWu0OA1xtNmoUNoBBklHgAlVNKXTlLDGzvthhbCd8Sb0Njap1uiesnDJrMpu7KqxcPNIZZiaNd29Ty/hA30JiojUFN1NS3yv+JW11XBsbdkutcBbZ/8um4K14+Pl6pL+PpND9y1//rV205ml/E/PgX);lineShape=1;fontSize=8;" parent="1" vertex="1">
                    <mxGeometry x="676.8206589116322" y="222.79632525030587" width="21.370105262588005" height="16.133978803511628" as="geometry"/>
                </mxCell>
                <mxCell id="206" value="" style="shape=stencil(7VjLUhtBDPwaX1XzfpwJ+Q+qMMEVgilj8vj7aOLMsNLsNqEqR25mUe9qJHVLmp2/er6/edrvnHk+n45f9z8Ot+f7nf+0c+7weL8/Hc78a+evd/7q7njafzkdXx5vL38/3TTL9uvb8Xt7w88LzkVKpaGc+XV5kjxV++fJ5wvg4fC4BBgKVgCy769YBdjc3zcAFQMiZScAhZ0ELllHJglA5VcEADBUqgQkqhhgFaCQAWeo5GRUayVjtu0LOaPtU9y2z2Sstq91257jIf2xxkCHAsU6OQQO7ClOBzAgoo5i0QG1KANUsrQfIdiwD34qCYfsdcICeZAAfr+s0eqooqKmEqS9pQQSNrIzOGAoZ2QfJQUyewjs2R/5/lgpJ5hfGf+QKIP4c7Rl/H0gA/zh7Ev/uUIKiI+15FVFB1jQrCpWepR7yW7pnGKAw/YsCLIiMMF8IleVfQQFGoLOsKeAGO/I6/M6UKCc/yIlhUUPaWIakrnIgAUp5j6hOGBTf7JeE2bKcaEKYsQcj1HmzFIGLG4iIl3iLP8tk3VA6aowAJ4MAlTy6gtYWJqQS2YylypgZgNIanKmkVQzQEdpOLl1aDUjeCxGHNYgv+CH3qwDkpY777BLgUKaACgPXndMdgmeYVLIdmigeNVoPrxOAVuAqAAZzjkMSJLSXBpIJPkMTh6ai88hgJsADs4VHNboNcCiM8ROl3+laNK6xwCkS1x8NWqX3uCDmThdUGmMVrnIQ0C9x0ztnFMNw1T7ADsApevz5iFUfRtMiKxnYCZERF9IesRjyjmkxkELEwNQmN4NyJlynaIEXMo8+KvMJQqoyU1zjxsVv95Gua0rwNgd1vt66eW/6IoRAXhwlF+wHvZdP4pz0dnRcsHVrPuu6ePuen1zV5R54KUPDSc8jPlJmAoIazui5EM7FZr/rSZQyHgBMF3oxiI89HkLoPLAIzfSyhZE+YVi++K6BVAjZRnDwX/ba/Xe+bHXvr3XIu587LVwrw2aZYXXEsCBrPdC5gwcn/tQN0jJex+ijNOXTanApYSVTYljLPg6q+jxIvKYh77AS47MMTcV1Ptt7QvCAuBQkdpO8gGIvfWuA7jTTy6hMmXe+AmA8ta2oqABqPCY+jbrsBZQSW1WVlceBYojjwZWXY2aXo1bAEW2ZOF00b4g5S45yOb339a+DeAfr5fDd4eHh8vd8vL/+jKZH10uov31bw==);lineShape=1;fontSize=8;" parent="1" vertex="1">
                    <mxGeometry x="677.2228669015891" y="220.97565237464994" width="5.34190913053717" height="4.749161484197612" as="geometry"/>
                </mxCell>
                <mxCell id="207" value="" style="shape=stencil(lVrZctxGDPyafUXNfTw7zn+4ynKkiiK5ZDnH36eZzXA5TbLXfpN2AXIG02g0MHuJH749fvr6cAnu2/vb6+8Pfz19fn+8xF8uITy9PD68Pb3jr0v8eIkfvry+Pfz29vr95fP1/6+fFsvlrz9e/1ye8PfVL3pzbvEK7p/rJ9l8+O+DX6/2z08vG3t83Wf7Yr4Je2+5TfbNYj23981Smuy9t+aEQ7YcZodqIQmHZGF2CM6i2LIP1uclhWipCwdvvc4OxVKWDn4OauiWvHBwFuY3xGBBvAGPI/s8zv3QvlmOs323Jo4Z9nOIUrIm1tOskX21UtT6fZ9R6ixL+zrvN8exo7OAUoAyjkxsGEeW5gjlrkERrFLihIHcY4dofd5zyVZ0JoQ5qAXJpN5QrMybrl6nzpq7q0O0ptgCqPSzQ7Oi6AJsMju0aF4cdEQmzOfQqnlx0gD+/0AbDt2NRR46JG91XlIPVgS2E5JhPume5JLyfklJkiqQQ+nf4wjDsUMbx7Q6eEnDNQ86WcPaZMI1IId4PsuwtmJuhjce4RRldObtWqyKjMO5EglUnXGICYGv1FHtTh3mgytrrTh1mKOUwXt6SZRAOVkV0Fgc5oPLwK9+Q5wdgF9FAn3HfOD6qmoP3jDnQ/ISGji4Nm861vHJGTT6vIeYZMEFmDu9AeBTb6hW55MOddDCGbzjfNJBR6kFJgHIElWiwaR+hjf4XIUVXM3SCmhVNLOm/OrgRsU4dohMAn0k+THxVQYrgqqIEsCYoVekykjRXCV7RZNxR5NQu8p+J8OyXD++LpScVpRmwOMS2ytZmCySTLIkSBsSg+nInKr/gRXG+sIzkUSYhgpT4t+zlg9SLSytwZzGd3qFsOsVzClVuC532Dut4xPLWiebqVvC3uydik9lWY7OReGhcfydlGt+lbC3+EjVDN7l85J42NmDMLR9mvEJXaT1KeWX7kKWeHK+R5UvOC9ulqUiT8xXaFbVeiITrtZQC5497beo89rlC+S72u9BPqqCseQ7Nb6S//d84gehnvLVjE8n1RPinxzZB91B1Uz2SpL+rP1SHnb5Ls4X9SUFthfrvzX1G3tVv/ooPxu+EvmVdpLDyfqFHjozP2exX+gHyvcwdNqxonFcv5Lkt7pbT5X1EZqM4gkB1JVDNUeKKcsTgHKl8ZjXS4KYpvnbgmnlEDnnF9JVDnlMwzbTKzlrKTz8gezrIo17HR3JSkNR8mJvrL7REMg9dE6c5MY05cyBMvleU9N3E6w7bVMfUvJHG7M+uPYHWz/vHMO1aH3QOw8qCwrUnTDNm0AKqjYIJ0eKAjkYRUIAG0QxtcsMWuC6myNU1bSjKaBJRZJVH+0otXJo7hTNgAUCLanLc2irrNzMcxQRI4iFZlJ6nlvDECqrQ5Ept/R+NGKqUlsDajz16mNQcFYcQmCHphw8d1sbxB/Xq8L9JV6hBEPyu12v1HNcQSsrtq4HOmA6kqhdX6DEXY3rafDt2QiVRGfXXVTYzQWAeDnKbjzKbllGCTqMdH/TEyAIwzZvujY5c0VdbjRJ0K174xUhQ5R9ZZYpay9znA5j4rsZJSoa23UKJcqCFXlqh/xT0j+MerkZPEYVUOZtFB91wbQb2WU9UHOMOZRPFR/H8Ux6VLErhUhtFU/Hk58IilVZNkrGZoCoEB2501nuQcV6EpfBpTUV68l8DYIVejWqY7ZGUmv8U35B2KpR4Hp/uZk13hkV0dVSH7PEs1aw8mhPiVS07qQ59egKB0ajEy9b/eVGk1svydKdW+U1I87KQOZWM4n4A45x1yqr5wMu/Hx1kwF7ir+X+IyRAeqHgD6zJ4Bq/Nw6iE3rqOITeTSgL4hh73j06ZQwCLz+JO+e4m40k+SF+8/+buO+Pf64/Ujky9Pz8/U3Jtvv+Ucl+Oj6g5T48V8=);lineShape=1;fontSize=8;" parent="1" vertex="1">
                    <mxGeometry x="200.8497488440155" y="101.46526342475471" width="6.617690861652814" height="10.082414204708318" as="geometry"/>
                </mxCell>
                <mxCell id="208" value="" style="shape=stencil(lVjbclshDPwav2pAgIDnNP2PzMRpPHXtjJPe/r6iLicHcbydvDknWi7Sri7swt3r88PLfsfu9e1y/rr/eXh8e96FTzvmw+l5fzm86a9duN+Fu6fzZf/lcv5+erz+/fLQLNuvb+cfbYVfV5xUcrWh2P2+fgnk4t8Pn6/2x8Npbe9m+xRu2ydHebRPFIB9TCQy2AtlAfaOQhnsCwlYPyTyo713VNJtAFeqPAICBQRI5AxAyCOAo2iOVCm42wBd758LO4CZCnCSZ5I0AtSrfBtQKY1XCJ4c2CATj0FTN2cPWEF1tNcwCjiP2o8kajQB9pl8Hkmn6xd03zj6J+n5M3RocSNLlecgxhoywyLRG4AYs6c6xjir8hAgUx2PlEP32rYSIqXRqTn3L9tS8+THHYqjCrwadT0DCFRAckmBxI8A6czaBlRio/5CDOIgkWocAbU7eptJzt6hekrgDlmZMwauKlkAV9WJJuNV9RJwa0n93wtAUw5QW53Ip18yuHRVJzoLQJGudQJkCiBwCihsASgNe7fQf0EUCoCuukVmC6go6dVph4p3yFajbU9wCfWi4bcCKgJM1aoB0JGCLbfN0ygQ3NPQCpAQwPfMvgJ4IAgFcLBxQCW6AbwFOMQ+TzKKWiOTQPrWS8dqAR4dKUwaFSjqpshgAYKOJBSnHQSTr0waRWmjsX/SKGM92EtnXEWrLdMtkaDEtHBzBYACmvJ9+4LIpzmCLUAQIPdGZ604UHfr1LCuUtU2IvYjr7dAgfgooHiKRkG554XtoqUdpQEIJRCIPIs6EQN+y9JQraocqkHaUMWp8KIalGLPKgvAdRFutye1Z5WlF1BNIYCORuMdtBQjBQWxiakwFERwln25wMDxdKS8jB+3GlFTeLXDQZf23hYIEdhi5T4dLfa+i3b7zjYHJIG5WLk9+lR7e5T3XK9O69kBrD/1GTqbRBAzb2cNnX0CijGxGaBdnz62hWCrYZuGUHqxPYaesKBpMvRauSSwDJsSX6xHfaQItN+ubAAeNlZthp+GekSh2Jd7fzRgcGWNaBo5GuGjR5Q+bS4+7dV6OxWx1b2HA30qVgMO9i+SZ3s0AEjpY9fKHpxHqu0iHWzANIVINvaoKmv1iGzsEYEyW006OJ6rvXkUUpEC/6h9CsY+ovuyzUEeDi9q7y1/ED/VP2Y01wOi8zs7ETJ8NMvOdqfcx+JbfPjYI+F/7fXH+4vk0+F4vD5orv9vXzD10/X1M9z/AQ==);lineShape=1;fontSize=8;" parent="1" vertex="1">
                    <mxGeometry x="212.12291370879677" y="99.15160693360849" width="5.154914708221458" height="13.620657523797705" as="geometry"/>
                </mxCell>
                <mxCell id="209" value="" style="shape=stencil(lVjZctswDPwavWJIghee0/Q/MhOn9tSNM457/X2hqpRFSNpM32wJK+JYACsN/PB+fHo7DMG9366Xr4efp+fbceBPQwin1+Pherrpr4EfB354uVwPX66X76/P0/+3p9Fy/PXt8mN8wq8JFynLCAru93TBU+a/Fz5P5ufT68K8UvW9eaQC7D1TSh0gJJICAJlq7ADMxAAQHNXcAaKnWgEgUXAdIOkj0AlCsXcpVZK4D1CPY5+lnKhkACjk+xiKb1FtAqKjyD2g0Ph3F6Au9UFXTxFkKWYKtQckWIdYW4gzQMgBlxKTDx1AmAQErVmPPZfEUXL7gByIe3LXOaptwIp81TUnNwFapn9kXhROQD+MZerTqk4GAQ0XbKWTUgO4VAvlvtJKlpz2ARLI9zGwo+ABQDu4PyFgLolmvaeGNq2AwimgiAVEQD4pNksKCKAOUi35RgByqW64xKBwIsTJAgqKQdrtRVoZ1UFIqgUIqrRYtoZAGXBpdMnEwK2Uu0EHCygoS3V1QmyzcA/gqgUwqnSxQ0ABqONG8q1ccuiE3Ki2CDqhE1JbUAsAGpUKKP1c0sIxylJqM2JBjYyDtv3gW6L3AGbMKL0zaqDShsqy45BLheqq4zzmUioWwMglIV9XMeB+yMlmCe2HsePYAqBeco6cyWtoq3vvCLOzRjLhKVBXTQ0B2Qom9u0R24A5xnkFzVtse2dpyxlJxq0JtwHeAnKkBGZlWdG1KABvditnGG7FXOzo+1idmBO0azNouVTs3r0TeE9hOaPW7/TaVX3J+oSijrNkmwEeiulRnBtNVqFyZaFgNBkex5ybGJlLLXBTq1xPfZoKQ32vLwS1HzRafNTV+spRjOpz7co2wFupm3RTgzr40nIytxxjQLBk4kQOrZQmwOapUeCsjDYCfbNzgBg62/siKHlBDdZjkiKosbPpUaUEnHd24qkSA+WaG72ZY3mrd70xR4PC21c3LM9nDXg3R4kMlNiaA2f0pc0646F5tk9HYk07W4w5mohrjsFt/J/fOj401x/3zyovp/N5+iqzvG8/w+il6RMOP/4B);lineShape=1;fontSize=8;" parent="1" vertex="1">
                    <mxGeometry x="218.74354411363987" y="101.58080697920468" width="7.082976574181301" height="7.27088094699128" as="geometry"/>
                </mxCell>
                <mxCell id="210" value="" style="shape=stencil(lVfZctswDPwavWJI8AD5nKb/kZk4taeunXGcHn9fqC4lEbI2kzcdWAFYLABqCA9v+6fX3cDu7Xo5f9/9Ojxf90P4MjAfTvvd5XDVqyE8DuHh5XzZfbuc30/Pt/vXp9FyvPpx/jl+4fcNx5Ukjyh2f/4/oZr+Pfh6sz8eTgv7EIhjZ+8TiQCAUPS9g0DVbQMiU5YOEBh6iJVS70E/wWEbkITGdwtAYnJ+G5AT5Z6k7CkADxIp1x5QqZRtQFHWe1pFKMdtQNUAXAcoiWLeBnjnyPWImikARK22EFVrCbLW10ZLtVBkAIgt5AlQm7zuAxx5tgBBvCbyfSEWPNxHOItQFwXIT1QcyQIiUJOo2IKlKYNCqHaEbSEE6bW0Hl6UGqlpVKfxkChVmAObHCL0oCxV40HHAMhB62C6WgER1EFLnVYeoL5dU/MCkEFImqJ4m7QHIWmZarC0IvGNal4V7gNANR0k5FBIhZJp6kIeJZ3sKFNABdLQybTuhwzGRsmtvxaACgpXPJWwAoClpbPUlVVIgFYJ5N0qaSRvR4EtwOGOs0NAYKU/D9BN3SetRAtgKSUqvbylUAGAWFoHTwDfiL4PcK0hp7XIFICWgrc9nQJMWk8vZlNHLSUIycc256bTRqAEki5tj0/HmdgG1X1W7Z72mRjYr7Z0gMvEtQE0H98yiN4Tm2jgEFay2ZgzUhClXqKOBK1aS70jBmLw0yFttnfoxJPW30fa8ZV8NPYezC2lOlr7CFp+LQUHD8IsTYgz+wnZ1zb5Zy0wtv/U0f9je72Y/zNeDsfj7Tdl+d7+l+ij2z9NePwL);lineShape=1;fontSize=8;" parent="1" vertex="1">
                    <mxGeometry x="230.90366723228647" y="102.4381075122252" width="1.2206834266624973" height="5.716193277073542" as="geometry"/>
                </mxCell>
                <mxCell id="211" value="" style="shape=stencil(lVfLctswDPwaXTEEn+A5j//ITJxaU8fOOE7a/n2hauSaRLSxb7K8IMHFYkEN4e59+/S2Gbx7Px0PPze/xufTdgj3g/fjfrs5jid9GsLDEO5eDsfNj+PhY/88/357mpDT0+vhc1rh9xznKYUpyLs/8wtHIf178TjDd+P+As6Ocu7wKa7jp+VKg/cUHcAXm48D+JCJY4NnSnkdHxNJavBhWeBLfEpUaoOP5Os6PidK7XkTsV/Hl2jxBeAlUJQGrwSA81bl03X8sAC8UHAdPwXwUys5btdnSKgGdAdWRWRQYQ2o7Q5a8wp2YHeWzJlT3QKIWreQVnRZyBUYENuchCkzpLWTUeVlz7UA1+paK5lR4Qr59gy6REI7ZIrdDnGp/dcBqsy2cpKWJdYCfKvV4kmQWBM53xaukIBuswHRk8MBXUpqOIxYModm7VikJaW1NZhEGWVk6sYUkfSMMDwFYBhWeUJ8k7RZoGPb5gl8a3/GskyJKy0gh+/6szOZUpZjXWljIiS4DJ1PauE9CjBGrEsIKtytAXY01EACCmFnjzqABx5jh5sGCAiw03PqJ1AHO56VVmQZdv4rS8iU7AXjQo9XXmEmKwYB9o40NRU4hLmDKR7NK+0v35/ZA1Z5udJdCKOCfNwim3MzFHjJcBTb/IvmAwhyxG0+GRNq53miCmRn/SUu7X1dPkE9FXi2Oa8yXCC+45M9HP6mXpkchHdywNnceOP/Fq4P/z8uXsbdbv42ufy//xjRV/OHTHj4Cw==);lineShape=1;fontSize=8;" parent="1" vertex="1">
                    <mxGeometry x="229.4004277870821" y="104.62788226728014" width="6.456445956405075" height="0.33145240050758595" as="geometry"/>
                </mxCell>
                <mxCell id="213" value="" style="shape=stencil(lVjZbhsxDPwavxLUQR3PafofAeLURt04cJwef18KCzkryp4kb2svRyIpcjjaTbh73T28bDeeX8+n48/tn/3jebcJ3zbe759329P+rE+bcL8Jd0/H0/bH6fj2/Lj8fnlolu3p1/F3W+HvgkvkagN5/rf8wZSXP74v5of988rcMdXRPlIIwD6S8GCvK2QGgEQljQDBgEriB4B3lPNtgL6ubgQUygkAIsU8AEIiAUH7THF0KeoS8TYgMHkZAKJOCgAE4nEHKVQ9AIiNIQk5EHTIfb0OyNwTfRUQmXisjCzkEcBTHEsjVwog6JbEcYfiqYDSiIn8uEMRKgUAKqVxh8pU3G2A6HphBARy4KRTJB9HQCQHXNIkmrTWyxJXAUUrp1iXMoihOWBc8pRAeVexLdoAIIaq/SDWJUY7XBpyBYAu6cFNaY2Il1jLdawNDSuAvOoWZaSNquUFOkgBbA4ikwPlqq9LtQDEZOpAGJtaE+fxUadiAajl9GBtMZXeU9cBzvJMiwFlSalvCppBMRXl+zydA2oIZRWzg540ICYFZLODFhNKK1OayxXsUK/1KCNAIDGAD1pOprR+0NSpD5wVAHFlq5wpaJilavm+MQ8qvkrVNLVg2lBAsICKWzSYtKr8QCRQutpZVavgFjViQ5dgILDawYkFQF76KqAEK8k0DR64pCMoTACU1lRIxqBXdHsd4acZpIwOakNSVy+rqFG5yiSx2skheSKUpgEhIE1RqW8aiwUAgqZ9LKZSodpQTWa0gJ5lRbpSJsXEkO9VV4oRcQkeXHA96xeAIw/OwVc7gtJFQ90S0+aGIroEyFK7kRht7CEb64XADAg9ewcArvTBf7kQZMhkeoWxd5SK5Ym31Oc1BsQzVjroPQrFrFJjdMjhS1O00yHB5mE7rnAnsNXpvlPUDXO25gx8n8wdTM3kjOsF+LlQGd5JXK+sd/MIfHd9sXdzJPA0b8mYM2p3O/4wS0ebGbx67EPic76LlfDc+fT6yPjah4sPzfXh/RvJ0/5wWD6xrN/bbyr61/I9Jtz/Bw==);lineShape=1;fontSize=8;" parent="1" vertex="1">
                    <mxGeometry x="240.04836323732047" y="100.27924377523635" width="4.905237165689869" height="9.074498825461072" as="geometry"/>
                </mxCell>
                <mxCell id="214" value="" style="shape=stencil(lVbZctswDPwave6AN/mcpv+RmTi1pq6dcdzr7wtVpSrAEjJ5k2ksiWN3ySE8vB2fXg+Dp7fb9fL18HN8vh2H8GnwfjwfD9fxxl9DeBzCw8vlevhyvXw/P8+/X5+myOnr2+XHtMOvGReR6gTy9HteSIQa/q58nuNP43kV7xJyFIAQ4fM+IDg0JwAuIxiA6EBFAjgl2gekitpkSph+7cU3QssinkDG/i2gypIdYjHiM6KXPUW18qmIan+P1AxAQ5Yd4ozIaKmjpcKlRWQOgY8IqqcNyRmAoocQC1IyAEwkxbzQqbUN8Giy6lTgLAD1pqwA/87cBNQCnyQgmUyqsWtlpR6LSjWA5AnRdwFuAzycVE8IKFZKHiTnwBK3Jj2lpPSZEK2UIoqcQ+077HXVyUF7u4KGJuOpb7DLC1Lx+R3iyYIjyNq/3Mmf+lB2tSN55yqcwYoNeXqmouHCkwMoeWYkSwu1z3QpOnUq7pqYkqdDtVwvaJ9PGd5yMfYsJZ6l07uA+BFArt1GF0A176rku9w7IHPRBje460Hqmc+01Mbcj0o8ZHq9c3oOzMdkUQNZdpW5kgzyFRRJvRUbt5uEUvUBVnzU3GZqWReD17chC7wacnN6Zmw4zZgZ6ZuNLTMY+dxpszCvDdZRd5MlnlcMv2O3UpyLnec79d6T2vI7tkelmghnvb8++CJ8P54//j8/X8bTaX69rv/Xz1Vemp+64fEP);lineShape=1;fontSize=8;" parent="1" vertex="1">
                    <mxGeometry x="241.05422257939426" y="104.29968829403066" width="3.0759859698287504" height="0.9587922302531074" as="geometry"/>
                </mxCell>
                <mxCell id="215" value="" style="shape=stencil(lVbZctswDPwave6QBM/nNP2PzMSpNXXtjONef1+oKhWDjbfNjB9kCiscuyAwyd3L/uF5NwX3cjmfPu++z4+X/SQfphDm4353ni/6NMn9JHdPp/Pu0/n09fi4/n9+WCyXpy+nb8sXfqy4BEUsP/fzz4FDKr9PPq72h/l4ZR/0tRiARGQCkIRYDCAISrsNiBpSNgBf4NNtQMoI3gIcMgHkhlANINKcm0exOTs4R+wjxNmA4AOxz8gyxNM8sa9jSTXhVgmgIUcLqMiEA++2DDfWSlfKLRfJCkmJL6xIdaQ5CveQITaJ2OBYmQTNekgBMVOexdY1aUgkh1pRkwUo08RDVaaHpDMSkWpNcENZW/f5NiB2qW0AVS/RhgKcLav2J80h9vbdxMTlqkkHCyioLKIKsfYBlQnDoVraHAIpkeoi5sE+RmKf0GwvCIR1W0Gz7VxRWDwNYu29eiTdqYA2XKmx98YtQLEACWgMoBEPOnWUM815UFEsEEZa7Kq8ap3M7ouAYD0szcm6+b2A4hEtDynRKiW9RG0O2aOSThAF2EmlPj0B6Hj2lrjKb3odBM4St1DJmq23yuso4cMtI9oUFnERdcdx9GhAjhRVRiGpUmjGKEM8rk/rN+3dOMv1ik1EFa7vHhtlmi+J/6/BWaRX4Ib9sCvkgsRG8zgQVHONxB/gB1Frq7J9rVfjP2fgexfIf9vrw+u2+jQfDuuye/1+3G71aN2M5f4X);lineShape=1;fontSize=8;" parent="1" vertex="1">
                    <mxGeometry x="240.8578653287667" y="100.65123414277923" width="2.957936308384287" height="0.8900292675049437" as="geometry"/>
                </mxCell>
                <mxCell id="216" value="" style="shape=stencil(lVjLbhsxDPwaXwlRFPU4p+1/BIjTGE3jwElff19uDa0taj1FbmsvZyWRwyGpndy9Pd2/7ncxvL2fjt/2vw4P7087+bSL8fDytD8d3u1pJ593cvd4PO2/no4/Xh7Ov1/vF8vl6fvx5/KF32dcIo0LKIY/5z8ChfDvjy9n8+fDy5U5R2J19gnY2+sYBnsmicBeKbXB3haU2/Zin+PBXogLsC/++4ky2E8S0jLYZ7j/1Pp2u30lTrftNVEc98Ohn2gbUKnmERCpAECOVNMIUOIKAJnKeAQuVNttQAmUxxhY1BtYoaTOmRWQ4KFL9awztwYAqOwPbURpCgDq4yyZAjh0bRTqSCQLHIh0ixTHLSWjHqB2S9TGSCeLPci1lqmNXNJIDSRDq5TGFTTDwLVG4rKBKWQgF2GVkxWh3Q+3lsijX3MjBUvYIcq4QhEqCJA9N0qhhrZk5HQ5HSkgv/IEUKrAr3Xit9FLEPuSp6vRSwE3aiAeQ90U0tWcKCOZLDJI6Uv0KmCAAvhduCvvFQDFwXRGnTAFXK2MOilNSwD5zpYRxQMyCEQuXiyXHAFCYwAn+EbgBtxkAJ4ACbDPAEk9IKAV7LXzUqEMAmGAFjwAHnoN7BWAUUnhjS2hum7s43lLiK7ihckAilYQyuoBkK7StfQqDoLKonjBN0DFK+iUoxF7yQeuwRpkcWhTPiAlsxydV2gogUwkpjM0IN9GvlI9oKB+pvTKf61kGJCmMwQM4CnSyK0GcAXCAIjeBqhOXAssch8GWE/mvSRUEZea72eWsoeK3EQ+K3sKvFQzxfEMVkYZnMGKZhwrivWBiir7VIKsFYAA8dRYchAo39I7jF5a2hnUxFlld/2PwlZgCdOYQNaTIREwgNNWLXCmWbw0ioCaG1DgmpdKG4sSWMEiXcd8SLg7qdLDtAIY14fWW+e1vy/dDdsA9YVdBI4cSzvjpiCjIxYBdUONwoYpywSIsDVWi4ObFdfuehtgbeq4go1+jKbR2Km2AlKfT7fn4zrNuza+ggSyAbyNbrUBGemSzM1Jv4LYtpdO/jWlYfMTi+9lchfz7RGodg9ebhxQ+8bsVU9gBzpdUAjMnOgVT+A4xr1oXMwDiBb3RvNye1PA3oPvtmNvXW+Yc3TmqCxPo+eqY7e+7ogGZTT42TnASxLu4nExR6nLXn1Cz5tbUQ3OnBHnvXriMeqDd4T/NbeHy3Xk4+H5+Xybef3eX1/aX+erT/n8Fw==);lineShape=1;fontSize=8;" parent="1" vertex="1">
                    <mxGeometry x="244.9885047745538" y="97.39721415633602" width="5.565491642481611" height="13.397931689926581" as="geometry"/>
                </mxCell>
            </root>
        </mxGraphModel>
    </diagram>
</mxfile>